/* XPM */
static char *result[] = {
/* columns rows colors chars-per-pixel */
"128 128 40 1 ",
"  c black",
". c #030100",
"X c #030200",
"o c #040201",
"O c #060300",
"+ c #070401",
"@ c #090500",
"# c #0A0501",
"$ c #0A0601",
"% c #0D0701",
"& c #100801",
"* c #100901",
"= c #130A01",
"- c #110902",
"; c #140B02",
": c #160C01",
"> c #170C02",
", c #170D02",
"< c #1A0E02",
"1 c #1B0E03",
"2 c #1E0F03",
"3 c #1D1002",
"4 c #1E1003",
"5 c #211103",
"6 c #211203",
"7 c #241303",
"8 c #241403",
"9 c #271503",
"0 c #251404",
"q c #2A1603",
"w c #281504",
"e c #2B1604",
"r c #2B1704",
"t c #2E1804",
"y c #2F1905",
"u c #311A04",
"i c #321A05",
"p c #321B05",
"a c #351C05",
"s c None",
/* pixels */
"ssssssssssssssssssssssssssssssssssssssssssssssssssssssssssssssssssssssssssssssssssssssssssssssssssssssssssssssssssssssssssssssss",
"ssssssssssssssssssssssssssssssssssssssssssssssssssssssssssssssssssssssssssssssssssssssssssssssssssssssssssssssssssssssssssssssss",
"ssssssssssssssssssssssssssssssssssssssssssssssssssssssssssssssssssssssssssssssssssssssssssssssssssssssssssssssssssssssssssssssss",
"ssssssssssssssssssssssssssssssssssssssssssssssssssssssssssssssssssssssssssssssssssssssssssssssssssssssssssssssssssssssssssssssss",
"ssssssssssssssssssssssssssssssssssssssssssssssssssssssssssssssssssssssssssssssssssssssssssssssssssssssssssssssssssssssssssssssss",
"ssssssssssssssssssssssssssssssssssssssssssssssssssssssssssssssssssssssssssssssssssssssssssssssssssssssssssssssssssssssssssssssss",
"ssssssssssssssssssssssssssssssssssssssssssssssssssssssssssssssssssssssssssssssssssssssssssssssssssssssssssssssssssssssssssssssss",
"ssssssssssssssssssssssssssssssssssssssssssssssssssssssssssssssssssssssssssssssssssssssssssssssssssssssssssssssssssssssssssssssss",
"ssssssssssssssssssssssssssssssssssssssssssssssssssssssssssssssssssssssssssssssssssssssssssssssssssssssssssssssssssssssssssssssss",
"sssssssssssssssssssssssssssssssssssssssssssssssssssssssssssss      sssssssssssssssssssssssssssssssssssssssssssssssssssssssssssss",
"sssssssssssssssssssssssssssssssssssssssssssssssssssssssssss o1taae6+ sssssssssssssssssssssssssssssssssssssssssssssssssssssssssss",
"ssssssssssssssssssssssssssssssssssssssssssssssssssssssssss ;paaaaaai> ssssssssssssssssssssssssssssssssssssssssssssssssssssssssss",
"sssssssssssssssssssssssssssssssssssssssssssssssssssssssss ,aaaaaaaaaa; sssssssssssssssssssssssssssssssssssssssssssssssssssssssss",
"sssssssssssssssssssssssssssssssssssssssssssssssssssssssss+paaaaaaaaaai.sssssssssssssssssssssssssssssssssssssssssssssssssssssssss",
"ssssssssssssssssssssssssssssssssssssssssssssssssssssssss 6aaaaaaaaaaaa< ssssssssssssssssssssssssssssssssssssssssssssssssssssssss",
"ssssssssssssssssssssssssssssssssssssssssssssssssssssssss raaaaaaaaaaaat ssssssssssssssssssssssssssssssssssssssssssssssssssssssss",
"ssssssssssssssssssssssssssssssssssssssssssssssssssssssss aaaaaaaaaaaaaa ssssssssssssssssssssssssssssssssssssssssssssssssssssssss",
"ssssssssssssssssssssssssssssssssssssssssssssssssssssssss aaaaaaaaaaaaaa ssssssssssssssssssssssssssssssssssssssssssssssssssssssss",
"ssssssssssssssssssssssssssssssssssssssssssssssssssssssss taaaaaaaaaaaaq ssssssssssssssssssssssssssssssssssssssssssssssssssssssss",
"ssssssssssssssssssssssssssssssssssssssssssssssssssssssss 1aaaaaaaaaaaa5 ssssssssssssssssssssssssssssssssssssssssssssssssssssssss",
"sssssssssssssssssssssssssssssssssssssssssssssssssssssssssXpaaaaaaaaaauOsssssssssssssssssssssssssssssssssssssssssssssssssssssssss",
"sssssssssssssssssssssssssssssssssssssssssssssssssssssssss ;aaaaaaaaaa> sssssssssssssssssssssssssssssssssssssssssssssssssssssssss",
"ssssssssssssssssssssssssssssssssssssssssssssssssssssssssss >paaaaaau; ssssssssssssssssssssssssssssssssssssssssssssssssssssssssss",
"sssssssssssssssssssssssssssssssssssssssssssssssssssssssssss O5raat<. sssssssssssssssssssssssssssssssssssssssssssssssssssssssssss",
"sssssssssssssssssssssssssssssssssssssssssssssssssssssssssss          sssssssssssssssssssssssssssssssssssssssssssssssssssssssssss",
"sssssssssssssssssssssssssssssssssssssssssssssssssssssss o%,6etaaaat97,%  sssssssssssssssssssssssssssssssssssssssssssssssssssssss",
"ssssssssssssssssssssssssssssssssssssssssssssssssssss o=wpaaaaaaaaaaaaaap7;  ssssssssssssssssssssssssssssssssssssssssssssssssssss",
"ssssssssssssssssssssssssssssssssssssssssssssssssss o1paaaaaaaaaaaaaaaaaaaay6+ ssssssssssssssssssssssssssssssssssssssssssssssssss",
"ssssssssssssssssssssssssssssssssssssssssssssssss o4aaaaaaaaaaaaaaaaaaaaaaaaaa6+ ssssssssssssssssssssssssssssssssssssssssssssssss",
"sssssssssssssssssssssssssssssssssssssssssssssss ,paaaaaaaaaaaaaaaaaaaaaaaaaaaay> sssssssssssssssssssssssssssssssssssssssssssssss",
"sssssssssssssssssssssssssssssssssssssssssssss +waaaaaaaaaaaaaaaaaaaaaaaaaaaaaaaae+ sssssssssssssssssssssssssssssssssssssssssssss",
"ssssssssssssssssssssssssssssssssssssssssssss -paaaaaaaaaaaaaaaaaaaaaaaaaaaaaaaaaay& ssssssssssssssssssssssssssssssssssssssssssss",
"sssssssssssssssssssssssssssssssssssssssssss 1aaaaaaaaaaaaaaaaaaaaaaaaaaaaaaaaaaaaaa< sssssssssssssssssssssssssssssssssssssssssss",
"ssssssssssssssssssssssssssssssssssssssssss 1aaaaaaaaaaaaaaaaaaaaaaaaaaaaaaaaaaaaaaaa< ssssssssssssssssssssssssssssssssssssssssss",
"sssssssssssssssssssssssssssssssssssssssss 1aaaaaaaaaaaaaaaaaaaaaaaaaaaaaaaaaaaaaaaaaa< sssssssssssssssssssssssssssssssssssssssss",
"ssssssssssssssssssssssssssssssssssssssss 1aaaaaaaaaaaaaaaaaaaaaaaaaaaaaaaaaaaaaaaaaaaa< ssssssssssssssssssssssssssssssssssssssss",
"sssssssssssssssssssssssssssssssssssssss ,aaaaaaaaaaaaaaaaaaaaaaaaaaaaaaaaaaaaaaaaaaaaaa> sssssssssssssssssssssssssssssssssssssss",
"ssssssssssssssssssssssssssssssssssssss $aaaaaaaaaaaaaaaaaaaaaaaaaaaaaaaaaaaaaaaaaaaaaaaa#sssssssssssssssssssssssssssssssssssssss",
"ssssssssssssssssssssssssssssssssssssss+yaaaaaaaaaaaaaaaaaaaaaaaaaaaaaaaaaaaaaaaaaaaaaaaay.ssssssssssssssssssssssssssssssssssssss",
"sssssssssssssssssssssssssssssssssssss 6aaaaaaaaaaaaaaaaaaaaaaaaaaaaaaaaaaaaaaaaaaaaaaaaaa7 sssssssssssssssssssssssssssssssssssss",
"ssssssssssssssssssssssssssssssssssss ;aaaaaaaaaaaaaaaaaaaaaaaaaaaaaaaaaaaaaaaaaaaaaaaaaaaa&sssssssssssssssssssssssssssssssssssss",
"ssssssssssssssssssssssssssssssssssss+yaaaaaaaaaaaaaaaaaaaaaaaaaaaaaaaaaaaaaaaaaaaaaaaaaaaai.ssssssssssssssssssssssssssssssssssss",
"sssssssssssssssssssssssssssssssssss 1aaaaaaaaaaaaaaaaaaaaaaaaaaaaaaaaaaaaaaaaaaaaaaaaaaaaaa< sssssssssssssssssssssssssssssssssss",
"sssssssssssssssssssssssssssssssssss+aaaaaaaaaaaaaaaaaaaaaaaaaaaaaaaaaaaaaaaaaaaaaaaaaaaaaaai.sssssssssssssssssssssssssssssssssss",
"ssssssssssssssssssssssssssssssssss 6aaaaaaaaaaaaaaaaaaaaaaaaaaaaaaaaaaaaaaaaaaaaaaaaaaaaaaaa< ssssssssssssssssssssssssssssssssss",
"ssssssssssssssssssssssssssssssssss+aaaaaaaaaaaaaaaaaaaaaaaaaaaaaaaaaaaaaaaaaaaaaaaaaaaaaaaaai.ssssssssssssssssssssssssssssssssss",
"sssssssssssssssssssssssssssssssss 1aaaaaaaaaaaaaaaaaaaaaaaaaaaaaaaaaaaaaaaaaaaaaaaaaaaaaaaaaa< sssssssssssssssssssssssssssssssss",
"sssssssssssssssssssssssssssssssss yaaaaaaaaaaaaaaaaaaaaaaaaaaaaaaaaaaaaaaaaaaaaaaaaaaaaaaaaaai sssssssssssssssssssssssssssssssss",
"sssssssssssssssssssssssssssssssss*aaaaaaaaaaaaaaaaaaaaaaaaaaaaaaaaaaaaaaaaaaaaaaaaaaaaaaaaaaaa%sssssssssssssssssssssssssssssssss",
"ssssssssssssssssssssssssssssssss 6aaaaaaaaaaaaaaaaaaaaaaaaaaaaaaaaaaaaaaaaaaaaaaaaaaaaaaaaaaaa6 ssssssssssssssssssssssssssssssss",
"ssssssssssssssssssssssssssssssss paaaaaaaaaaaaaaaaaaaaaaaaaaaaaaaaaaaaaaaaaaaaaaaaaaaaaaaaaaaai.ssssssssssssssssssssssssssssssss",
"ssssssssssssssssssssssssssssssss%aaaaaaaaaaaaaaaaaaaaaaaaaaaaaaaaaaaaaaaaaaaaaaaaaaaaaaaaaaaaaa%ssssssssssssssssssssssssssssssss",
"sssssssssssssssssssssssssssssss 4aaaaaaaaaaaaaaaaaaaaaaaaaaaaaaaaaaaaaaaaaaaaaaaaaaaaaaaaaaaaaa2 sssssssssssssssssssssssssssssss",
"sssssssssssssssssssssssssssssss waaaaaaaaaaaaaaaaaaaaaaaaaaaaaaaaaaaaaaaaaaaaaaaaaaaaaaaaaaaaaa9 sssssssssssssssssssssssssssssss",
"sssssssssssssssssssssssssssssss aaaaaaaaaaaaaaaaaaaaaaaaaaaaaaaaaaaaaaaaaaaaaaaaaaaaaaaaaaaaaaaa.sssssssssssssssssssssssssssssss",
"sssssssssssssssssssssssssssssss%aaaaaaaaaaaaaaaaaaaaaaaaaaaaaaaaaaaaaaaaaaaaaaaaaaaaaaaaaaaaaaaa#sssssssssssssssssssssssssssssss",
"sssssssssssssssssssssssssssssss,aaaaaaaaaaaaaaaaaaaaaaaaaaaaaaaaaaaaaaaaaaaaaaaaaaaaaaaaaaaaaaaa=sssssssssssssssssssssssssssssss",
"ssssssssssssssssssssssssssssss 4aaaaaaaaaaaaaaaaaaaaaaaaaaaaaaaaaaaaaaaaaaaaaaaaaaaaaaaaaaaaaaaa2 ssssssssssssssssssssssssssssss",
"ssssssssssssssssssssssssssssss 0aaaaaaaaaaaaaaaaaaaaaaaaaaaaaaaaaaaaaaaaaaaaaaaaaaaaaaaaaaaaaaaa6 ssssssssssssssssssssssssssssss",
"ssssssssssssssssssssssssssssss waaaaaaaaaaaaaaaaaaaaaaaaaaaaaaaaaaaaaaaaaaaaaaaaaaaaaaaaaaaaaaaaq ssssssssssssssssssssssssssssss",
"ssssssssssssssssssssssssssssss taaaaaaaaaaaaaaaaaaaaaaaaaaaaaaaaaaaaaaaaaaaaaaaaaaaaaaaaaaaaaaaat ssssssssssssssssssssssssssssss",
"ssssssssssssssssssssssssssssss paaaaaaaaaaaaaaaaaaaaaaaaaaaaaaaaaaaaaaaaaaaaaaaaaaaaaaaaaaaaaaaai ssssssssssssssssssssssssssssss",
"ssssssssssssssssssssssssssssss aaaaaaaaaaaaaaaaaaaaaaaaaaaaaaaaaaaaaaaaaaaaaaaaaaaaaaaaaaaaaaaaaa ssssssssssssssssssssssssssssss",
"ssssssssssssssssssssssssssssss aaaaaaaaaaaaaaaaaaaaaaaaaaaaaaaaaaaaaaaaaaaaaaaaaaaaaaaaaaaaaaaaaa ssssssssssssssssssssssssssssss",
"ssssssssssssssssssssssssssssss aaaaaaaaaaaaaaaaaaaaaaaaaaaaaaaaaaaaaaaaaaaaaaaaaaaaaaaaaaaaaaaaaa ssssssssssssssssssssssssssssss",
"ssssssssssssssssssssssssssssss aaaaaaaaaaaaaaaaaaaaaaaaaaaaaaaaaaaaaaaaaaaaaaaaaaaaaaaaaaaaaaaaaa ssssssssssssssssssssssssssssss",
"ssssssssssssssssssssssssssssss paaaaaaaaaaaaaaaaaaaaaaaaaaaaaaaaaaaaaaaaaaaaaaaaaaaaaaaaaaaaaaaai ssssssssssssssssssssssssssssss",
"ssssssssssssssssssssssssssssss taaaaaaaaaaaaaaaaaaaaaaaaaaaaaaaaaaaaaaaaaaaaaaaaaaaaaaaaaaaaaaaat ssssssssssssssssssssssssssssss",
"ssssssssssssssssssssssssssssss raaaaaaaaaaaaaaaaaaaaaaaaaaaaaaaaaaaaaaaaaaaaaaaaaaaaaaaaaaaaaaaa9 ssssssssssssssssssssssssssssss",
"ssssssssssssssssssssssssssssss 6aaaaaaaaaaaaaaaaaaaaaaaaaaaaaaaaaaaaaaaaaaaaaaaaaaaaaaaaaaaaaaaa7 ssssssssssssssssssssssssssssss",
"ssssssssssssssssssssssssssssss 4aaaaaaaaaaaaaaaaaaaaaaaaaaaaaaaaaaaaaaaaaaaaaaaaaaaaaaaaaaaaaaaa2 ssssssssssssssssssssssssssssss",
"sssssssssssssssssssssssssssssss=aaaaaaaaaaaaaaaaaaaaaaaaaaaaaaaaaaaaaaaaaaaaaaaaaaaaaaaaaaaaaaaa>sssssssssssssssssssssssssssssss",
"sssssssssssssssssssssssssssssss$aaaaaaaaaaaaaaaaaaaaaaaaaaaaaaaaaaaaaaaaaaaaaaaaaaaaaaaaaaaaaaaa%sssssssssssssssssssssssssssssss",
"sssssssssssssssssssssssssssssssXaaaaaaaaaaaaaaaaaaaaaaaaaaaaaaaaaaaaaaaaaaaaaaaaaaaaaaaaaaaaaaaa sssssssssssssssssssssssssssssss",
"sssssssssssssssssssssssssssssss waaaaaaaaaaaaaaaaaaaaaaaaaaaaaaaaaaaaaaaaaaaaaaaaaaaaaaaaaaaaaa9 sssssssssssssssssssssssssssssss",
"sssssssssssssssssssssssssssssss 4aaaaaaaaaaaaaaaaaaaaaaaaaaaaaaaaaaaaaaaaaaaaaaaaaaaaaaaaaaaaaa2 sssssssssssssssssssssssssssssss",
"ssssssssssssssssssssssssssssssss%aaaaaaaaaaaaaaaaaaaaaaaaaaaaaaaaaaaaaaaaaaaaaaaaaaaaaaaaaaaaaa%ssssssssssssssssssssssssssssssss",
"ssssssssssssssssssssssssssssssssXpaaaaaaaaaaaaaaaaaaaaaaaaaaaaaaaaaaaaaaaaaaaaaaaaaaaaaaaaaaaai ssssssssssssssssssssssssssssssss",
"ssssssssssssssssssssssssssssssss 6aaaaaaaaaaaaaaaaaaaaaaaaaaaaaaaaaaaaaaaaaaaaaaaaaaaaaaaaaaaa5 ssssssssssssssssssssssssssssssss",
"sssssssssssssssssssssssssssssssss%aaaaaaaaaaaaaaaaaaaaaaaaaaaaaaaaaaaaaaaaaaaaaaaaaaaaaaaaaaaa&sssssssssssssssssssssssssssssssss",
"sssssssssssssssssssssssssssssssss paaaaaaaaaaaaaaaaaaaaaaaaaaaaaaaaaaaaaaaaaaaaaaaaaaaaaaaaaat sssssssssssssssssssssssssssssssss",
"sssssssssssssssssssssssssssssssss 1aaaaaaaaaaaaaaaaaaaaaaaaaaaaaaaaaaaaaaaaaaaaaaaaaaaaaaaaaa< sssssssssssssssssssssssssssssssss",
"ssssssssssssssssssssssssssssssssssXpaaaaaaaaaaaaaaaaaaaaaaaaaaaaaaaaaaaaaaaaaaaaaaaaaaaaaaaaaOssssssssssssssssssssssssssssssssss",
"ssssssssssssssssssssssssssssssssss 1aaaaaaaaaaaaaaaaaaaaaaaaaaaaaaaaaaaaaaaaaaaaaaaaaaaaaaaa5 ssssssssssssssssssssssssssssssssss",
"sssssssssssssssssssssssssssssssssssXpaaaaaaaaaaaaaaaaaaaaaaaaaaaaaaaaaaaaaaaaaaaaaaaaaaaaaaaOsssssssssssssssssssssssssssssssssss",
"sssssssssssssssssssssssssssssssssss 1aaaaaaaaaaaaaaaaaaaaaaaaaaaaaaaaaaaaaaaaaaaaaaaaaaaaaa< sssssssssssssssssssssssssssssssssss",
"ssssssssssssssssssssssssssssssssssssXpaaaaaaaaaaaaaaaaaaaaaaaaaaaaaaaaaaaaaaaaaaaaaaaaaaaatOssssssssssssssssssssssssssssssssssss",
"sssssssssssssssssssssssssssssssssssss*aaaaaaaaaaaaaaaaaaaaaaaaaaaaaaaaaaaaaaaaaaaaaaaaaaaa=sssssssssssssssssssssssssssssssssssss",
"sssssssssssssssssssssssssssssssssssss 8aaaaaaaaaaaaaaaaaaaaaaaaaaaaaaaaaaaaaaaaaaaaaaaaaa5 sssssssssssssssssssssssssssssssssssss",
"ssssssssssssssssssssssssssssssssssss %XtaaaaaaaaaaaaaaaaaaaaaaaaaaaaaaaaaaaaaaaaaaaaaaaatO& ssssssssssssssssssssssssssssssssssss",
"sssssssssssssssssssssssssssssssssss ;a3$aaaaaaaaaaaaaaaaaaaaaaaaaaaaaaaaaaaaaaaaaaaaaaaa@1a; sssssssssssssssssssssssssssssssssss",
"ssssssssssssssssssssssssssssssssss ;aaa;>aaaaaaaaaaaaaaaaaaaaaaaaaaaaaaaaaaaaaaaaaaaaaa>-aaa; ssssssssssssssssssssssssssssssssss",
"sssssssssssssssssssssssssssssssss ,aaaai#1aaaaaaaaaaaaaaaaaaaaaaaaaaaaaaaaaaaaaaaaaaaa<+paaaa< sssssssssssssssssssssssssssssssss",
"ssssssssssssssssssssssssssssssss 1aaaaaay+1aaaaaaaaaaaaaaaaaaaaaaaaaaaaaaaaaaaaaaaaaa<+yaaaaaa< ssssssssssssssssssssssssssssssss",
"sssssssssssssssssssssssssssssss 1aaaaaaaay+1aaaaaaaaaaaaaaaaaaaaaaaaaaaaaaaaaaaaaaaa<+yaaaaaaaa< sssssssssssssssssssssssssssssss",
"sssssssssssssssssssssssssssssss;aaaaaaaaaay+1aaaaaaaaaaaaaaaaaaaaaaaaaaaaaaaaaaaaaa<+yaaaaaaaaaa%sssssssssssssssssssssssssssssss",
"ssssssssssssssssssssssssssssss waaaaaaaaaaay#*taaaaaaaaaaaaaaaaaaaaaaaaaaaaaaaaaau&%paaaaaaaaaaa9 ssssssssssssssssssssssssssssss",
"ssssssssssssssssssssssssssssss aaaaaaaaaaaaaa<Oraaaaaaaaaaaaaaaaaaaaaaaaaaaaaaaa9O,aaaaaaaaaaaaaa ssssssssssssssssssssssssssssss",
"ssssssssssssssssssssssssssssss paaaaaaaaaaaaaa6+>taaaaaaaaaaaaaaaaaaaaaaaaaaaau>owaaaaaaaaaaaaaaa ssssssssssssssssssssssssssssss",
"ssssssssssssssssssssssssssssss waaaaaaaaaaaaaaay;O5aaaaaaaaaaaaaaaaaaaaaaaaaa2.,paaaaaaaaaaaaaaa9 ssssssssssssssssssssssssssssss",
"sssssssssssssssssssssssssssssss%aaaaaaaaaaaaaaaaay*O5taaaaaaaaaaaaaaaaaaaau<.%waaaaaaaaaaaaaaaaa#sssssssssssssssssssssssssssssss",
"sssssssssssssssssssssssssssssss 1aaaaaaaaaaaaaaaaaae; =8uaaaaaaaaaaaaaau9=+*waaaaaaaaaaaaaaaaaa< sssssssssssssssssssssssssssssss",
"ssssssssssssssssssssssssssssssss O8uaaaaaaaaaaaaaaaaay6% %:8wtaaaatr6:%.%4paaaaaaaaaaaaaaaaau9% ssssssssssssssssssssssssssssssss",
"sssssssssssssssssssss                                                                                      sssssssssssssssssssss",
"sssssssssssssssssss o1waaaaaaaaaaaaaaaaaaaaaaaaaaaaaaaaaaaaaaaaaaaaaaaaaaaaaaaaaaaaaaaaaaaaaaaaaaaaaaaaaae;  sssssssssssssssssss",
"ssssssssssssssssss +yaaaaaaaaaaaaaaaaaaaaaaaaaaaaaaaaaaaaaaaaaaaaaaaaaaaaaaaaaaaaaaaaaaaaaaaaaaaaaaaaaaaaaay+ ssssssssssssssssss",
"ssssssssssssssssss yaaaaaaaaaaaaaaaaaaaaaaaaaaaaaaaaaaaaaaaaaaaaaaaaaaaaaaaaaaaaaaaaaaaaaaaaaaaaaaaaaaaaaaaay.ssssssssssssssssss",
"sssssssssssssssss ;aaaaaaaaaaaaaaaaaaaaaaaaaaaaaaaaaaaaaaaaaaaaaaaaaaaaaaaaaaaaaaaaaaaaaaaaaaaaaaaaaaaaaaaaaa< sssssssssssssssss",
"sssssssssssssssss raaaaaaaaaaaaaaaaaaaaaaaaaaaaaaaaaaaaaaaaaaaaaaaaaaaaaaaaaaaaaaaaaaaaaaaaaaaaaaaaaaaaaaaaaa9 sssssssssssssssss",
"sssssssssssssssss aaaaaaaaaaaaaaaaaaaaaaaaaaaaaaaaaaaaaaaaaaaaaaaaaaaaaaaaaaaaaaaaaaaaaaaaaaaaaaaaaaaaaaaaaaaa sssssssssssssssss",
"sssssssssssssssss aaaaaaaaaaaaaaaaaaaaaaaaaaaaaaaaaaaaaaaaaaaaaaaaaaaaaaaaaaaaaaaaaaaaaaaaaaaaaaaaaaaaaaaaaaaa sssssssssssssssss",
"sssssssssssssssss waaaaaaaaaaaaaaaaaaaaaaaaaaaaaaaaaaaaaaaaaaaaaaaaaaaaaaaaaaaaaaaaaaaaaaaaaaaaaaaaaaaaaaaaaaq sssssssssssssssss",
"sssssssssssssssss 1aaaaaaaaaaaaaaaaaaaaaaaaaaaaaaaaaaaaaaaaaaaaaaaaaaaaaaaaaaaaaaaaaaaaaaaaaaaaaaaaaaaaaaaaaa= sssssssssssssssss",
"ssssssssssssssssssXtaaaaaaaaaaaaaaaaaaaaaaaaaaaaaaaaaaaaaaaaaaaaaaaaaaaaaaaaaaaaaaaaaaaaaaaaaaaaaaaaaaaaaaaat ssssssssssssssssss",
"ssssssssssssssssss OtaaaaaaaaaaaaaaaaaaaaaaaaaaaaaaaaaaaaaaaaaaaaaaaaaaaaaaaaaaaaaaaaaaaaaaaaaaaaaaaaaaaaaatOsssssssssssssssssss",
"sssssssssssssssssss  =raaaaaaaaaaaaaaaaaaaaaaaaaaaaaaaaaaaaaaaaaaaaaaaaaaaaaaaaaaaaaaaaaaaaaaaaaaaaaaaaaa9<. sssssssssssssssssss",
"sssssssssssssssssssss                                                                                      sssssssssssssssssssss",
"ssssssssssssssssssssssssssssssssssssssssssssssssssssssssssssssssssssssssssssssssssssssssssssssssssssssssssssssssssssssssssssssss",
"ssssssssssssssssssssssssssssssssssssssssssssssssssssssssssssssssssssssssssssssssssssssssssssssssssssssssssssssssssssssssssssssss",
"ssssssssssssssssssssssssssssssssssssssssssssssssssssssssssssssssssssssssssssssssssssssssssssssssssssssssssssssssssssssssssssssss",
"ssssssssssssssssssssssssssssssssssssssssssssssssssssssssssssssssssssssssssssssssssssssssssssssssssssssssssssssssssssssssssssssss",
"ssssssssssssssssssssssssssssssssssssssssssssssssssssssssssssssssssssssssssssssssssssssssssssssssssssssssssssssssssssssssssssssss",
"ssssssssssssssssssssssssssssssssssssssssssssssssssssssssssssssssssssssssssssssssssssssssssssssssssssssssssssssssssssssssssssssss",
"ssssssssssssssssssssssssssssssssssssssssssssssssssssssssssssssssssssssssssssssssssssssssssssssssssssssssssssssssssssssssssssssss",
"ssssssssssssssssssssssssssssssssssssssssssssssssssssssssssssssssssssssssssssssssssssssssssssssssssssssssssssssssssssssssssssssss",
"ssssssssssssssssssssssssssssssssssssssssssssssssssssssssssssssssssssssssssssssssssssssssssssssssssssssssssssssssssssssssssssssss",
"ssssssssssssssssssssssssssssssssssssssssssssssssssssssssssssssssssssssssssssssssssssssssssssssssssssssssssssssssssssssssssssssss",
"ssssssssssssssssssssssssssssssssssssssssssssssssssssssssssssssssssssssssssssssssssssssssssssssssssssssssssssssssssssssssssssssss"
};
