/* XPM */
static char *result[] = {
/* columns rows colors chars-per-pixel */
"128 128 40 1 ",
"  c black",
". c #030100",
"X c #030200",
"o c #040201",
"O c #060300",
"+ c #070401",
"@ c #090500",
"# c #0A0501",
"$ c #0A0601",
"% c #0D0701",
"& c #100801",
"* c #100901",
"= c #130A01",
"- c #140B02",
"; c #160C01",
": c #170C02",
"> c #170D02",
", c #1A0E02",
"< c #1B0E03",
"1 c #1E0F03",
"2 c #1D1002",
"3 c #1E1003",
"4 c #211103",
"5 c #211203",
"6 c #241303",
"7 c #241403",
"8 c #271503",
"9 c #251404",
"0 c #2A1603",
"q c #281504",
"w c #2B1604",
"e c #2B1704",
"r c #2C1705",
"t c #2E1804",
"y c #2F1905",
"u c #311A04",
"i c #321A05",
"p c #321B05",
"a c #351C05",
"s c None",
/* pixels */
"ssssssssssssssssssssssssssssssssssssssssssssssssssssssssssssssssssssssssssssssssssssssssssssssssssssssssssssssssssssssssssssssss",
"ssssssssssssssssssssssssssssssssssssssssssssssssssssssssssssssssssssssssssssssssssssssssssssssssssssssssssssssssssssssssssssssss",
"ssssssssssssssssssssssssssssssssssssssssssssssssssssssssssssssssssssssssssssssssssssssssssssssssssssssssssssssssssssssssssssssss",
"ssssssssssssssssssssssssssssssssssssssssssssssssssssssssssssssssssssssssssssssssssssssssssssssssssssssssssssssssssssssssssssssss",
"ssssssssssssssssssssssssssssssssssssssssssssssssssssssssssssssssssssssssssssssssssssssssssssssssssssssssssssssssssssssssssssssss",
"ssssssssssssssssssssssssssssssssssssssssssssssssssssssssssssssssssssssssssssssssssssssssssssssssssssssssssssssssssssssssssssssss",
"ssssssssssssssssssssssssssssssssssssssssssssssssssssssssssssssssssssssssssssssssssssssssssssssssssssssssssssssssssssssssssssssss",
"ssssssssssssssssssssssssssssssssssssssssssssssssssssssssssssssssssssssssssssssssssssssssssssssssssssssssssssssssssssssssssssssss",
"ssssssssssssssssssssssssssssssssssssssssssssssssssssssssssssssssssssssssssssssssssssssssssssssssssssssssssssssssssssssssssssssss",
"ssssssssssssssssssssssssssssssssssssssssssssssssssssssssssssssssssssssssssssssssssssssssssssssssssssssssssssssssssssssssssssssss",
"ssssssssssssssssssssssssssssssssssssssssssssssssssssssssssssssssssssssssssssssssssssssssssssssssssssssssssssssssssssssssssssssss",
"ssssssssssssssssssssssssssssssssssssssssssssssssssssssssssss        ssssssssssssssssssssssssssssssssssssssssssssssssssssssssssss",
"ssssssssssssssssssssssssssssssssssssssssssssssssssssssss  +>5tpaapw6>+ sssssssssssssssssssssssssssssssssssssssssssssssssssssssss",
"ssssssssssssssssssssssssssssssssssssssssssssssssssssss  -qaaaaaaaaaaaaw-  ssssssssssssssssssssssssssssssssssssssssssssssssssssss",
"sssssssssssssssssssssssssssssssssssssssssssssssssssss %yaaaaaaaaaaaaaaaay- sssssssssssssssssssssssssssssssssssssssssssssssssssss",
"sssssssssssssssssssssssssssssssssssssssssssssssssssso3aaaaaaaaaaaaaaaaaaaa2.ssssssssssssssssssssssssssssssssssssssssssssssssssss",
"sssssssssssssssssssssssssssssssssssssssssssssssssss+raaaaaaaaaaaaaaaaaaaaaay+sssssssssssssssssssssssssssssssssssssssssssssssssss",
"ssssssssssssssssssssssssssssssssssssssssssssssssss+yaaaaaaaaaaaaaaaaaaaaaaaay+ssssssssssssssssssssssssssssssssssssssssssssssssss",
"sssssssssssssssssssssssssssssssssssssssssssssssssoyaaaaaaaaaaaaaaaaaaaaaaaaaaw.sssssssssssssssssssssssssssssssssssssssssssssssss",
"ssssssssssssssssssssssssssssssssssssssssssssssss 3aaaaaaaaaaaaaaaaaaaaaaaaaaaa2 ssssssssssssssssssssssssssssssssssssssssssssssss",
"sssssssssssssssssssssssssssssssssssssssssssssss -aaaaaaaaaaaaaaaaaaaaaaaaaaaaaa%ssssssssssssssssssssssssssssssssssssssssssssssss",
"sssssssssssssssssssssssssssssssssssssssssssssss yaaaaaaaaaaaaaaaaaaaaaaaaaaaaaay sssssssssssssssssssssssssssssssssssssssssssssss",
"sssssssssssssssssssssssssssssssssssssssssssssss-aaaaaaaaaaaaaaaaaaaaaaaaaaaaaaaa-sssssssssssssssssssssssssssssssssssssssssssssss",
"ssssssssssssssssssssssssssssssssssssssssssssss eaaaaaaaaaaaaaaaaaaaaaaaaaaaaaaaa8 ssssssssssssssssssssssssssssssssssssssssssssss",
"ssssssssssssssssssssssssssssssssssssssssssssss+aaaaaaaaaaaaaaaaaaaaaaaaaaaaaaaaaa+ssssssssssssssssssssssssssssssssssssssssssssss",
"ssssssssssssssssssssssssssssssssssssssssssssss>aaaaaaaaaaaaaaaaaaaaaaaaaaaaaaaaaa:ssssssssssssssssssssssssssssssssssssssssssssss",
"sssssssssssssssssssssssssssssssssssssssssssss 9aaaaaaaaaaaaaaaaaaaaaaaaaaaaaaaaaa5 sssssssssssssssssssssssssssssssssssssssssssss",
"sssssssssssssssssssssssssssssssssssssssssssss eaaaaaaaaaaaaaaaaaaaaaaaaaaaaaaaaaat sssssssssssssssssssssssssssssssssssssssssssss",
"sssssssssssssssssssssssssssssssssssssssssssss paaaaaaaaaaaaaaaaaaaaaaaaaaaaaaaaaai sssssssssssssssssssssssssssssssssssssssssssss",
"sssssssssssssssssssssssssssssssssssssssssssss aaaaaaaaaaaaaaaaaaaaaaaaaaaaaaaaaaaa sssssssssssssssssssssssssssssssssssssssssssss",
"sssssssssssssssssssssssssssssssssssssssssssss aaaaaaaaaaaaaaaaaaaaaaaaaaaaaaaaaaaa sssssssssssssssssssssssssssssssssssssssssssss",
"sssssssssssssssssssssssssssssssssssssssssssss paaaaaaaaaaaaaaaaaaaaaaaaaaaaaaaaaai sssssssssssssssssssssssssssssssssssssssssssss",
"sssssssssssssssssssssssssssssssssssssssssssss taaaaaaaaaaaaaaaaaaaaaaaaaaaaaaaaaa0 sssssssssssssssssssssssssssssssssssssssssssss",
"sssssssssssssssssssssssssssssssssssssssssssss 5aaaaaaaaaaaaaaaaaaaaaaaaaaaaaaaaaa6 sssssssssssssssssssssssssssssssssssssssssssss",
"ssssssssssssssssssssssssssssssssssssssssssssss>aaaaaaaaaaaaaaaaaaaaaaaaaaaaaaaaaa:ssssssssssssssssssssssssssssssssssssssssssssss",
"ssssssssssssssssssssssssssssssssssssssssssssss+aaaaaaaaaaaaaaaaaaaaaaaaaaaaaaaaaaOssssssssssssssssssssssssssssssssssssssssssssss",
"ssssssssssssssssssssssssssssssssssssssssssssss qaaaaaaaaaaaaaaaaaaaaaaaaaaaaaaaa0 ssssssssssssssssssssssssssssssssssssssssssssss",
"sssssssssssssssssssssssssssssssssssssssssssssss=aaaaaaaaaaaaaaaaaaaaaaaaaaaaaaaa=sssssssssssssssssssssssssssssssssssssssssssssss",
"sssssssssssssssssssssssssssssssssssssssssssssss taaaaaaaaaaaaaaaaaaaaaaaaaaaaaat sssssssssssssssssssssssssssssssssssssssssssssss",
"ssssssssssssssssssssssssssssssssssssssssssssssss%aaaaaaaaaaaaaaaaaaaaaaaaaaaaaa=ssssssssssssssssssssssssssssssssssssssssssssssss",
"ssssssssssssssssssssssssssssssssssssssssssssssss 3aaaaaaaaaaaaaaaaaaaaaaaaaaaa1 ssssssssssssssssssssssssssssssssssssssssssssssss",
"sssssssssssssssssssssssssssssssssssssssssssssssssXeaaaaaaaaaaaaaaaaaaaaaaaaaat.sssssssssssssssssssssssssssssssssssssssssssssssss",
"ssssssssssssssssssssssssssssssssssssssssssssssssssOtaaaaaaaaaaaaaaaaaaaaaaaatOssssssssssssssssssssssssssssssssssssssssssssssssss",
"sssssssssssssssssssssssssssssssssssssssssssssssssssOtaaaaaaaaaaaaaaaaaaaaaawOsssssssssssssssssssssssssssssssssssssssssssssssssss",
"ssssssssssssssssssssssssssssssssssssssssssssssssssssX3aaaaaaaaaaaaaaaaaaaa1.ssssssssssssssssssssssssssssssssssssssssssssssssssss",
"sssssssssssssssssssssssssssssssssssss                 =taaaaaaaaaaaaaaaat%                 sssssssssssssssssssssssssssssssssssss",
"sssssssssssssssssssssssssssssssssss o<qaaaaaaaaaaaaaaa,+=eaaaaaaaaaaaa8=o<aaaaaaaaaaaaaaaw-  sssssssssssssssssssssssssssssssssss",
"ssssssssssssssssssssssssssssssssss +yaaaaaaaaaaaaaaaaaay5+O;7euaaut5;++<paaaaaaaaaaaaaaaaaay+ ssssssssssssssssssssssssssssssssss",
"ssssssssssssssssssssssssssssssssss yaaaaaaaaaaaaaaaaaaaaaaw3&#o  o+&3qaaaaaaaaaaaaaaaaaaaaaay.ssssssssssssssssssssssssssssssssss",
"sssssssssssssssssssssssssssssssss -aaaaaaaaaaaaaaaaaaaaaaaaaaaaaaaaaaaaaaaaaaaaaaaaaaaaaaaaaa, sssssssssssssssssssssssssssssssss",
"sssssssssssssssssssssssssssssssss eaaaaaaaaaaaaaaaaaaaaaaaaaaaaaaaaaaaaaaaaaaaaaaaaaaaaaaaaaa8 sssssssssssssssssssssssssssssssss",
"sssssssssssssssssssssssssssssssss aaaaaaaaaaaaaaaaaaaaaaaaaaaaaaaaaaaaaaaaaaaaaaaaaaaaaaaaaaaa sssssssssssssssssssssssssssssssss",
"sssssssssssssssssssssssssssssssss aaaaaaaaaaaaaaaaaaaaaaaaaaaaaaaaaaaaaaaaaaaaaaaaaaaaaaaaaaaa sssssssssssssssssssssssssssssssss",
"sssssssssssssssssssssssssssssssss qaaaaaaaaaaaaaaaaaaaaaaaaaaaaaaaaaaaaaaaaaaaaaaaaaaaaaaaaaa0 sssssssssssssssssssssssssssssssss",
"sssssssssssssssssssssssssssssssss <aaaaaaaaaaaaaaaaaaaaaaaaaaaaaaaaaaaaaaaaaaaaaaaaaaaaaaaaaa= sssssssssssssssssssssssssssssssss",
"ssssssssssssssssssssssssssssssssssXtaaaaaaaaaaaaaaaaaaaaaaaaaaaaaaaaaaaaaaaaaaaaaaaaaaaaaaaat ssssssssssssssssssssssssssssssssss",
"ssssssssssssssssssssssssssssssssss OtaaaaaaaaaaaaaaaaaaaaaaaaaaaaaaaaaaaaaaaaaaaaaaaaaaaaaatOsssssssssssssssssssssssssssssssssss",
"sssssssssssssssssssssssssssssssssss  =eaaaaaaaaaaaaaaaaaaaaaaaaaaaaaaaaaaaaaaaaaaaaaaaaaa8,. sssssssssssssssssssssssssssssssssss",
"sssssssssssssssssssssssssssssssssssss                                                      sssssssssssssssssssssssssssssssssssss",
"ssssssssssssssssssssssssssssssssssssssssssssssssssssss%aaaaaaaaaaaaaaaaaa%ssssssssssssssssssssssssssssssssssssssssssssssssssssss",
"sssssssssssssssssssssssssssssssssssssssssssssssssssss 5aaaaaaaaaaaaaaaaaa1 sssssssssssssssssssssssssssssssssssssssssssssssssssss",
"sssssssssssssssssssssssssssssssssssssssssssssssssssss yaaaaaaaaaaaaaaaaaai sssssssssssssssssssssssssssssssssssssssssssssssssssss",
"sssssssssssssssssssssssssssssssssssssssssssssssssssss*aaaaaaaaaaaaaaaaaaaa%sssssssssssssssssssssssssssssssssssssssssssssssssssss",
"ssssssssssssssssssssssssssssssssssssssssssssssssssss 5aaaaaaaaaaaaaaaaaaaa5 ssssssssssssssssssssssssssssssssssssssssssssssssssss",
"ssssssssssssssssssssssssssssssssssssssssssssssssssssXpaaaaaaaaaaaaaaaaaaaai.ssssssssssssssssssssssssssssssssssssssssssssssssssss",
"ssssssssssssssssssssssssssssssssssssssssssssssssssss-aaaaaaaaaaaaaaaaaaaaaa=ssssssssssssssssssssssssssssssssssssssssssssssssssss",
"sssssssssssssssssssssssssssssssssssssssssssssssssss 9aaaaaaaaaaaaaaaaaaaaaa8 sssssssssssssssssssssssssssssssssssssssssssssssssss",
"sssssssssssssssssssssssssssssssssssssssssssssssssss+aaaaaaaaaaaaaaaaaaaaaaaa.sssssssssssssssssssssssssssssssssssssssssssssssssss",
"sssssssssssssssssssssssssssssssssssssssssssssssssss-aaaaaaaaaaaaaaaaaaaaaaaa:sssssssssssssssssssssssssssssssssssssssssssssssssss",
"ssssssssssssssssssssssssssssssssssssssssssssssssss qaaaaaaaaaaaaaaaaaaaaaaaa8 ssssssssssssssssssssssssssssssssssssssssssssssssss",
"ssssssssssssssssssssssssssssssssssssssssssssssssss+aaaaaaaaaaaaaaaaaaaaaaaaaa.ssssssssssssssssssssssssssssssssssssssssssssssssss",
"sssssssssssssssssssssssssssssssssssssssssssssssss -aaaaaaaaaaaaaaaaaaaaaaaaaa:ssssssssssssssssssssssssssssssssssssssssssssssssss",
"sssssssssssssssssssssssssssssssssssssssssssssssss eaaaaaaaaaaaaaaaaaaaaaaaaaa8 sssssssssssssssssssssssssssssssssssssssssssssssss",
"sssssssssssssssssssssssssssssssssssssssssssssssss+aaaaaaaaaaaaaaaaaaaaaaaaaaaa+sssssssssssssssssssssssssssssssssssssssssssssssss",
"ssssssssssssssssssssssssssssssssssssssssssssssss >aaaaaaaaaaaaaaaaaaaaaaaaaaaa, ssssssssssssssssssssssssssssssssssssssssssssssss",
"ssssssssssssssssssssssssssssssssssssssssssssssss yaaaaaaaaaaaaaaaaaaaaaaaaaaaat ssssssssssssssssssssssssssssssssssssssssssssssss",
"ssssssssssssssssssssssssssssssssssssssssssssssss$aaaaaaaaaaaaaaaaaaaaaaaaaaaaaa%ssssssssssssssssssssssssssssssssssssssssssssssss",
"sssssssssssssssssssssssssssssssssssssssssssssss 5aaaaaaaaaaaaaaaaaaaaaaaaaaaaaa, sssssssssssssssssssssssssssssssssssssssssssssss",
"sssssssssssssssssssssssssssssssssssssssssssssss yaaaaaaaaaaaaaaaaaaaaaaaaaaaaaai sssssssssssssssssssssssssssssssssssssssssssssss",
"sssssssssssssssssssssssssssssssssssssssssssssss%aaaaaaaaaaaaaaaaaaaaaaaaaaaaaaaa%sssssssssssssssssssssssssssssssssssssssssssssss",
"ssssssssssssssssssssssssssssssssssssssssssssss 5aaaaaaaaaaaaaaaaaaaaaaaaaaaaaaaa1 ssssssssssssssssssssssssssssssssssssssssssssss",
"ssssssssssssssssssssssssssssssssssssssssssssss+yaaaaaaaaaaaaaaaaaaaaaaaaaaaaaaaai.ssssssssssssssssssssssssssssssssssssssssssssss",
"sssssssssssssssssssssssssssssssssssssssssssss 5aaaaaaaaaaaaaaaaaaaaaaaaaaaaaaaaaa4 sssssssssssssssssssssssssssssssssssssssssssss",
"ssssssssssssssssssssssssssssssssssssssssssss <aaaaaaaaaaaaaaaaaaaaaaaaaaaaaaaaaaaa, ssssssssssssssssssssssssssssssssssssssssssss",
"sssssssssssssssssssssssssssssssssssssssssss <aaaaaaaaaaaaaaaaaaaaaaaaaaaaaaaaaaaaaa, sssssssssssssssssssssssssssssssssssssssssss",
"ssssssssssssssssssssssssssssssssssssssssss <aaaaaaaaaaaaaaaaaaaaaaaaaaaaaaaaaaaaaaaa, ssssssssssssssssssssssssssssssssssssssssss",
"sssssssssssssssssssssssssssssssssssssssss <aaaaaaaaaaaaaaaaaaaaaaaaaaaaaaaaaaaaaaaaaa, sssssssssssssssssssssssssssssssssssssssss",
"ssssssssssssssssssssssssssssssssssssssss <aaaaaaaaaaaaaaaaaaaaaaaaaaaaaaaaaaaaaaaaaaaa, ssssssssssssssssssssssssssssssssssssssss",
"sssssssssssssssssssssssssssssssssssssss <aaaaaaaaaaaaaaaaaaaaaaaaaaaaaaaaaaaaaaaaaaaaaa, sssssssssssssssssssssssssssssssssssssss",
"ssssssssssssssssssssssssssssssssssssss <aaaaaaaaaaaaaaaaaaaaaaaaaaaaaaaaaaaaaaaaaaaaaaaa, ssssssssssssssssssssssssssssssssssssss",
"sssssssssssssssssssssssssssssssssssss <aaaaaaaaaaaaaaaaaaaaaaaaaaaaaaaaaaaaaaaaaaaaaaaaaa, sssssssssssssssssssssssssssssssssssss",
"ssssssssssssssssssssssssssssssssssss <aaaaaaaaaaaaaaaaaaaaaaaaaaaaaaaaaaaaaaaaaaaaaaaaaaaa: ssssssssssssssssssssssssssssssssssss",
"sssssssssssssssssssssssssssssssssss -aaaaaaaaaaaaaaaaaaaaaaaaaaaaaaaaaaaaaaaaaaaaaaaaaaaaaa- sssssssssssssssssssssssssssssssssss",
"ssssssssssssssssssssssssssssssssss -aaaaaaaaaaaaaaaaaaaaaaaaaaaaaaaaaaaaaaaaaaaaaaaaaaaaaaaa- ssssssssssssssssssssssssssssssssss",
"sssssssssssssssssssssssssssssssss -aaaaaaaaaaaaaaaaaaaaaaaaaaaaaaaaaaaaaaaaaaaaaaaaaaaaaaaaaa- sssssssssssssssssssssssssssssssss",
"sssssssssssssssssssssssssssssssss+paaaaaaaaaaaaaaaaaaaaaaaaaaaaaaaaaaaaaaaaaaaaaaaaaaaaaaaaaai.sssssssssssssssssssssssssssssssss",
"ssssssssssssssssssssssssssssssss 3aaaaaaaaaaaaaaaaaaaaaaaaaaaaaaaaaaaaaaaaaaaaaaaaaaaaaaaaaaaa, ssssssssssssssssssssssssssssssss",
"ssssssssssssssssssssssssssssssss qaaaaaaaaaaaaaaaaaaaaaaaaaaaaaaaaaaaaaaaaaaaaaaaaaaaaaaaaaaaa6 ssssssssssssssssssssssssssssssss",
"ssssssssssssssssssssssssssssssss 9aaaaaaaaaaaaaaaaaaaaaaaaaaaaaaaaaaaaaaaaaaaaaaaaaaaaaaaaaaaa8 ssssssssssssssssssssssssssssssss",
"ssssssssssssssssssssssssssssssss <aaaaaaaaaaaaaaaaaaaaaaaaaaaaaaaaaaaaaaaaaaaaaaaaaaaaaaaaaaaa1 ssssssssssssssssssssssssssssssss",
"sssssssssssssssssssssssssssssssssXpaaaaaaaaaaaaaaaaaaaaaaaaaaaaaaaaaaaaaaaaaaaaaaaaaaaaaaaaaauOsssssssssssssssssssssssssssssssss",
"sssssssssssssssssssssssssssssssss -aaaaaaaaaaaaaaaaaaaaaaaaaaaaaaaaaaaaaaaaaaaaaaaaaaaaaaaaaa- sssssssssssssssssssssssssssssssss",
"ssssssssssssssssssssssssssssssssss O7uaaaaaaaaaaaaaaaaaaaaaaaaaaaaaaaaaaaaaaaaaaaaaaaaaaaau8@ ssssssssssssssssssssssssssssssssss",
"sssssssssssssssssssss                                                                                      sssssssssssssssssssss",
"sssssssssssssssssss o<qaaaaaaaaaaaaaaaaaaaaaaaaaaaaaaaaaaaaaaaaaaaaaaaaaaaaaaaaaaaaaaaaaaaaaaaaaaaaaaaaaaw-  sssssssssssssssssss",
"ssssssssssssssssss +yaaaaaaaaaaaaaaaaaaaaaaaaaaaaaaaaaaaaaaaaaaaaaaaaaaaaaaaaaaaaaaaaaaaaaaaaaaaaaaaaaaaaaay+ ssssssssssssssssss",
"ssssssssssssssssss yaaaaaaaaaaaaaaaaaaaaaaaaaaaaaaaaaaaaaaaaaaaaaaaaaaaaaaaaaaaaaaaaaaaaaaaaaaaaaaaaaaaaaaaay.ssssssssssssssssss",
"sssssssssssssssss -aaaaaaaaaaaaaaaaaaaaaaaaaaaaaaaaaaaaaaaaaaaaaaaaaaaaaaaaaaaaaaaaaaaaaaaaaaaaaaaaaaaaaaaaaa, sssssssssssssssss",
"sssssssssssssssss eaaaaaaaaaaaaaaaaaaaaaaaaaaaaaaaaaaaaaaaaaaaaaaaaaaaaaaaaaaaaaaaaaaaaaaaaaaaaaaaaaaaaaaaaaa8 sssssssssssssssss",
"sssssssssssssssss aaaaaaaaaaaaaaaaaaaaaaaaaaaaaaaaaaaaaaaaaaaaaaaaaaaaaaaaaaaaaaaaaaaaaaaaaaaaaaaaaaaaaaaaaaaa sssssssssssssssss",
"sssssssssssssssss aaaaaaaaaaaaaaaaaaaaaaaaaaaaaaaaaaaaaaaaaaaaaaaaaaaaaaaaaaaaaaaaaaaaaaaaaaaaaaaaaaaaaaaaaaaa sssssssssssssssss",
"sssssssssssssssss qaaaaaaaaaaaaaaaaaaaaaaaaaaaaaaaaaaaaaaaaaaaaaaaaaaaaaaaaaaaaaaaaaaaaaaaaaaaaaaaaaaaaaaaaaa0 sssssssssssssssss",
"sssssssssssssssss <aaaaaaaaaaaaaaaaaaaaaaaaaaaaaaaaaaaaaaaaaaaaaaaaaaaaaaaaaaaaaaaaaaaaaaaaaaaaaaaaaaaaaaaaaa= sssssssssssssssss",
"ssssssssssssssssssXtaaaaaaaaaaaaaaaaaaaaaaaaaaaaaaaaaaaaaaaaaaaaaaaaaaaaaaaaaaaaaaaaaaaaaaaaaaaaaaaaaaaaaaaat ssssssssssssssssss",
"ssssssssssssssssss OtaaaaaaaaaaaaaaaaaaaaaaaaaaaaaaaaaaaaaaaaaaaaaaaaaaaaaaaaaaaaaaaaaaaaaaaaaaaaaaaaaaaaaatOsssssssssssssssssss",
"sssssssssssssssssss  =eaaaaaaaaaaaaaaaaaaaaaaaaaaaaaaaaaaaaaaaaaaaaaaaaaaaaaaaaaaaaaaaaaaaaaaaaaaaaaaaaaa8,. sssssssssssssssssss",
"sssssssssssssssssssss                                                                                      sssssssssssssssssssss",
"ssssssssssssssssssssssssssssssssssssssssssssssssssssssssssssssssssssssssssssssssssssssssssssssssssssssssssssssssssssssssssssssss",
"ssssssssssssssssssssssssssssssssssssssssssssssssssssssssssssssssssssssssssssssssssssssssssssssssssssssssssssssssssssssssssssssss",
"ssssssssssssssssssssssssssssssssssssssssssssssssssssssssssssssssssssssssssssssssssssssssssssssssssssssssssssssssssssssssssssssss",
"ssssssssssssssssssssssssssssssssssssssssssssssssssssssssssssssssssssssssssssssssssssssssssssssssssssssssssssssssssssssssssssssss",
"ssssssssssssssssssssssssssssssssssssssssssssssssssssssssssssssssssssssssssssssssssssssssssssssssssssssssssssssssssssssssssssssss",
"ssssssssssssssssssssssssssssssssssssssssssssssssssssssssssssssssssssssssssssssssssssssssssssssssssssssssssssssssssssssssssssssss",
"ssssssssssssssssssssssssssssssssssssssssssssssssssssssssssssssssssssssssssssssssssssssssssssssssssssssssssssssssssssssssssssssss",
"ssssssssssssssssssssssssssssssssssssssssssssssssssssssssssssssssssssssssssssssssssssssssssssssssssssssssssssssssssssssssssssssss",
"ssssssssssssssssssssssssssssssssssssssssssssssssssssssssssssssssssssssssssssssssssssssssssssssssssssssssssssssssssssssssssssssss",
"ssssssssssssssssssssssssssssssssssssssssssssssssssssssssssssssssssssssssssssssssssssssssssssssssssssssssssssssssssssssssssssssss",
"ssssssssssssssssssssssssssssssssssssssssssssssssssssssssssssssssssssssssssssssssssssssssssssssssssssssssssssssssssssssssssssssss"
};
