/* XPM */
static char *result[] = {
/* columns rows colors chars-per-pixel */
"128 128 43 1 ",
"  c black",
". c #0F0E0E",
"X c #0F0F0E",
"o c #10100F",
"O c #1E1D1C",
"+ c #1E1D1D",
"@ c #1E1E1C",
"# c #1E1E1D",
"$ c #2C2C2B",
"% c #2D2C2B",
"& c #2D2D2B",
"* c #3B3B39",
"= c #3C3B39",
"- c #4A4947",
"; c #4B4A47",
": c #595855",
"> c #5A5955",
", c #595856",
"< c #595956",
"1 c #5A5956",
"2 c #686764",
"3 c #696864",
"4 c #777672",
"5 c #787772",
"6 c #868580",
"7 c #878680",
"8 c #95938E",
"9 c #95948E",
"0 c #95948F",
"q c #A4A29D",
"w c #A4A39D",
"e c #B3B1AB",
"r c #B3B2AB",
"t c #C2C0B9",
"y c #C2C1B9",
"u c #D1CFC7",
"i c #D1CFC8",
"p c #D1D0C7",
"a c #D1D0C8",
"s c #E0DED6",
"d c #E0DFD6",
"f c #EFEDE4",
"g c None",
/* pixels */
"gggggggggggggggggggggggggggggggggggggggggggggggggggggggggggggggggggggggggggggggggggggggggggggggggggggggggggggggggggggggggggggggg",
"gggggggggggggggggggggggggggggggggggggggggggggggggggggggggggggggggggggggggggggggggggggggggggggggggggggggggggggggggggggggggggggggg",
"gggggggggggggggggggggggggggggggggggggggggggggggggggggggggggggggggggggggggggggggggggggggggggggggggggggggggggggggggggggggggggggggg",
"gggggggggggggggggggggggggggggggggggggggggggggggggggggggggggggggggggggggggggggggggggggggggggggggggggggggggggggggggggggggggggggggg",
"gggggggggggggggggggggggggggggggggggggggggggggggggggggggggggggggggggggggggggggggggggggggggggggggggggggggggggggggggggggggggggggggg",
"gggggggggggggggggggggggggggggggggggggggggggggggggggggggggggggggggggggggggggggggggggggggggggggggggggggggggggggggggggggggggggggggg",
"gggggggggggggggggggggggggggggggggggggggggggggggggggggggggggggggggggggggggggggggggggggggggggggggggggggggggggggggggggggggggggggggg",
"gggggggggggggggggggggggggggggggggggggggggggggggggggggggggggggggggggggggggggggggggggggggggggggggggggggggggggggggggggggggggggggggg",
"gggggggggggggggggggggggggggggggggggggggggggggggggggggggggggggggggggggggggggggggggggggggggggggggggggggggggggggggggggggggggggggggg",
"ggggggggggggggggggggggggggggggggggggggggggggggggggggggggggggg      ggggggggggggggggggggggggggggggggggggggggggggggggggggggggggggg",
"ggggggggggggggggggggggggggggggggggggggggggggggggggggggggggg X5affy9@ ggggggggggggggggggggggggggggggggggggggggggggggggggggggggggg",
"gggggggggggggggggggggggggggggggggggggggggggggggggggggggggg >dffffffs3 gggggggggggggggggggggggggggggggggggggggggggggggggggggggggg",
"ggggggggggggggggggggggggggggggggggggggggggggggggggggggggg 3ffffffffff> ggggggggggggggggggggggggggggggggggggggggggggggggggggggggg",
"ggggggggggggggggggggggggggggggggggggggggggggggggggggggggg#dffffffffffsXggggggggggggggggggggggggggggggggggggggggggggggggggggggggg",
"gggggggggggggggggggggggggggggggggggggggggggggggggggggggg 0ffffffffffff4 gggggggggggggggggggggggggggggggggggggggggggggggggggggggg",
"gggggggggggggggggggggggggggggggggggggggggggggggggggggggg yffffffffffffu gggggggggggggggggggggggggggggggggggggggggggggggggggggggg",
"gggggggggggggggggggggggggggggggggggggggggggggggggggggggg ffffffffffffff gggggggggggggggggggggggggggggggggggggggggggggggggggggggg",
"gggggggggggggggggggggggggggggggggggggggggggggggggggggggg ffffffffffffff gggggggggggggggggggggggggggggggggggggggggggggggggggggggg",
"gggggggggggggggggggggggggggggggggggggggggggggggggggggggg ifffffffffffft gggggggggggggggggggggggggggggggggggggggggggggggggggggggg",
"gggggggggggggggggggggggggggggggggggggggggggggggggggggggg 4ffffffffffff9 gggggggggggggggggggggggggggggggggggggggggggggggggggggggg",
"gggggggggggggggggggggggggggggggggggggggggggggggggggggggggXsffffffffffsOggggggggggggggggggggggggggggggggggggggggggggggggggggggggg",
"ggggggggggggggggggggggggggggggggggggggggggggggggggggggggg 1ffffffffff2 ggggggggggggggggggggggggggggggggggggggggggggggggggggggggg",
"gggggggggggggggggggggggggggggggggggggggggggggggggggggggggg 2sffffffs: gggggggggggggggggggggggggggggggggggggggggggggggggggggggggg",
"ggggggggggggggggggggggggggggggggggggggggggggggggggggggggggg +0tffi4. ggggggggggggggggggggggggggggggggggggggggggggggggggggggggggg",
"ggggggggggggggggggggggggggggggggggggggggggggggggggggggggggg          ggggggggggggggggggggggggggggggggggggggggggggggggggggggggggg",
"ggggggggggggggggggggggggggggggggggggggggggggggggggggggg X=39yaffffarw3=  ggggggggggggggggggggggggggggggggggggggggggggggggggggggg",
"gggggggggggggggggggggggggggggggggggggggggggggggggggg o1rdffffffffffffffdw>  gggggggggggggggggggggggggggggggggggggggggggggggggggg",
"gggggggggggggggggggggggggggggggggggggggggggggggggg X5dffffffffffffffffffffp9@ gggggggggggggggggggggggggggggggggggggggggggggggggg",
"gggggggggggggggggggggggggggggggggggggggggggggggg X7ffffffffffffffffffffffffff9@ gggggggggggggggggggggggggggggggggggggggggggggggg",
"ggggggggggggggggggggggggggggggggggggggggggggggg 3dffffffffffffffffffffffffffffp3 ggggggggggggggggggggggggggggggggggggggggggggggg",
"ggggggggggggggggggggggggggggggggggggggggggggg #rffffffffffffffffffffffffffffffffy@ ggggggggggggggggggggggggggggggggggggggggggggg",
"gggggggggggggggggggggggggggggggggggggggggggg ;dffffffffffffffffffffffffffffffffffp; gggggggggggggggggggggggggggggggggggggggggggg",
"ggggggggggggggggggggggggggggggggggggggggggg 5ffffffffffffffffffffffffffffffffffffff5 ggggggggggggggggggggggggggggggggggggggggggg",
"gggggggggggggggggggggggggggggggggggggggggg 5ffffffffffffffffffffffffffffffffffffffff5 gggggggggggggggggggggggggggggggggggggggggg",
"ggggggggggggggggggggggggggggggggggggggggg 5ffffffffffffffffffffffffffffffffffffffffff5 ggggggggggggggggggggggggggggggggggggggggg",
"gggggggggggggggggggggggggggggggggggggggg 5ffffffffffffffffffffffffffffffffffffffffffff5 gggggggggggggggggggggggggggggggggggggggg",
"ggggggggggggggggggggggggggggggggggggggg 3ffffffffffffffffffffffffffffffffffffffffffffff3 ggggggggggggggggggggggggggggggggggggggg",
"gggggggggggggggggggggggggggggggggggggg &ffffffffffffffffffffffffffffffffffffffffffffffff%ggggggggggggggggggggggggggggggggggggggg",
"gggggggggggggggggggggggggggggggggggggg#affffffffffffffffffffffffffffffffffffffffffffffffpXgggggggggggggggggggggggggggggggggggggg",
"ggggggggggggggggggggggggggggggggggggg 0ffffffffffffffffffffffffffffffffffffffffffffffffffw ggggggggggggggggggggggggggggggggggggg",
"gggggggggggggggggggggggggggggggggggg 1ffffffffffffffffffffffffffffffffffffffffffffffffffff;ggggggggggggggggggggggggggggggggggggg",
"gggggggggggggggggggggggggggggggggggg#affffffffffffffffffffffffffffffffffffffffffffffffffffsogggggggggggggggggggggggggggggggggggg",
"ggggggggggggggggggggggggggggggggggg 5ffffffffffffffffffffffffffffffffffffffffffffffffffffff4 ggggggggggggggggggggggggggggggggggg",
"ggggggggggggggggggggggggggggggggggg#fffffffffffffffffffffffffffffffffffffffffffffffffffffffsXggggggggggggggggggggggggggggggggggg",
"gggggggggggggggggggggggggggggggggg 0ffffffffffffffffffffffffffffffffffffffffffffffffffffffff4 gggggggggggggggggggggggggggggggggg",
"gggggggggggggggggggggggggggggggggg#fffffffffffffffffffffffffffffffffffffffffffffffffffffffffsXgggggggggggggggggggggggggggggggggg",
"ggggggggggggggggggggggggggggggggg 4ffffffffffffffffffffffffffffffffffffffffffffffffffffffffff4 ggggggggggggggggggggggggggggggggg",
"ggggggggggggggggggggggggggggggggg affffffffffffffffffffffffffffffffffffffffffffffffffffffffffs ggggggggggggggggggggggggggggggggg",
"ggggggggggggggggggggggggggggggggg;ffffffffffffffffffffffffffffffffffffffffffffffffffffffffffff=ggggggggggggggggggggggggggggggggg",
"gggggggggggggggggggggggggggggggg 0ffffffffffffffffffffffffffffffffffffffffffffffffffffffffffff9 gggggggggggggggggggggggggggggggg",
"gggggggggggggggggggggggggggggggg sffffffffffffffffffffffffffffffffffffffffffffffffffffffffffffsogggggggggggggggggggggggggggggggg",
"gggggggggggggggggggggggggggggggg=ffffffffffffffffffffffffffffffffffffffffffffffffffffffffffffff=gggggggggggggggggggggggggggggggg",
"ggggggggggggggggggggggggggggggg 6ffffffffffffffffffffffffffffffffffffffffffffffffffffffffffffff6 ggggggggggggggggggggggggggggggg",
"ggggggggggggggggggggggggggggggg rffffffffffffffffffffffffffffffffffffffffffffffffffffffffffffffr ggggggggggggggggggggggggggggggg",
"ggggggggggggggggggggggggggggggg ffffffffffffffffffffffffffffffffffffffffffffffffffffffffffffffffXggggggggggggggggggggggggggggggg",
"ggggggggggggggggggggggggggggggg=ffffffffffffffffffffffffffffffffffffffffffffffffffffffffffffffff%ggggggggggggggggggggggggggggggg",
"ggggggggggggggggggggggggggggggg2ffffffffffffffffffffffffffffffffffffffffffffffffffffffffffffffff:ggggggggggggggggggggggggggggggg",
"gggggggggggggggggggggggggggggg 6ffffffffffffffffffffffffffffffffffffffffffffffffffffffffffffffff6 gggggggggggggggggggggggggggggg",
"gggggggggggggggggggggggggggggg wffffffffffffffffffffffffffffffffffffffffffffffffffffffffffffffff9 gggggggggggggggggggggggggggggg",
"gggggggggggggggggggggggggggggg rfffffffffffffffffffffffffffffffffffffffffffffffffffffffffffffffft gggggggggggggggggggggggggggggg",
"gggggggggggggggggggggggggggggg iffffffffffffffffffffffffffffffffffffffffffffffffffffffffffffffffu gggggggggggggggggggggggggggggg",
"gggggggggggggggggggggggggggggg sffffffffffffffffffffffffffffffffffffffffffffffffffffffffffffffffs gggggggggggggggggggggggggggggg",
"gggggggggggggggggggggggggggggg ffffffffffffffffffffffffffffffffffffffffffffffffffffffffffffffffff gggggggggggggggggggggggggggggg",
"gggggggggggggggggggggggggggggg ffffffffffffffffffffffffffffffffffffffffffffffffffffffffffffffffff gggggggggggggggggggggggggggggg",
"gggggggggggggggggggggggggggggg ffffffffffffffffffffffffffffffffffffffffffffffffffffffffffffffffff gggggggggggggggggggggggggggggg",
"gggggggggggggggggggggggggggggg ffffffffffffffffffffffffffffffffffffffffffffffffffffffffffffffffff gggggggggggggggggggggggggggggg",
"gggggggggggggggggggggggggggggg sffffffffffffffffffffffffffffffffffffffffffffffffffffffffffffffffs gggggggggggggggggggggggggggggg",
"gggggggggggggggggggggggggggggg iffffffffffffffffffffffffffffffffffffffffffffffffffffffffffffffffu gggggggggggggggggggggggggggggg",
"gggggggggggggggggggggggggggggg yffffffffffffffffffffffffffffffffffffffffffffffffffffffffffffffffe gggggggggggggggggggggggggggggg",
"gggggggggggggggggggggggggggggg 0ffffffffffffffffffffffffffffffffffffffffffffffffffffffffffffffffw gggggggggggggggggggggggggggggg",
"gggggggggggggggggggggggggggggg 6ffffffffffffffffffffffffffffffffffffffffffffffffffffffffffffffff6 gggggggggggggggggggggggggggggg",
"ggggggggggggggggggggggggggggggg<ffffffffffffffffffffffffffffffffffffffffffffffffffffffffffffffff2ggggggggggggggggggggggggggggggg",
"ggggggggggggggggggggggggggggggg&ffffffffffffffffffffffffffffffffffffffffffffffffffffffffffffffff*ggggggggggggggggggggggggggggggg",
"gggggggggggggggggggggggggggggggXffffffffffffffffffffffffffffffffffffffffffffffffffffffffffffffff ggggggggggggggggggggggggggggggg",
"ggggggggggggggggggggggggggggggg rffffffffffffffffffffffffffffffffffffffffffffffffffffffffffffffe ggggggggggggggggggggggggggggggg",
"ggggggggggggggggggggggggggggggg 6ffffffffffffffffffffffffffffffffffffffffffffffffffffffffffffff6 ggggggggggggggggggggggggggggggg",
"gggggggggggggggggggggggggggggggg=ffffffffffffffffffffffffffffffffffffffffffffffffffffffffffffff*gggggggggggggggggggggggggggggggg",
"ggggggggggggggggggggggggggggggggosffffffffffffffffffffffffffffffffffffffffffffffffffffffffffffs gggggggggggggggggggggggggggggggg",
"gggggggggggggggggggggggggggggggg 0ffffffffffffffffffffffffffffffffffffffffffffffffffffffffffff9 gggggggggggggggggggggggggggggggg",
"ggggggggggggggggggggggggggggggggg=ffffffffffffffffffffffffffffffffffffffffffffffffffffffffffff-ggggggggggggggggggggggggggggggggg",
"ggggggggggggggggggggggggggggggggg sffffffffffffffffffffffffffffffffffffffffffffffffffffffffffu ggggggggggggggggggggggggggggggggg",
"ggggggggggggggggggggggggggggggggg 4ffffffffffffffffffffffffffffffffffffffffffffffffffffffffff4 ggggggggggggggggggggggggggggggggg",
"ggggggggggggggggggggggggggggggggggXsfffffffffffffffffffffffffffffffffffffffffffffffffffffffffOgggggggggggggggggggggggggggggggggg",
"gggggggggggggggggggggggggggggggggg 4ffffffffffffffffffffffffffffffffffffffffffffffffffffffff9 gggggggggggggggggggggggggggggggggg",
"gggggggggggggggggggggggggggggggggggXsfffffffffffffffffffffffffffffffffffffffffffffffffffffffOggggggggggggggggggggggggggggggggggg",
"ggggggggggggggggggggggggggggggggggg 4ffffffffffffffffffffffffffffffffffffffffffffffffffffff4 ggggggggggggggggggggggggggggggggggg",
"ggggggggggggggggggggggggggggggggggggosffffffffffffffffffffffffffffffffffffffffffffffffffffuOgggggggggggggggggggggggggggggggggggg",
"ggggggggggggggggggggggggggggggggggggg;ffffffffffffffffffffffffffffffffffffffffffffffffffff:ggggggggggggggggggggggggggggggggggggg",
"ggggggggggggggggggggggggggggggggggggg wffffffffffffffffffffffffffffffffffffffffffffffffff9 ggggggggggggggggggggggggggggggggggggg",
"gggggggggggggggggggggggggggggggggggg =XiffffffffffffffffffffffffffffffffffffffffffffffffuO; gggggggggggggggggggggggggggggggggggg",
"ggggggggggggggggggggggggggggggggggg >f6%ffffffffffffffffffffffffffffffffffffffffffffffff%5f> ggggggggggggggggggggggggggggggggggg",
"gggggggggggggggggggggggggggggggggg >fff>2ffffffffffffffffffffffffffffffffffffffffffffff2;fff> gggggggggggggggggggggggggggggggggg",
"ggggggggggggggggggggggggggggggggg 3ffffs%4ffffffffffffffffffffffffffffffffffffffffffff4#dffff5 ggggggggggggggggggggggggggggggggg",
"gggggggggggggggggggggggggggggggg 5ffffffp@4ffffffffffffffffffffffffffffffffffffffffff4#affffff5 gggggggggggggggggggggggggggggggg",
"ggggggggggggggggggggggggggggggg 5ffffffffp@4ffffffffffffffffffffffffffffffffffffffff4#affffffff5 ggggggggggggggggggggggggggggggg",
"ggggggggggggggggggggggggggggggg1ffffffffffp@4ffffffffffffffffffffffffffffffffffffff4#affffffffff=ggggggggggggggggggggggggggggggg",
"gggggggggggggggggggggggggggggg rfffffffffffp%;iffffffffffffffffffffffffffffffffffs-=dfffffffffffr gggggggggggggggggggggggggggggg",
"gggggggggggggggggggggggggggggg ffffffffffffff5+yffffffffffffffffffffffffffffffffeO3ffffffffffffff gggggggggggggggggggggggggggggg",
"gggggggggggggggggggggggggggggg sffffffffffffff9@2iffffffffffffffffffffffffffffs2Xrfffffffffffffff gggggggggggggggggggggggggggggg",
"gggggggggggggggggggggggggggggg rfffffffffffffffp>+0ffffffffffffffffffffffffff6.3dfffffffffffffffe gggggggggggggggggggggggggggggg",
"ggggggggggggggggggggggggggggggg=fffffffffffffffffp;+0iffffffffffffffffffffs4.=rfffffffffffffffff$ggggggggggggggggggggggggggggggg",
"ggggggggggggggggggggggggggggggg 4ffffffffffffffffffy> ,qsffffffffffffffse<O;rffffffffffffffffff4 ggggggggggggggggggggggggggggggg",
"gggggggggggggggggggggggggggggggg +qsfffffffffffffffffp9= *2qeiffffit82*.=6dfffffffffffffffffse* gggggggggggggggggggggggggggggggg",
"ggggggggggggggggggggg                                                                                      ggggggggggggggggggggg",
"ggggggggggggggggggg X5rffffffffffffffffffffffffffffffffffffffffffffffffffffffffffffffffffffffffffffffffffy>  ggggggggggggggggggg",
"gggggggggggggggggg #affffffffffffffffffffffffffffffffffffffffffffffffffffffffffffffffffffffffffffffffffffffp@ gggggggggggggggggg",
"gggggggggggggggggg affffffffffffffffffffffffffffffffffffffffffffffffffffffffffffffffffffffffffffffffffffffffpXgggggggggggggggggg",
"ggggggggggggggggg 1ffffffffffffffffffffffffffffffffffffffffffffffffffffffffffffffffffffffffffffffffffffffffff4 ggggggggggggggggg",
"ggggggggggggggggg yffffffffffffffffffffffffffffffffffffffffffffffffffffffffffffffffffffffffffffffffffffffffffr ggggggggggggggggg",
"ggggggggggggggggg ffffffffffffffffffffffffffffffffffffffffffffffffffffffffffffffffffffffffffffffffffffffffffff ggggggggggggggggg",
"ggggggggggggggggg ffffffffffffffffffffffffffffffffffffffffffffffffffffffffffffffffffffffffffffffffffffffffffff ggggggggggggggggg",
"ggggggggggggggggg rfffffffffffffffffffffffffffffffffffffffffffffffffffffffffffffffffffffffffffffffffffffffffft ggggggggggggggggg",
"ggggggggggggggggg 4ffffffffffffffffffffffffffffffffffffffffffffffffffffffffffffffffffffffffffffffffffffffffff: ggggggggggggggggg",
"ggggggggggggggggggXiffffffffffffffffffffffffffffffffffffffffffffffffffffffffffffffffffffffffffffffffffffffffu gggggggggggggggggg",
"gggggggggggggggggg +iffffffffffffffffffffffffffffffffffffffffffffffffffffffffffffffffffffffffffffffffffffffuOggggggggggggggggggg",
"ggggggggggggggggggg  ,tffffffffffffffffffffffffffffffffffffffffffffffffffffffffffffffffffffffffffffffffffe4. ggggggggggggggggggg",
"ggggggggggggggggggggg                                                                                      ggggggggggggggggggggg",
"gggggggggggggggggggggggggggggggggggggggggggggggggggggggggggggggggggggggggggggggggggggggggggggggggggggggggggggggggggggggggggggggg",
"gggggggggggggggggggggggggggggggggggggggggggggggggggggggggggggggggggggggggggggggggggggggggggggggggggggggggggggggggggggggggggggggg",
"gggggggggggggggggggggggggggggggggggggggggggggggggggggggggggggggggggggggggggggggggggggggggggggggggggggggggggggggggggggggggggggggg",
"gggggggggggggggggggggggggggggggggggggggggggggggggggggggggggggggggggggggggggggggggggggggggggggggggggggggggggggggggggggggggggggggg",
"gggggggggggggggggggggggggggggggggggggggggggggggggggggggggggggggggggggggggggggggggggggggggggggggggggggggggggggggggggggggggggggggg",
"gggggggggggggggggggggggggggggggggggggggggggggggggggggggggggggggggggggggggggggggggggggggggggggggggggggggggggggggggggggggggggggggg",
"gggggggggggggggggggggggggggggggggggggggggggggggggggggggggggggggggggggggggggggggggggggggggggggggggggggggggggggggggggggggggggggggg",
"gggggggggggggggggggggggggggggggggggggggggggggggggggggggggggggggggggggggggggggggggggggggggggggggggggggggggggggggggggggggggggggggg",
"gggggggggggggggggggggggggggggggggggggggggggggggggggggggggggggggggggggggggggggggggggggggggggggggggggggggggggggggggggggggggggggggg",
"gggggggggggggggggggggggggggggggggggggggggggggggggggggggggggggggggggggggggggggggggggggggggggggggggggggggggggggggggggggggggggggggg",
"gggggggggggggggggggggggggggggggggggggggggggggggggggggggggggggggggggggggggggggggggggggggggggggggggggggggggggggggggggggggggggggggg"
};
