/* XPM */
static char *result[] = {
/* columns rows colors chars-per-pixel */
"128 128 40 1 ",
"  c black",
". c #0F0E0E",
"X c #0F0F0E",
"o c #100F0F",
"O c #10100F",
"+ c #1E1D1C",
"@ c #1E1D1D",
"# c #1E1E1C",
"$ c #1E1E1D",
"% c #2D2C2B",
"& c #2D2D2B",
"* c #3B3B39",
"= c #3C3B39",
"- c #4B4A47",
"; c #595855",
": c #5A5955",
"> c #595856",
", c #5A5956",
"< c #686764",
"1 c #696864",
"2 c #777672",
"3 c #787772",
"4 c #868580",
"5 c #878680",
"6 c #95948E",
"7 c #95948F",
"8 c #96958F",
"9 c #A4A39D",
"0 c #B3B1AB",
"q c #B3B2AB",
"w c #C2C0B9",
"e c #C2C1B9",
"r c #D1CFC7",
"t c #D1CFC8",
"y c #D1D0C7",
"u c #D1D0C8",
"i c #E0DED6",
"p c #E0DFD6",
"a c #EFEDE4",
"s c None",
/* pixels */
"ssssssssssssssssssssssssssssssssssssssssssssssssssssssssssssssssssssssssssssssssssssssssssssssssssssssssssssssssssssssssssssssss",
"ssssssssssssssssssssssssssssssssssssssssssssssssssssssssssssssssssssssssssssssssssssssssssssssssssssssssssssssssssssssssssssssss",
"ssssssssssssssssssssssssssssssssssssssssssssssssssssssssssssssssssssssssssssssssssssssssssssssssssssssssssssssssssssssssssssssss",
"ssssssssssssssssssssssssssssssssssssssssssssssssssssssssssssssssssssssssssssssssssssssssssssssssssssssssssssssssssssssssssssssss",
"ssssssssssssssssssssssssssssssssssssssssssssssssssssssssssssssssssssssssssssssssssssssssssssssssssssssssssssssssssssssssssssssss",
"ssssssssssssssssssssssssssssssssssssssssssssssssssssssssssssssssssssssssssssssssssssssssssssssssssssssssssssssssssssssssssssssss",
"ssssssssssssssssssssssssssssssssssssssssssssssssssssssssssssssssssssssssssssssssssssssssssssssssssssssssssssssssssssssssssssssss",
"ssssssssssssssssssssssssssssssssssssssssssssssssssssssssssssssssssssssssssssssssssssssssssssssssssssssssssssssssssssssssssssssss",
"ssssssssssssssssssssssssssssssssssssssssssssssssssssssssssssssssssssssssssssssssssssssssssssssssssssssssssssssssssssssssssssssss",
"ssssssssssssssssssssssssssssssssssssssssssssssssssssssssssssssssssssssssssssssssssssssssssssssssssssssssssssssssssssssssssssssss",
"ssssssssssssssssssssssssssssssssssssssssssssssssssssssssssssss      ssssssssssssssssssssssssssssssssssssssssssssssssssssssssssss",
"ssssssssssssssssssssssssssssssssssssssssssssssssssssssssssss X3uaae6# ssssssssssssssssssssssssssssssssssssssssssssssssssssssssss",
"sssssssssssssssssssssssssssssssssssssssssssssssssssssssssss :paaaaaai1 sssssssssssssssssssssssssssssssssssssssssssssssssssssssss",
"ssssssssssssssssssssssssssssssssssssssssssssssssssssssssss 1aaaaaaaaaa: ssssssssssssssssssssssssssssssssssssssssssssssssssssssss",
"ssssssssssssssssssssssssssssssssssssssssssssssssssssssssss$paaaaaaaaaaiXssssssssssssssssssssssssssssssssssssssssssssssssssssssss",
"sssssssssssssssssssssssssssssssssssssssssssssssssssssssss 7aaaaaaaaaaaa2 sssssssssssssssssssssssssssssssssssssssssssssssssssssss",
"sssssssssssssssssssssssssssssssssssssssssssssssssssssssss eaaaaaaaaaaaar sssssssssssssssssssssssssssssssssssssssssssssssssssssss",
"sssssssssssssssssssssssssssssssssssssssssssssssssssssssss aaaaaaaaaaaaaa sssssssssssssssssssssssssssssssssssssssssssssssssssssss",
"sssssssssssssssssssssssssssssssssssssssssssssssssssssssss aaaaaaaaaaaaaa sssssssssssssssssssssssssssssssssssssssssssssssssssssss",
"sssssssssssssssssssssssssssssssssssssssssssssssssssssssss taaaaaaaaaaaaw sssssssssssssssssssssssssssssssssssssssssssssssssssssss",
"sssssssssssssssssssssssssssssssssssssssssssssssssssssssss 2aaaaaaaaaaaa6 sssssssssssssssssssssssssssssssssssssssssssssssssssssss",
"sssssssssssssssssssssssssssssssssssssssssssssssss    sssssXiaaaaaaaaaai+sssss    sssssssssssssssssssssssssssssssssssssssssssssss",
"ssssssssssssssssssssssssssssssssssssssssssssssss 3pp4 ssss ,aaaaaaaaaa< ssss 3pp4 ssssssssssssssssssssssssssssssssssssssssssssss",
"sssssssssssssssssssssssssssssssssssssssssssssss 5aaaa2 ssss <iaaaaaai; ssss 5aaaa2 sssssssssssssssssssssssssssssssssssssssssssss",
"sssssssssssssssssssssssssssssssssssssss    ssss iaaaai sssss @7waat2. sssss iaaaai ssss    sssssssssssssssssssssssssssssssssssss",
"ssssssssssssssssssssssssssssssssssssss 3pp4 sss iaaaai sssssss      sssssss iaaaai sss 3pp4 ssssssssssssssssssssssssssssssssssss",
"sssssssssssssssssssssssssssssssssssss 5aaaa2 ss 2aaaa4 ssss  +,6qq6:#  ssss 2aaaa4 ss 5aaaa2 sssssssssssssssssssssssssssssssssss",
"sssssssssssssssssssssssssssssssssssss iaaaai sss 4ii2    +16uaaaaaaaay9:%    4ii2 sss iaaaai sssssssssssssssssssssssssssssssssss",
"sssssssssssssssssssssssssssssssssssss iaaaai ssss    %19paaaaaaaaaaaaaaaap91%    ssss iaaaai sssssssssssssssssssssssssssssssssss",
"sssssssssssssssssssssssssssssssssssss 2aaaa4 s  X=1qpaaaaaaaaaaaaaaaaaaaaaaaapq1=   s 2aaaa4 sssssssssssssssssssssssssssssssssss",
"ssssssssssssssssssssssssssssssssssssss 4ii2 X=3qpaaaaaaaaaaaaaaaaaaaaaaaaaaaaaaaaaq2=  4ii2 ssssssssssssssssssssssssssssssssssss",
"sssssssssssssssssssssssssssssssssssssss   $7paaaaaaaaaaaaaaaaaaaaaaaaaaaaaaaaaaaaaaaay3    sssssssssssssssssssssssssssssssssssss",
"ssssssssssssssssssssssssssssssssssssssss &paaaaaaaaaaaaaaaaaaaaaaaaaaaaaaaaaaaaaaaaaaaay#sssssssssssssssssssssssssssssssssssssss",
"ssssssssssssssssssssssssssssssssssssssss$paaaaaaaaaaaaaaaaaaaaaaaaaaaaaaaaaaaaaaaaaaaaaaq ssssssssssssssssssssssssssssssssssssss",
"sssssssssssssssssssssssssssssssssssssss 7aaaaaaaaaaaaaaaaaaaaaaaaaaaaaaaaaaaaaaaaaaaaaaaa:ssssssssssssssssssssssssssssssssssssss",
"sssssssssssssssssssssssssssssssssssssss$aaaaaaaaaaaaaaaaaaaaaaaaaaaaaaaaaaaaaaaaaaaaaaaaaq sssssssssssssssssssssssssssssssssssss",
"sssssssssssssssssssssssssssssssssssssss-aaaaaaaaaaaaaaaaaaaaaaaaaaaaaaaaaaaaaaaaaaaaaaaaaa sssssssssssssssssssssssssssssssssssss",
"sssssssssssssssssssssssssssssssssssssss2aaaaaaaaaaaaaaaaaaaaaaaaaaaaaaaaaaaaaaaaaaaaaaaaaa+sssssssssssssssssssssssssssssssssssss",
"sssssssssssssssssssssssssssssssssssssss<aaaaaaaaaaaaaaaaaaaaaaaaaaaaaaaaaaaaaaaaaaaaaaaaaaXsssssssssssssssssssssssssssssssssssss",
"sssssssssssssssssssssssssssssssssssssss=aaaaaaaaaaaaaaaaaaaaaaaaaaaaaaaaaaaaaaaaaaaaaaaaaw sssssssssssssssssssssssssssssssssssss",
"sssssssssssssssssssssssssssssssssssssss iaaaaaaaaaaaaaaaaaaaaaaaaaaaaaaaaaaaaaaaaaaaaaaaa; sssssssssssssssssssssssssssssssssssss",
"sssssssssssssssssssssssssssssssssssssss 2aaaaaaaaaaaaaaaaaaaaaaaaaaaaaaaaaaaaaaaaaaaaaaaa+ssssssssssssssssssssssssssssssssssssss",
"ssssssssssssssssssssssssssssssssssssssss=aaaaaaaaaaaaaaaaaaaaaaaaaaaaaaaaaaaaaaaaaaaaaaa6 ssssssssssssssssssssssssssssssssssssss",
"ssssssssssssssssssssssssssssssssssssssss qaaaaaaaaaaaaaaaaaaaaaaaaaaaaaaaaaaaaaaaaaaaaaa*sssssssssssssssssssssssssssssssssssssss",
"sssssssssssssssssssssssssssssssssssssssss2aaaaaaaaaaaaaaaaaaaaaaaaaaaaaaaaaaaaaaaaaaaaar sssssssssssssssssssssssssssssssssssssss",
"sssssssssssssssssssssssssssssssssssssssssXaaaaaaaaaaaaaaaaaaaaaaaaaaaaaaaaaaaaaaaaaaaaa; sssssssssssssssssssssssssssssssssssssss",
"sssssssssssssssssssssssssssssssssssssssss qaaaaaaaaaaaaaaaaaaaaaaaaaaaaaaaaaaaaaaaaaaaa+ssssssssssssssssssssssssssssssssssssssss",
"ssssssssssssssssssssssssssssssssssssssssss<aaaaaaaaaaaaaaaaaaaaaaaaaaaaaaaaaaaaaaaaaaa6 ssssssssssssssssssssssssssssssssssssssss",
"ssssssssssssssssssssssssssssssssssssssssssXiaaaaaaaaaaaaaaaaaaaaaaaaaaaaaaaaaaaaaaaaaa*sssssssssssssssssssssssssssssssssssssssss",
"ssssssssssssssssssssssssssssssssssssssssss qaaaaaaaaaaaaaaaaaaaaaaaaaaaaaaaaaaaaaaaaar sssssssssssssssssssssssssssssssssssssssss",
"sssssssssssssssssssssssssssssssssssssssssss=aaaaaaaaaaaaaaaaaaaaaaaaaaaaaaaaaaaaaaaaa; sssssssssssssssssssssssssssssssssssssssss",
"sssssssssssssssssssssssssssssssssssssssssssOiaaaaaaaaaaaaaaaaaaaaaaaaaaaaaaaaaaaaaaaa+ssssssssssssssssssssssssssssssssssssssssss",
"sssssssssssssssssssssssssssssssssssssssssss 4aaaaaaaaaaaaaaaaaaaaaaaaaaaaaaaaaaaaaaa6 ssssssssssssssssssssssssssssssssssssssssss",
"ssssssssssssssssssssssssssssssssssssssssssss=aaaaaaaaaaaaaaaaaaaaaaaaaaaaaaaaaaaaaaa*sssssssssssssssssssssssssssssssssssssssssss",
"ssssssssssssssssssssssssssssssssssssssssssss iaaaaaaaaaaaaaaaaaaaaaaaaaaaaaaaaaaaaar sssssssssssssssssssssssssssssssssssssssssss",
"ssssssssssssssssssssssssssssssssssssssssssss 2aaaaaaaaaaaaaaaaaaaaaaaaaaaaaaaaaaaaa;ssssssssssssssssssssssssssssssssssssssssssss",
"sssssssssssssssssssssssssssssssssssssssssssss=aaaaaaaaaaaaaaaaaaaaaaaaaaaaaaaaaaaaiXssssssssssssssssssssssssssssssssssssssssssss",
"sssssssssssssssssssssssssssssssssssssssssssss qaaaaaaaaaaaaaaaaaaaaaaaaaaaaaaaaaaa6 ssssssssssssssssssssssssssssssssssssssssssss",
"ssssssssssssssssssssssssssssssssssssssssssssss2aaaaaaaaaaaaaaaaaaaaaaaaaaaaaaaaaaa%sssssssssssssssssssssssssssssssssssssssssssss",
"ssssssssssssssssssssssssssssssssssssssssssssssXaaaaaaaaaaaaaaaaaaaaaaaaaaaaaaaaaaw sssssssssssssssssssssssssssssssssssssssssssss",
"ssssssssssssssssssssssssssssssssssssssssssssss qaaaaaaaaaaaaaaaaaaaaaaaaaaaaaaaaa;ssssssssssssssssssssssssssssssssssssssssssssss",
"sssssssssssssssssssssssssssssssssssssssssssssss<aaaaaaaaaaaaaaaaaaaaaaaaaaaaaaaar ssssssssssssssssssssssssssssssssssssssssssssss",
"sssssssssssssssssssssssssssssssssssssssssssssssXiaaaaaaaaaaaaaaaaaaaaaaaaaaaaaaa6 ssssssssssssssssssssssssssssssssssssssssssssss",
"sssssssssssssssssssssssssssssssssssssssssssssss qaaaaaaaaaaaaaaaaaaaaaaaaaaaaaaa+sssssssssssssssssssssssssssssssssssssssssssssss",
"ssssssssssssssssssssssssssssssssssssssssssssssss=aaaaaaaaaaaaaaaaaaaaaaaaaaaaaa0 sssssssssssssssssssssssssssssssssssssssssssssss",
"ssssssssssssssssssssssssssssssssssssssssssssssssOiaaaaaaaaaaaaaaaaaaaaaaaaaaaaa;ssssssssssssssssssssssssssssssssssssssssssssssss",
"ssssssssssssssssssssssssssssssssssssssssssssssss 4aaaaaaaaaaaaaaaaaaaaaaaaaaaar ssssssssssssssssssssssssssssssssssssssssssssssss",
"sssssssssssssssssssssssssssssssssssssssssssssssss=aaaaaaaaaaaaaaaaaaaaaaaaaaaa6 ssssssssssssssssssssssssssssssssssssssssssssssss",
"sssssssssssssssssssssssssssssssssssssssssssssssss iaaaaaaaaaaaaaaaaaaaaaaaaaaa+sssssssssssssssssssssssssssssssssssssssssssssssss",
"sssssssssssssssssssssssssssssssssssssssssssssssss 4aaaaaaaaaaaaaaaaaaaaaaaaaa0 sssssssssssssssssssssssssssssssssssssssssssssssss",
"ssssssssssssssssssssssssssssssssssssssssssssssssss-aaaaaaaaaaaaaaaaaaaaaaaaaa2 sssssssssssssssssssssssssssssssssssssssssssssssss",
"ssssssssssssssssssssssssssssssssssssssssssssssssss$aaaaaaaaaaaaaaaaaaaaaaaaaa;ssssssssssssssssssssssssssssssssssssssssssssssssss",
"ssssssssssssssssssssssssssssssssssssssssssssssssss$aaaaaaaaaaaaaaaaaaaaaaaaaa;ssssssssssssssssssssssssssssssssssssssssssssssssss",
"ssssssssssssssssssssssssssssssssssss                                                          ssssssssssssssssssssssssssssssssss",
"sssssssssssssssssssssssssssssssssssO3qaaaaaaaaaaaaaaaaaaaaaaaaaaaaaaaaaaaaaaaaaaaaaaaaaaaaaae: sssssssssssssssssssssssssssssssss",
"ssssssssssssssssssssssssssssssssss$uaaaaaaaaaaaaaaaaaaaaaaaaaaaaaaaaaaaaaaaaaaaaaaaaaaaaaaaaaay#ssssssssssssssssssssssssssssssss",
"sssssssssssssssssssssssssssssssss uaaaaaaaaaaaaaaaaaaaaaaaaaaaaaaaaaaaaaaaaaaaaaaaaaaaaaaaaaaaayOsssssssssssssssssssssssssssssss",
"ssssssssssssssssssssssssssssssss ,aaaaaaaaaaaaaaaaaaaaaaaaaaaaaaaaaaaaaaaaaaaaaaaaaaaaaaaaaaaaaa2sssssssssssssssssssssssssssssss",
"ssssssssssssssssssssssssssssssss eaaaaaaaaaaaaaaaaaaaaaaaaaaaaaaaaaaaaaaaaaaaaaaaaaaaaaaaaaaaaaaq ssssssssssssssssssssssssssssss",
"ssssssssssssssssssssssssssssssss aaaaaaaaaaaaaaaaaaaaaaaaaaaaaaaaaaaaaaaaaaaaaaaaaaaaaaaaaaaaaaaa ssssssssssssssssssssssssssssss",
"ssssssssssssssssssssssssssssssss aaaaaaaaaaaaaaaaaaaaaaaaaaaaaaaaaaaaaaaaaaaaaaaaaaaaaaaaaaaaaaaa ssssssssssssssssssssssssssssss",
"ssssssssssssssssssssssssssssssss qaaaaaaaaaaaaaaaaaaaaaaaaaaaaaaaaaaaaaaaaaaaaaaaaaaaaaaaaaaaaaaw ssssssssssssssssssssssssssssss",
"sssssssssssssssssssssssssssssssss2aaaaaaaaaaaaaaaaaaaaaaaaaaaaaaaaaaaaaaaaaaaaaaaaaaaaaaaaaaaaaa; ssssssssssssssssssssssssssssss",
"sssssssssssssssssssssssssssssssssOtaaaaaaaaaaaaaaaaaaaaaaaaaaaaaaaaaaaaaaaaaaaaaaaaaaaaaaaaaaaar sssssssssssssssssssssssssssssss",
"ssssssssssssssssssssssssssssssssss@taaaaaaaaaaaaaaaaaaaaaaaaaaaaaaaaaaaaaaaaaaaaaaaaaaaaaaaaaar+ssssssssssssssssssssssssssssssss",
"sssssssssssssssssssssssssssssssssss >waaaaaaaaaaaaaaaaaaaaaaaaaaaaaaaaaaaaaaaaaaaaaaaaaaaaaa02osssssssssssssssssssssssssssssssss",
"ssssssssssssssssssssssssssssssssssss                                                         sssssssssssssssssssssssssssssssssss",
"sssssssssssssssssssssssssssssssssssssssOeaaaaaaaaaaaaaaaaaaaaaaaaaaaaaaaaaaaaaaaaaaaaaaa% ssssssssssssssssssssssssssssssssssssss",
"ssssssssssssssssssssssssssssssssssssss 8aaaaaaaaaaaaaaaaaaaaaaaaaaaaaaaaaaaaaaaaaaaaaaaai% sssssssssssssssssssssssssssssssssssss",
"sssssssssssssssssssssssssssssssssssss 3aaaaaaaaaaaaaaaaaaaaaaaaaaaaaaaaaaaaaaaaaaaaaaaaaai# ssssssssssssssssssssssssssssssssssss",
"ssssssssssssssssssssssssssssssssssss 3aaaaaaaaaaaaaaaaaaaaaaaaaaaaaaaaaaaaaaaaaaaaaaaaaaaay#ssssssssssssssssssssssssssssssssssss",
"sssssssssssssssssssssssssssssssssss 1aaaaaaaaaaaaaaaaaaaaaaaaaaaaaaaaaaaaaaaaaaaaaaaaaaaaaayXsssssssssssssssssssssssssssssssssss",
"sssssssssssssssssssssssssssssssssss$aaaaaaaaaaaaaaaaaaaaaaaaaaaaaaaaaaaaaaaaaaaaaaaaaaaaaaaa9 ssssssssssssssssssssssssssssssssss",
"ssssssssssssssssssssssssssssssssss 7aaaaaaaaaaaaaaaaaaaaaaaaaaaaaaaaaaaaaaaaaaaaaaaaaaaaaaaaa+ssssssssssssssssssssssssssssssssss",
"ssssssssssssssssssssssssssssssssss uaaaaaaaaaaaaaaaaaaaaaaaaaaaaaaaaaaaaaaaaaaaaaaaaaaaaaaaaa<ssssssssssssssssssssssssssssssssss",
"ssssssssssssssssssssssssssssssssss aaaaaaaaaaaaaaaaaaaaaaaaaaaaaaaaaaaaaaaaaaaaaaaaaaaaaaaaaa6 sssssssssssssssssssssssssssssssss",
"ssssssssssssssssssssssssssssssssss aaaaaaaaaaaaaaaaaaaaaaaaaaaaaaaaaaaaaaaaaaaaaaaaaaaaaaaaaa4 sssssssssssssssssssssssssssssssss",
"ssssssssssssssssssssssssssssssssss taaaaaaaaaaaaaaaaaaaaaaaaaaaaaaaaaaaaaaaaaaaaaaaaaaaaaaaaa<ssssssssssssssssssssssssssssssssss",
"ssssssssssssssssssssssssssssssssss 4aaaaaaaaaaaaaaaaaaaaaaaaaaaaaaaaaaaaaaaaaaaaaaaaaaaaaaaaa+ssssssssssssssssssssssssssssssssss",
"sssssssssssssssssssssssssssssssssss@iaaaaaaaaaaaaaaaaaaaaaaaaaaaaaaaaaaaaaaaaaaaaaaaaaaaaaaa6 ssssssssssssssssssssssssssssssssss",
"sssssssssssssssssssssssssssssssssss <aaaaaaaaaaaaaaaaaaaaaaaaaaaaaaaaaaaaaaaaaaaaaaaaaaaaaar+sssssssssssssssssssssssssssssssssss",
"ssssssssssssssssssssssssssssssssssss 2aaaaaaaaaaaaaaaaaaaaaaaaaaaaaaaaaaaaaaaaaaaaaaaaaaaaw+ssssssssssssssssssssssssssssssssssss",
"sssssssssssssssssssssssssssssssssssss @7waaaaaaaaaaaaaaaaaaaaaaaaaaaaaaaaaaaaaaaaaaaaaai0; sssssssssssssssssssssssssssssssssssss",
"sssssssssssssssssssss                                                                                      sssssssssssssssssssss",
"sssssssssssssssssss X3qaaaaaaaaaaaaaaaaaaaaaaaaaaaaaaaaaaaaaaaaaaaaaaaaaaaaaaaaaaaaaaaaaaaaaaaaaaaaaaaaaae:  sssssssssssssssssss",
"ssssssssssssssssss $uaaaaaaaaaaaaaaaaaaaaaaaaaaaaaaaaaaaaaaaaaaaaaaaaaaaaaaaaaaaaaaaaaaaaaaaaaaaaaaaaaaaaaay# ssssssssssssssssss",
"ssssssssssssssssss uaaaaaaaaaaaaaaaaaaaaaaaaaaaaaaaaaaaaaaaaaaaaaaaaaaaaaaaaaaaaaaaaaaaaaaaaaaaaaaaaaaaaaaaayXssssssssssssssssss",
"sssssssssssssssss ,aaaaaaaaaaaaaaaaaaaaaaaaaaaaaaaaaaaaaaaaaaaaaaaaaaaaaaaaaaaaaaaaaaaaaaaaaaaaaaaaaaaaaaaaaa2 sssssssssssssssss",
"sssssssssssssssss eaaaaaaaaaaaaaaaaaaaaaaaaaaaaaaaaaaaaaaaaaaaaaaaaaaaaaaaaaaaaaaaaaaaaaaaaaaaaaaaaaaaaaaaaaaq sssssssssssssssss",
"sssssssssssssssss aaaaaaaaaaaaaaaaaaaaaaaaaaaaaaaaaaaaaaaaaaaaaaaaaaaaaaaaaaaaaaaaaaaaaaaaaaaaaaaaaaaaaaaaaaaa sssssssssssssssss",
"sssssssssssssssss aaaaaaaaaaaaaaaaaaaaaaaaaaaaaaaaaaaaaaaaaaaaaaaaaaaaaaaaaaaaaaaaaaaaaaaaaaaaaaaaaaaaaaaaaaaa sssssssssssssssss",
"sssssssssssssssss qaaaaaaaaaaaaaaaaaaaaaaaaaaaaaaaaaaaaaaaaaaaaaaaaaaaaaaaaaaaaaaaaaaaaaaaaaaaaaaaaaaaaaaaaaaw sssssssssssssssss",
"sssssssssssssssss 2aaaaaaaaaaaaaaaaaaaaaaaaaaaaaaaaaaaaaaaaaaaaaaaaaaaaaaaaaaaaaaaaaaaaaaaaaaaaaaaaaaaaaaaaaa; sssssssssssssssss",
"ssssssssssssssssssXtaaaaaaaaaaaaaaaaaaaaaaaaaaaaaaaaaaaaaaaaaaaaaaaaaaaaaaaaaaaaaaaaaaaaaaaaaaaaaaaaaaaaaaaar ssssssssssssssssss",
"ssssssssssssssssss @taaaaaaaaaaaaaaaaaaaaaaaaaaaaaaaaaaaaaaaaaaaaaaaaaaaaaaaaaaaaaaaaaaaaaaaaaaaaaaaaaaaaaar+sssssssssssssssssss",
"sssssssssssssssssss  >waaaaaaaaaaaaaaaaaaaaaaaaaaaaaaaaaaaaaaaaaaaaaaaaaaaaaaaaaaaaaaaaaaaaaaaaaaaaaaaaaa02. sssssssssssssssssss",
"sssssssssssssssssssss                                                                                      sssssssssssssssssssss",
"ssssssssssssssssssssssssssssssssssssssssssssssssssssssssssssssssssssssssssssssssssssssssssssssssssssssssssssssssssssssssssssssss",
"ssssssssssssssssssssssssssssssssssssssssssssssssssssssssssssssssssssssssssssssssssssssssssssssssssssssssssssssssssssssssssssssss",
"ssssssssssssssssssssssssssssssssssssssssssssssssssssssssssssssssssssssssssssssssssssssssssssssssssssssssssssssssssssssssssssssss",
"ssssssssssssssssssssssssssssssssssssssssssssssssssssssssssssssssssssssssssssssssssssssssssssssssssssssssssssssssssssssssssssssss",
"ssssssssssssssssssssssssssssssssssssssssssssssssssssssssssssssssssssssssssssssssssssssssssssssssssssssssssssssssssssssssssssssss",
"ssssssssssssssssssssssssssssssssssssssssssssssssssssssssssssssssssssssssssssssssssssssssssssssssssssssssssssssssssssssssssssssss",
"ssssssssssssssssssssssssssssssssssssssssssssssssssssssssssssssssssssssssssssssssssssssssssssssssssssssssssssssssssssssssssssssss",
"ssssssssssssssssssssssssssssssssssssssssssssssssssssssssssssssssssssssssssssssssssssssssssssssssssssssssssssssssssssssssssssssss",
"ssssssssssssssssssssssssssssssssssssssssssssssssssssssssssssssssssssssssssssssssssssssssssssssssssssssssssssssssssssssssssssssss",
"ssssssssssssssssssssssssssssssssssssssssssssssssssssssssssssssssssssssssssssssssssssssssssssssssssssssssssssssssssssssssssssssss",
"ssssssssssssssssssssssssssssssssssssssssssssssssssssssssssssssssssssssssssssssssssssssssssssssssssssssssssssssssssssssssssssssss"
};
