/* XPM */
static char *result[] = {
/* columns rows colors chars-per-pixel */
"128 128 42 1 ",
"  c black",
". c #0F0E0E",
"X c #0F0F0E",
"o c #100F0F",
"O c #10100F",
"+ c #1D1D1C",
"@ c #1E1D1C",
"# c #1E1D1D",
"$ c #1E1E1C",
"% c #1E1E1D",
"& c #2D2C2B",
"* c #2D2D2B",
"= c #3B3B39",
"- c #3C3B39",
"; c #4B4A47",
": c #595855",
"> c #5A5955",
", c #595856",
"< c #5A5956",
"1 c #686764",
"2 c #696864",
"3 c #777672",
"4 c #787772",
"5 c #868580",
"6 c #878680",
"7 c #95938E",
"8 c #95948E",
"9 c #95948F",
"0 c #A4A29D",
"q c #A4A39D",
"w c #B3B1AB",
"e c #B3B2AB",
"r c #C2C0B9",
"t c #C2C1B9",
"y c #D1CFC7",
"u c #D1CFC8",
"i c #D1D0C7",
"p c #D1D0C8",
"a c #E0DED6",
"s c #E0DFD6",
"d c #EFEDE4",
"f c None",
/* pixels */
"ffffffffffffffffffffffffffffffffffffffffffffffffffffffffffffffffffffffffffffffffffffffffffffffffffffffffffffffffffffffffffffffff",
"ffffffffffffffffffffffffffffffffffffffffffffffffffffffffffffffffffffffffffffffffffffffffffffffffffffffffffffffffffffffffffffffff",
"ffffffffffffffffffffffffffffffffffffffffffffffffffffffffffffffffffffffffffffffffffffffffffffffffffffffffffffffffffffffffffffffff",
"ffffffffffffffffffffffffffffffffffffffffffffffffffffffffffffffffffffffffffffffffffffffffffffffffffffffffffffffffffffffffffffffff",
"ffffffffffffffffffffffffffffffffffffffffffffffffffffffffffffffffffffffffffffffffffffffffffffffffffffffffffffffffffffffffffffffff",
"ffffffffffffffffffffffffffffffffffffffffffffffffffffffffffffffffffffffffffffffffffffffffffffffffffffffffffffffffffffffffffffffff",
"ffffffffffffffffffffffffffffffffffffffffffffffffffffffffffffffffffffffffffffffffffffffffffffffffffffffffffffffffffffffffffffffff",
"ffffffffffffffffffffffffffffffffffffffffffffffffffffffffffffffffffffffffffffffffffffffffffffffffffffffffffffffffffffffffffffffff",
"ffffffffffffffffffffffffffffffffffffffffffffffffffffffffffffffffffffffffffffffffffffffffffffffffffffffffffffffffffffffffffffffff",
"ffffffffffffffffffffffffffffffffffffffffffffffffffffffffffffffffffffffffffffffffffffffffffffffffffffffffffffffffffffffffffffffff",
"ffffffffffffffffffffffffffffffffffffffffffffffffffffffffffffffffffffffffffffffffffffffffffffffffffffffffffffffffffffffffffffffff",
"ffffffffffffffffffffffffffffffffffffffffffffffffffffffffffff        ffffffffffffffffffffffffffffffffffffffffffffffffffffffffffff",
"ffffffffffffffffffffffffffffffffffffffffffffffffffffffff  @28psddstq2$ fffffffffffffffffffffffffffffffffffffffffffffffffffffffff",
"ffffffffffffffffffffffffffffffffffffffffffffffffffffff  <eddddddddddddt>  ffffffffffffffffffffffffffffffffffffffffffffffffffffff",
"fffffffffffffffffffffffffffffffffffffffffffffffffffff -pddddddddddddddddi> fffffffffffffffffffffffffffffffffffffffffffffffffffff",
"ffffffffffffffffffffffffffffffffffffffffffffffffffffO6dddddddddddddddddddd5Offffffffffffffffffffffffffffffffffffffffffffffffffff",
"fffffffffffffffffffffffffffffffffffffffffffffffffff%tddddddddddddddddddddddi$fffffffffffffffffffffffffffffffffffffffffffffffffff",
"ffffffffffffffffffffffffffffffffffffffffffffffffff%pddddddddddddddddddddddddi$ffffffffffffffffffffffffffffffffffffffffffffffffff",
"fffffffffffffffffffffffffffffffffffffffffffffffffOpddddddddddddddddddddddddddtOfffffffffffffffffffffffffffffffffffffffffffffffff",
"ffffffffffffffffffffffffffffffffffffffffffffffff 6dddddddddddddddddddddddddddd5 ffffffffffffffffffffffffffffffffffffffffffffffff",
"fffffffffffffffffffffffffffffffffffffffffffffff <dddddddddddddddddddddddddddddd-ffffffffffffffffffffffffffffffffffffffffffffffff",
"fffffffffffffffffffffffffffffffffffffffffffffff pddddddddddddddddddddddddddddddi fffffffffffffffffffffffffffffffffffffffffffffff",
"fffffffffffffffffffffffffffffffffffffffffffffff<dddddddddddddddddddddddddddddddd>fffffffffffffffffffffffffffffffffffffffffffffff",
"ffffffffffffffffffffffffffffffffffffffffffffff tdddddddddddddddddddddddddddddddde ffffffffffffffffffffffffffffffffffffffffffffff",
"ffffffffffffffffffffffffffffffffffffffffffffff%dddddddddddddddddddddddddddddddddd@ffffffffffffffffffffffffffffffffffffffffffffff",
"ffffffffffffffffffffffffffffffffffffffffffffff1dddddddddddddddddddddddddddddddddd1ffffffffffffffffffffffffffffffffffffffffffffff",
"fffffffffffffffffffffffffffffffffffffffffffff qdddddddddddddddddddddddddddddddddd8 fffffffffffffffffffffffffffffffffffffffffffff",
"fffffffffffffffffffffffffffffffffffffffffffff tddddddddddddddddddddddddddddddddddy fffffffffffffffffffffffffffffffffffffffffffff",
"fffffffffffffffffffffffffffffffffffffffffffff adddddddddddddddddddddddddddddddddda fffffffffffffffffffffffffffffffffffffffffffff",
"fffffffffffffffffffffffffffffffffffffffffffff dddddddddddddddddddddddddddddddddddd fffffffffffffffffffffffffffffffffffffffffffff",
"fffffffffffffffffffffffffffffffffffffffffffff dddddddddddddddddddddddddddddddddddd fffffffffffffffffffffffffffffffffffffffffffff",
"fffffffffffffffffffffffffffffffffffffffffffff adddddddddddddddddddddddddddddddddda fffffffffffffffffffffffffffffffffffffffffffff",
"fffffffffffffffffffffffffffffffffffffffffffff uddddddddddddddddddddddddddddddddddr fffffffffffffffffffffffffffffffffffffffffffff",
"fffffffffffffffffffffffffffffffffffffffffffff 9ddddddddddddddddddddddddddddddddddq fffffffffffffffffffffffffffffffffffffffffffff",
"ffffffffffffffffffffffffffffffffffffffffffffff1dddddddddddddddddddddddddddddddddd1ffffffffffffffffffffffffffffffffffffffffffffff",
"ffffffffffffffffffffffffffffffffffffffffffffff%dddddddddddddddddddddddddddddddddd@ffffffffffffffffffffffffffffffffffffffffffffff",
"ffffffffffffffffffffffffffffffffffffffffffffff eddddddddddddddddddddddddddddddddr ffffffffffffffffffffffffffffffffffffffffffffff",
"fffffffffffffffffffffffffffffffffffffffffffffff,dddddddddddddddddddddddddddddddd:fffffffffffffffffffffffffffffffffffffffffffffff",
"fffffffffffffffffffffffffffffffffffffffffffffff uddddddddddddddddddddddddddddddy fffffffffffffffffffffffffffffffffffffffffffffff",
"ffffffffffffffffffffffffffffffffffffffffffffffff-dddddddddddddddddddddddddddddd:ffffffffffffffffffffffffffffffffffffffffffffffff",
"ffffffffffffffffffffffffffffffffffffffffffffffff 5dddddddddddddddddddddddddddd5 ffffffffffffffffffffffffffffffffffffffffffffffff",
"fffffffffffffffffffffffffffffffffffffffffffffffffOtddddddddddddddddddddddddddyofffffffffffffffffffffffffffffffffffffffffffffffff",
"ffffffffffffffffffffffffffffffffffffffffffffffffff#uddddddddddddddddddddddddy@ffffffffffffffffffffffffffffffffffffffffffffffffff",
"fffffffffffffffffffffffffffffffffffffffffffffffffff#uddddddddddddddddddddddr@fffffffffffffffffffffffffffffffffffffffffffffffffff",
"ffffffffffffffffffffffffffffffffffffffffffffffffffffO5dddddddddddddddddddd5offffffffffffffffffffffffffffffffffffffffffffffffffff",
"fffffffffffffffffffffffffffffffffffff                 ,uddddddddddddddddy=                 fffffffffffffffffffffffffffffffffffff",
"fffffffffffffffffffffffffffffffffff X4eddddddddddddddd4$,rddddddddddddw:X4dddddddddddddddt>  fffffffffffffffffffffffffffffffffff",
"ffffffffffffffffffffffffffffffffff %pddddddddddddddddddi8$#10raddau71+@4sddddddddddddddddddi$ ffffffffffffffffffffffffffffffffff",
"ffffffffffffffffffffffffffffffffff pddddddddddddddddddddddt5;&X  X@;5eddddddddddddddddddddddiXffffffffffffffffffffffffffffffffff",
"fffffffffffffffffffffffffffffffff <dddddddddddddddddddddddddddddddddddddddddddddddddddddddddd3 fffffffffffffffffffffffffffffffff",
"fffffffffffffffffffffffffffffffff tdddddddddddddddddddddddddddddddddddddddddddddddddddddddddde fffffffffffffffffffffffffffffffff",
"fffffffffffffffffffffffffffffffff dddddddddddddddddddddddddddddddddddddddddddddddddddddddddddd fffffffffffffffffffffffffffffffff",
"fffffffffffffffffffffffffffffffff dddddddddddddddddddddddddddddddddddddddddddddddddddddddddddd fffffffffffffffffffffffffffffffff",
"fffffffffffffffffffffffffffffffff eddddddddddddddddddddddddddddddddddddddddddddddddddddddddddr fffffffffffffffffffffffffffffffff",
"fffffffffffffffffffffffffffffffff 3dddddddddddddddddddddddddddddddddddddddddddddddddddddddddd: fffffffffffffffffffffffffffffffff",
"ffffffffffffffffffffffffffffffffffXuddddddddddddddddddddddddddddddddddddddddddddddddddddddddy ffffffffffffffffffffffffffffffffff",
"ffffffffffffffffffffffffffffffffff #uddddddddddddddddddddddddddddddddddddddddddddddddddddddy@fffffffffffffffffffffffffffffffffff",
"fffffffffffffffffffffffffffffffffff  ,rddddddddddddddddddddddddddddddddddddddddddddddddddw3. fffffffffffffffffffffffffffffffffff",
"fffffffffffffffffffffffffffffffffffff                                                      fffffffffffffffffffffffffffffffffffff",
"ffffffffffffffffffffffffffffffffffffffffffffffffffffff-dddddddddddddddddd-ffffffffffffffffffffffffffffffffffffffffffffffffffffff",
"fffffffffffffffffffffffffffffffffffffffffffffffffffff 9dddddddddddddddddd5 fffffffffffffffffffffffffffffffffffffffffffffffffffff",
"fffffffffffffffffffffffffffffffffffffffffffffffffffff pdddddddddddddddddda fffffffffffffffffffffffffffffffffffffffffffffffffffff",
"fffffffffffffffffffffffffffffffffffffffffffffffffffff;dddddddddddddddddddd-fffffffffffffffffffffffffffffffffffffffffffffffffffff",
"ffffffffffffffffffffffffffffffffffffffffffffffffffff 9dddddddddddddddddddd8 ffffffffffffffffffffffffffffffffffffffffffffffffffff",
"ffffffffffffffffffffffffffffffffffffffffffffffffffffXaddddddddddddddddddddaXffffffffffffffffffffffffffffffffffffffffffffffffffff",
"ffffffffffffffffffffffffffffffffffffffffffffffffffff<dddddddddddddddddddddd:ffffffffffffffffffffffffffffffffffffffffffffffffffff",
"fffffffffffffffffffffffffffffffffffffffffffffffffff qdddddddddddddddddddddde fffffffffffffffffffffffffffffffffffffffffffffffffff",
"fffffffffffffffffffffffffffffffffffffffffffffffffff%ddddddddddddddddddddddddXfffffffffffffffffffffffffffffffffffffffffffffffffff",
"fffffffffffffffffffffffffffffffffffffffffffffffffff<dddddddddddddddddddddddd1fffffffffffffffffffffffffffffffffffffffffffffffffff",
"ffffffffffffffffffffffffffffffffffffffffffffffffff edddddddddddddddddddddddde ffffffffffffffffffffffffffffffffffffffffffffffffff",
"ffffffffffffffffffffffffffffffffffffffffffffffffff%ddddddddddddddddddddddddddXffffffffffffffffffffffffffffffffffffffffffffffffff",
"fffffffffffffffffffffffffffffffffffffffffffffffff <dddddddddddddddddddddddddd1ffffffffffffffffffffffffffffffffffffffffffffffffff",
"fffffffffffffffffffffffffffffffffffffffffffffffff tdddddddddddddddddddddddddde fffffffffffffffffffffffffffffffffffffffffffffffff",
"fffffffffffffffffffffffffffffffffffffffffffffffff%dddddddddddddddddddddddddddd@fffffffffffffffffffffffffffffffffffffffffffffffff",
"ffffffffffffffffffffffffffffffffffffffffffffffff 1dddddddddddddddddddddddddddd3 ffffffffffffffffffffffffffffffffffffffffffffffff",
"ffffffffffffffffffffffffffffffffffffffffffffffff pddddddddddddddddddddddddddddy ffffffffffffffffffffffffffffffffffffffffffffffff",
"ffffffffffffffffffffffffffffffffffffffffffffffff*dddddddddddddddddddddddddddddd-ffffffffffffffffffffffffffffffffffffffffffffffff",
"fffffffffffffffffffffffffffffffffffffffffffffff 9dddddddddddddddddddddddddddddd3 fffffffffffffffffffffffffffffffffffffffffffffff",
"fffffffffffffffffffffffffffffffffffffffffffffff pdddddddddddddddddddddddddddddda fffffffffffffffffffffffffffffffffffffffffffffff",
"fffffffffffffffffffffffffffffffffffffffffffffff-dddddddddddddddddddddddddddddddd-fffffffffffffffffffffffffffffffffffffffffffffff",
"ffffffffffffffffffffffffffffffffffffffffffffff 9dddddddddddddddddddddddddddddddd5 ffffffffffffffffffffffffffffffffffffffffffffff",
"ffffffffffffffffffffffffffffffffffffffffffffff%pddddddddddddddddddddddddddddddddaXffffffffffffffffffffffffffffffffffffffffffffff",
"fffffffffffffffffffffffffffffffffffffffffffff 9dddddddddddddddddddddddddddddddddd8 fffffffffffffffffffffffffffffffffffffffffffff",
"ffffffffffffffffffffffffffffffffffffffffffff 4dddddddddddddddddddddddddddddddddddd4 ffffffffffffffffffffffffffffffffffffffffffff",
"fffffffffffffffffffffffffffffffffffffffffff 4dddddddddddddddddddddddddddddddddddddd4 fffffffffffffffffffffffffffffffffffffffffff",
"ffffffffffffffffffffffffffffffffffffffffff 4dddddddddddddddddddddddddddddddddddddddd4 ffffffffffffffffffffffffffffffffffffffffff",
"fffffffffffffffffffffffffffffffffffffffff 4dddddddddddddddddddddddddddddddddddddddddd4 fffffffffffffffffffffffffffffffffffffffff",
"ffffffffffffffffffffffffffffffffffffffff 4dddddddddddddddddddddddddddddddddddddddddddd4 ffffffffffffffffffffffffffffffffffffffff",
"fffffffffffffffffffffffffffffffffffffff 4dddddddddddddddddddddddddddddddddddddddddddddd4 fffffffffffffffffffffffffffffffffffffff",
"ffffffffffffffffffffffffffffffffffffff 4dddddddddddddddddddddddddddddddddddddddddddddddd4 ffffffffffffffffffffffffffffffffffffff",
"fffffffffffffffffffffffffffffffffffff 4dddddddddddddddddddddddddddddddddddddddddddddddddd4 fffffffffffffffffffffffffffffffffffff",
"ffffffffffffffffffffffffffffffffffff 4dddddddddddddddddddddddddddddddddddddddddddddddddddd2 ffffffffffffffffffffffffffffffffffff",
"fffffffffffffffffffffffffffffffffff >dddddddddddddddddddddddddddddddddddddddddddddddddddddd> fffffffffffffffffffffffffffffffffff",
"ffffffffffffffffffffffffffffffffff >dddddddddddddddddddddddddddddddddddddddddddddddddddddddd> ffffffffffffffffffffffffffffffffff",
"fffffffffffffffffffffffffffffffff >dddddddddddddddddddddddddddddddddddddddddddddddddddddddddd> fffffffffffffffffffffffffffffffff",
"fffffffffffffffffffffffffffffffff%sddddddddddddddddddddddddddddddddddddddddddddddddddddddddddaXfffffffffffffffffffffffffffffffff",
"ffffffffffffffffffffffffffffffff 5dddddddddddddddddddddddddddddddddddddddddddddddddddddddddddd3 ffffffffffffffffffffffffffffffff",
"ffffffffffffffffffffffffffffffff eddddddddddddddddddddddddddddddddddddddddddddddddddddddddddddq ffffffffffffffffffffffffffffffff",
"ffffffffffffffffffffffffffffffff qddddddddddddddddddddddddddddddddddddddddddddddddddddddddddddw ffffffffffffffffffffffffffffffff",
"ffffffffffffffffffffffffffffffff 3dddddddddddddddddddddddddddddddddddddddddddddddddddddddddddd5 ffffffffffffffffffffffffffffffff",
"fffffffffffffffffffffffffffffffffXadddddddddddddddddddddddddddddddddddddddddddddddddddddddddda@fffffffffffffffffffffffffffffffff",
"fffffffffffffffffffffffffffffffff <dddddddddddddddddddddddddddddddddddddddddddddddddddddddddd: fffffffffffffffffffffffffffffffff",
"ffffffffffffffffffffffffffffffffff #0addddddddddddddddddddddddddddddddddddddddddddddddddddaw& ffffffffffffffffffffffffffffffffff",
"fffffffffffffffffffff                                                                                      fffffffffffffffffffff",
"fffffffffffffffffff X4eddddddddddddddddddddddddddddddddddddddddddddddddddddddddddddddddddddddddddddddddddt>  fffffffffffffffffff",
"ffffffffffffffffff %pddddddddddddddddddddddddddddddddddddddddddddddddddddddddddddddddddddddddddddddddddddddi$ ffffffffffffffffff",
"ffffffffffffffffff pddddddddddddddddddddddddddddddddddddddddddddddddddddddddddddddddddddddddddddddddddddddddiXffffffffffffffffff",
"fffffffffffffffff <dddddddddddddddddddddddddddddddddddddddddddddddddddddddddddddddddddddddddddddddddddddddddd3 fffffffffffffffff",
"fffffffffffffffff tdddddddddddddddddddddddddddddddddddddddddddddddddddddddddddddddddddddddddddddddddddddddddde fffffffffffffffff",
"fffffffffffffffff dddddddddddddddddddddddddddddddddddddddddddddddddddddddddddddddddddddddddddddddddddddddddddd fffffffffffffffff",
"fffffffffffffffff dddddddddddddddddddddddddddddddddddddddddddddddddddddddddddddddddddddddddddddddddddddddddddd fffffffffffffffff",
"fffffffffffffffff eddddddddddddddddddddddddddddddddddddddddddddddddddddddddddddddddddddddddddddddddddddddddddr fffffffffffffffff",
"fffffffffffffffff 3dddddddddddddddddddddddddddddddddddddddddddddddddddddddddddddddddddddddddddddddddddddddddd: fffffffffffffffff",
"ffffffffffffffffffXuddddddddddddddddddddddddddddddddddddddddddddddddddddddddddddddddddddddddddddddddddddddddy ffffffffffffffffff",
"ffffffffffffffffff #uddddddddddddddddddddddddddddddddddddddddddddddddddddddddddddddddddddddddddddddddddddddy@fffffffffffffffffff",
"fffffffffffffffffff  ,rddddddddddddddddddddddddddddddddddddddddddddddddddddddddddddddddddddddddddddddddddw3. fffffffffffffffffff",
"fffffffffffffffffffff                                                                                      fffffffffffffffffffff",
"ffffffffffffffffffffffffffffffffffffffffffffffffffffffffffffffffffffffffffffffffffffffffffffffffffffffffffffffffffffffffffffffff",
"ffffffffffffffffffffffffffffffffffffffffffffffffffffffffffffffffffffffffffffffffffffffffffffffffffffffffffffffffffffffffffffffff",
"ffffffffffffffffffffffffffffffffffffffffffffffffffffffffffffffffffffffffffffffffffffffffffffffffffffffffffffffffffffffffffffffff",
"ffffffffffffffffffffffffffffffffffffffffffffffffffffffffffffffffffffffffffffffffffffffffffffffffffffffffffffffffffffffffffffffff",
"ffffffffffffffffffffffffffffffffffffffffffffffffffffffffffffffffffffffffffffffffffffffffffffffffffffffffffffffffffffffffffffffff",
"ffffffffffffffffffffffffffffffffffffffffffffffffffffffffffffffffffffffffffffffffffffffffffffffffffffffffffffffffffffffffffffffff",
"ffffffffffffffffffffffffffffffffffffffffffffffffffffffffffffffffffffffffffffffffffffffffffffffffffffffffffffffffffffffffffffffff",
"ffffffffffffffffffffffffffffffffffffffffffffffffffffffffffffffffffffffffffffffffffffffffffffffffffffffffffffffffffffffffffffffff",
"ffffffffffffffffffffffffffffffffffffffffffffffffffffffffffffffffffffffffffffffffffffffffffffffffffffffffffffffffffffffffffffffff",
"ffffffffffffffffffffffffffffffffffffffffffffffffffffffffffffffffffffffffffffffffffffffffffffffffffffffffffffffffffffffffffffffff",
"ffffffffffffffffffffffffffffffffffffffffffffffffffffffffffffffffffffffffffffffffffffffffffffffffffffffffffffffffffffffffffffffff"
};
