/* XPM */
static char *result[] = {
/* columns rows colors chars-per-pixel */
"128 128 38 1 ",
"  c black",
". c #0F0E0E",
"X c #0F0F0E",
"o c #100F0F",
"O c #10100F",
"+ c #1E1D1C",
"@ c #1E1D1D",
"# c #1E1E1C",
"$ c #1E1E1D",
"% c #2D2C2B",
"& c #2D2D2B",
"* c #3B3B39",
"= c #595855",
"- c #5A5955",
"; c #595856",
": c #595956",
"> c #5A5956",
", c #686764",
"< c #696864",
"1 c #777672",
"2 c #787772",
"3 c #868580",
"4 c #95948E",
"5 c #95948F",
"6 c #96958F",
"7 c #A4A39D",
"8 c #B3B1AB",
"9 c #B3B2AB",
"0 c #C2C0B9",
"q c #C2C1B9",
"w c #D1CFC7",
"e c #D1CFC8",
"r c #D1D0C7",
"t c #D1D0C8",
"y c #E0DED6",
"u c #E0DFD6",
"i c #EFEDE4",
"p c None",
/* pixels */
"pppppppppppppppppppppppppppppppppppppppppppppppppppppppppppppppppppppppppppppppppppppppppppppppppppppppppppppppppppppppppppppppp",
"pppppppppppppppppppppppppppppppppppppppppppppppppppppppppppppppppppppppppppppppppppppppppppppppppppppppppppppppppppppppppppppppp",
"ppppppppppppppppppppppppppppppppppppppppppppppppppppppppppppppp  ppppppppppppppppppppppppppppppppppppppppppppppppppppppppppppppp",
"pppppppppppppppppppppppppppppppppppppppppppppppppppppppppppppp tr pppppppppppppppppppppppppppppppppppppppppppppppppppppppppppppp",
"pppppppppppppppppppppppppppppppppppppppppppppppppppppppppppppp ii pppppppppppppppppppppppppppppppppppppppppppppppppppppppppppppp",
"pppppppppppppppppppppppppppppppppppppppppppppppppppppppppppppp ii pppppppppppppppppppppppppppppppppppppppppppppppppppppppppppppp",
"pppppppppppppppppppppppppppppppppppppppppppppppppppppppppppppp ii pppppppppppppppppppppppppppppppppppppppppppppppppppppppppppppp",
"pppppppppppppppppppppppppppppppppppppppppppppppppppppppppppppp ii pppppppppppppppppppppppppppppppppppppppppppppppppppppppppppppp",
"pppppppppppppppppppppppppppppppppppppppppppppppppppppppppppppp ii pppppppppppppppppppppppppppppppppppppppppppppppppppppppppppppp",
"pppppppppppppppppppppppppppppppppppppppppppppppppppppppppppppp$iiXpppppppppppppppppppppppppppppppppppppppppppppppppppppppppppppp",
"ppppppppppppppppppppppppppppppppppppppppppppppppppppppp      X6ii4#      ppppppppppppppppppppppppppppppppppppppppppppppppppppppp",
"pppppppppppppppppppppppppppppppppppppppppppppppppppppp tiiiiiiiiiiiiiiiir pppppppppppppppppppppppppppppppppppppppppppppppppppppp",
"pppppppppppppppppppppppppppppppppppppppppppppppppppppp eiiiiiiiiiiiiiiiiw pppppppppppppppppppppppppppppppppppppppppppppppppppppp",
"ppppppppppppppppppppppppppppppppppppppppppppppppppppppp      @5ii5.      ppppppppppppppppppppppppppppppppppppppppppppppppppppppp",
"ppppppppppppppppppppppppppppppppppppppppppppppppppppppppppppppXii+pppppppppppppppppppppppppppppppppppppppppppppppppppppppppppppp",
"pppppppppppppppppppppppppppppppppppppppppppppppppppppppppppppp ii pppppppppppppppppppppppppppppppppppppppppppppppppppppppppppppp",
"pppppppppppppppppppppppppppppppppppppppppppppppppppppppppppppp ii pppppppppppppppppppppppppppppppppppppppppppppppppppppppppppppp",
"pppppppppppppppppppppppppppppppppppppppppppppppppppppppppppppp ii pppppppppppppppppppppppppppppppppppppppppppppppppppppppppppppp",
"pppppppppppppppppppppppppppppppppppppppppppppppppppppppppppppp ii pppppppppppppppppppppppppppppppppppppppppppppppppppppppppppppp",
"pppppppppppppppppppppppppppppppppppppppppppppppppppppppppppppp ii pppppppppppppppppppppppppppppppppppppppppppppppppppppppppppppp",
"pppppppppppppppppppppppppppppppppppppppppppppppppppppppppppppp ii pppppppppppppppppppppppppppppppppppppppppppppppppppppppppppppp",
"pppppppppppppppppppppppppppppppppppppppppppppppppppppppppppppp ii pppppppppppppppppppppppppppppppppppppppppppppppppppppppppppppp",
"pppppppppppppppppppppppppppppppppppppppppppppppppppppppppppppp ii pppppppppppppppppppppppppppppppppppppppppppppppppppppppppppppp",
"pppppppppppppppppppppppppppppppppppppppppppppppppppppppppppppp ii pppppppppppppppppppppppppppppppppppppppppppppppppppppppppppppp",
"pppppppppppppppppppppppppppppppppppppppppppppppppppppppppppppp ii pppppppppppppppppppppppppppppppppppppppppppppppppppppppppppppp",
"pppppppppppppppppppppppppppppppppppppppppp                                            pppppppppppppppppppppppppppppppppppppppppp",
"pppppppppppppppppppppppppppppppppppppppppO29iiiiiiiiiiiiiiiiiiiiiiiiiiiiiiiiiiiiiiiiq- ppppppppppppppppppppppppppppppppppppppppp",
"pppppppppppppppppppppppppppppppppppppppp$tiiiiiiiiiiiiiiiiiiiiiiiiiiiiiiiiiiiiiiiiiiiir#pppppppppppppppppppppppppppppppppppppppp",
"ppppppppppppppppppppppppppppppppppppppp tiiiiiiiiiiiiiiiiiiiiiiiiiiiiiiiiiiiiiiiiiiiiiirOppppppppppppppppppppppppppppppppppppppp",
"pppppppppppppppppppppppppppppppppppppp >iiiiiiiiiiiiiiiiiiiiiiiiiiiiiiiiiiiiiiiiiiiiiiii1ppppppppppppppppppppppppppppppppppppppp",
"pppppppppppppppppppppppppppppppppppppp qiiiiiiiiiiiiiiiiiiiiiiiiiiiiiiiiiiiiiiiiiiiiiiii9 pppppppppppppppppppppppppppppppppppppp",
"pppppppppppppppppppppppppppppppppppppp iiiiiiiiiiiiiiiiiiiiiiiiiiiiiiiiiiiiiiiiiiiiiiiiii pppppppppppppppppppppppppppppppppppppp",
"pppppppppppppppppppppppppppppppppppppp iiiiiiiiiiiiiiiiiiiiiiiiiiiiiiiiiiiiiiiiiiiiiiiiii pppppppppppppppppppppppppppppppppppppp",
"pppppppppppppppppppppppppppppppppppppp 9iiiiiiiiiiiiiiiiiiiiiiiiiiiiiiiiiiiiiiiiiiiiiiii0 pppppppppppppppppppppppppppppppppppppp",
"ppppppppppppppppppppppppppppppppppppppp1iiiiiiiiiiiiiiiiiiiiiiiiiiiiiiiiiiiiiiiiiiiiiiii= pppppppppppppppppppppppppppppppppppppp",
"pppppppppppppppppppppppppppppppppppppppOeiiiiiiiiiiiiiiiiiiiiiiiiiiiiiiiiiiiiiiiiiiiiiiw ppppppppppppppppppppppppppppppppppppppp",
"pppppppppppppppppppppppppppppppppppppppp@eiiiiiiiiiiiiiiiiiiiiiiiiiiiiiiiiiiiiiiiiiiiiw+pppppppppppppppppppppppppppppppppppppppp",
"ppppppppppppppppppppppppppppppppppppppppp ;0iiiiiiiiiiiiiiiiiiiiiiiiiiiiiiiiiiiiiiii81oppppppppppppppppppppppppppppppppppppppppp",
"pppppppppppppppppppppppppppppppppppppppppp                                           ppppppppppppppppppppppppppppppppppppppppppp",
"pppppppppppppppppppppppppppppppppppppppppppppppppp >9uiiiiiiiiiiiiiiiiiiiiu9- pppppppppppppppppppppppppppppppppppppppppppppppppp",
"ppppppppppppppppppppppppppppppppppppppppppppppppp$9iiiiiiiiiiiiiiiiiiiiiiiiiiq#ppppppppppppppppppppppppppppppppppppppppppppppppp",
"pppppppppppppppppppppppppppppppppppppppppppppppp$tiiiiiiiiiiiiiiiiiiiiiiiiiiiirXpppppppppppppppppppppppppppppppppppppppppppppppp",
"ppppppppppppppppppppppppppppppppppppppppppppppp 5iiiiiiiiiiiiiiiiiiiiiiiiiiiiii3 ppppppppppppppppppppppppppppppppppppppppppppppp",
"ppppppppppppppppppppppppppppppppppppppppppppppp$iiiiiiiiiiiiiiiiiiiiiiiiiiiiiiiiXppppppppppppppppppppppppppppppppppppppppppppppp",
"ppppppppppppppppppppppppppppppppppppppppppppppp>iiiiiiiiiiiiiiiiiiiiiiiiiiiiiiii=ppppppppppppppppppppppppppppppppppppppppppppppp",
"ppppppppppppppppppppppppppppppppppppppppppppppp1iiiiiiiiiiiiiiiiiiiiiiiiiiiiiiii1ppppppppppppppppppppppppppppppppppppppppppppppp",
"ppppppppppppppppppppppppppppppppppppppppppppppp1iiiiiiiiiiiiiiiiiiiiiiiiiiiiiiii1ppppppppppppppppppppppppppppppppppppppppppppppp",
"ppppppppppppppppppppppppppppppppppppppppppppppp:iiiiiiiiiiiiiiiiiiiiiiiiiiiiiiii,ppppppppppppppppppppppppppppppppppppppppppppppp",
"ppppppppppppppppppppppppppppppppppppppppppppppp&iiiiiiiiiiiiiiiiiiiiiiiiiiiiiiii*ppppppppppppppppppppppppppppppppppppppppppppppp",
"ppppppppppppppppppppppppppppppppppp                                                          ppppppppppppppppppppppppppppppppppp",
"ppppppppppppppppppppppppppppppppppO29iiiiiiiiiiiiiiiiiiiiiiiiiiiiiiiiiiiiiiiiiiiiiiiiiiiiiiq- pppppppppppppppppppppppppppppppppp",
"ppppppppppppppppppppppppppppppppp$tiiiiiiiiiiiiiiiiiiiiiiiiiiiiiiiiiiiiiiiiiiiiiiiiiiiiiiiiiir#ppppppppppppppppppppppppppppppppp",
"pppppppppppppppppppppppppppppppp tiiiiiiiiiiiiiiiiiiiiiiiiiiiiiiiiiiiiiiiiiiiiiiiiiiiiiiiiiiiirOpppppppppppppppppppppppppppppppp",
"ppppppppppppppppppppppppppppppp >iiiiiiiiiiiiiiiiiiiiiiiiiiiiiiiiiiiiiiiiiiiiiiiiiiiiiiiiiiiiii1pppppppppppppppppppppppppppppppp",
"ppppppppppppppppppppppppppppppp qiiiiiiiiiiiiiiiiiiiiiiiiiiiiiiiiiiiiiiiiiiiiiiiiiiiiiiiiiiiiii9 ppppppppppppppppppppppppppppppp",
"ppppppppppppppppppppppppppppppp iiiiiiiiiiiiiiiiiiiiiiiiiiiiiiiiiiiiiiiiiiiiiiiiiiiiiiiiiiiiiiii ppppppppppppppppppppppppppppppp",
"ppppppppppppppppppppppppppppppp iiiiiiiiiiiiiiiiiiiiiiiiiiiiiiiiiiiiiiiiiiiiiiiiiiiiiiiiiiiiiiii ppppppppppppppppppppppppppppppp",
"ppppppppppppppppppppppppppppppp 9iiiiiiiiiiiiiiiiiiiiiiiiiiiiiiiiiiiiiiiiiiiiiiiiiiiiiiiiiiiiii0 ppppppppppppppppppppppppppppppp",
"pppppppppppppppppppppppppppppppp1iiiiiiiiiiiiiiiiiiiiiiiiiiiiiiiiiiiiiiiiiiiiiiiiiiiiiiiiiiiiii= ppppppppppppppppppppppppppppppp",
"ppppppppppppppppppppppppppppppppOeiiiiiiiiiiiiiiiiiiiiiiiiiiiiiiiiiiiiiiiiiiiiiiiiiiiiiiiiiiiiw pppppppppppppppppppppppppppppppp",
"ppppppppppppppppppppppppppppppppp@eiiiiiiiiiiiiiiiiiiiiiiiiiiiiiiiiiiiiiiiiiiiiiiiiiiiiiiiiiiw+ppppppppppppppppppppppppppppppppp",
"pppppppppppppppppppppppppppppppppp ;0iiiiiiiiiiiiiiiiiiiiiiiiiiiiiiiiiiiiiiiiiiiiiiiiiiiiii81opppppppppppppppppppppppppppppppppp",
"ppppppppppppppppppppppppppppppppppp                                                         pppppppppppppppppppppppppppppppppppp",
"ppppppppppppppppppppppppppppppppppppppppppppppppp 7iiiiiiiiiiiiiiiiiiiiiiiiii8 ppppppppppppppppppppppppppppppppppppppppppppppppp",
"ppppppppppppppppppppppppppppppppppppppppppppppppp 3iiiiiiiiiiiiiiiiiiiiiiiiii3 ppppppppppppppppppppppppppppppppppppppppppppppppp",
"pppppppppppppppppppppppppppppppppppppppppppppppppp:iiiiiiiiiiiiiiiiiiiiiiiiii,pppppppppppppppppppppppppppppppppppppppppppppppppp",
"pppppppppppppppppppppppppppppppppppppppppppppppppp&iiiiiiiiiiiiiiiiiiiiiiiiii*pppppppppppppppppppppppppppppppppppppppppppppppppp",
"ppppppppppppppppppppppppppppppppppppppppppppppppppXiiiiiiiiiiiiiiiiiiiiiiiiiiXpppppppppppppppppppppppppppppppppppppppppppppppppp",
"pppppppppppppppppppppppppppppppppppppppppppppppppp eiiiiiiiiiiiiiiiiiiiiiiiiy pppppppppppppppppppppppppppppppppppppppppppppppppp",
"pppppppppppppppppppppppppppppppppppppppppppppppppp 7iiiiiiiiiiiiiiiiiiiiiiii8 pppppppppppppppppppppppppppppppppppppppppppppppppp",
"pppppppppppppppppppppppppppppppppppppppppppppppppp 3iiiiiiiiiiiiiiiiiiiiiiii3 pppppppppppppppppppppppppppppppppppppppppppppppppp",
"ppppppppppppppppppppppppppppppppppppppppppppppppppp1iiiiiiiiiiiiiiiiiiiiiiii1ppppppppppppppppppppppppppppppppppppppppppppppppppp",
"pppppppppppppppppppppppppppppppppppppppppppppppppp 3iiiiiiiiiiiiiiiiiiiiiiii4 pppppppppppppppppppppppppppppppppppppppppppppppppp",
"pppppppppppppppppppppppppppppppppppppppppppppppppp 9iiiiiiiiiiiiiiiiiiiiiiii0 pppppppppppppppppppppppppppppppppppppppppppppppppp",
"pppppppppppppppppppppppppppppppppppppppppppppppppp$iiiiiiiiiiiiiiiiiiiiiiiiiiXpppppppppppppppppppppppppppppppppppppppppppppppppp",
"ppppppppppppppppppppppppppppppppppppppppppppppppp >iiiiiiiiiiiiiiiiiiiiiiiiii1 ppppppppppppppppppppppppppppppppppppppppppppppppp",
"ppppppppppppppppppppppppppppppppppppppppppppppppp$tiiiiiiiiiiiiiiiiiiiiiiiiiiy#ppppppppppppppppppppppppppppppppppppppppppppppppp",
"ppppppppppppppppppppppppppppppppppppppppppppppppOqiiiiiiiiiiiiiiiiiiiiiiiiiiiirXpppppppppppppppppppppppppppppppppppppppppppppppp",
"ppppppppppppppppppppppppppppppppppppppppppppppp 6iiiiiiiiiiiiiiiiiiiiiiiiiiiiiiqOppppppppppppppppppppppppppppppppppppppppppppppp",
"pppppppppppppppppppppppppppppppppppppppppppppp 2iiiiiiiiiiiiiiiiiiiiiiiiiiiiiiiiq pppppppppppppppppppppppppppppppppppppppppppppp",
"ppppppppppppppppppppppppppppppppppppppppppppp 2iiiiiiiiiiiiiiiiiiiiiiiiiiiiiiiiii4 ppppppppppppppppppppppppppppppppppppppppppppp",
"pppppppppppppppppppppppppppppppppppppppppppp 2iiiiiiiiiiiiiiiiiiiiiiiiiiiiiiiiiiii4 pppppppppppppppppppppppppppppppppppppppppppp",
"ppppppppppppppppppppppppppppppppppppppppppp -iiiiiiiiiiiiiiiiiiiiiiiiiiiiiiiiiiiiii2 ppppppppppppppppppppppppppppppppppppppppppp",
"pppppppppppppppppppppppppppppppppppppppppp &uiiiiiiiiiiiiiiiiiiiiiiiiiiiiiiiiiiiiiii2 pppppppppppppppppppppppppppppppppppppppppp",
"ppppppppppppppppppppppppppppppppppppppppp $tiiiiiiiiiiiiiiiiiiiiiiiiiiiiiiiiiiiiiiiii2 ppppppppppppppppppppppppppppppppppppppppp",
"ppppppppppppppppppppppppppppppppppppppppp$tiiiiiiiiiiiiiiiiiiiiiiiiiiiiiiiiiiiiiiiiiii- pppppppppppppppppppppppppppppppppppppppp",
"pppppppppppppppppppppppppppppppppppppppp$tiiiiiiiiiiiiiiiiiiiiiiiiiiiiiiiiiiiiiiiiiiiii- ppppppppppppppppppppppppppppppppppppppp",
"pppppppppppppppppppppppppppppppppppppppOqiiiiiiiiiiiiiiiiiiiiiiiiiiiiiiiiiiiiiiiiiiiiiii% pppppppppppppppppppppppppppppppppppppp",
"pppppppppppppppppppppppppppppppppppppp 6iiiiiiiiiiiiiiiiiiiiiiiiiiiiiiiiiiiiiiiiiiiiiiiiy% ppppppppppppppppppppppppppppppppppppp",
"ppppppppppppppppppppppppppppppppppppp 2iiiiiiiiiiiiiiiiiiiiiiiiiiiiiiiiiiiiiiiiiiiiiiiiiiy# pppppppppppppppppppppppppppppppppppp",
"pppppppppppppppppppppppppppppppppppp 2iiiiiiiiiiiiiiiiiiiiiiiiiiiiiiiiiiiiiiiiiiiiiiiiiiiir#pppppppppppppppppppppppppppppppppppp",
"ppppppppppppppppppppppppppppppppppp <iiiiiiiiiiiiiiiiiiiiiiiiiiiiiiiiiiiiiiiiiiiiiiiiiiiiiirXppppppppppppppppppppppppppppppppppp",
"ppppppppppppppppppppppppppppppppppp$iiiiiiiiiiiiiiiiiiiiiiiiiiiiiiiiiiiiiiiiiiiiiiiiiiiiiiii7 pppppppppppppppppppppppppppppppppp",
"pppppppppppppppppppppppppppppppppp 5iiiiiiiiiiiiiiiiiiiiiiiiiiiiiiiiiiiiiiiiiiiiiiiiiiiiiiiii+pppppppppppppppppppppppppppppppppp",
"pppppppppppppppppppppppppppppppppp tiiiiiiiiiiiiiiiiiiiiiiiiiiiiiiiiiiiiiiiiiiiiiiiiiiiiiiiii,pppppppppppppppppppppppppppppppppp",
"pppppppppppppppppppppppppppppppppp iiiiiiiiiiiiiiiiiiiiiiiiiiiiiiiiiiiiiiiiiiiiiiiiiiiiiiiiii4 ppppppppppppppppppppppppppppppppp",
"pppppppppppppppppppppppppppppppppp iiiiiiiiiiiiiiiiiiiiiiiiiiiiiiiiiiiiiiiiiiiiiiiiiiiiiiiiii3 ppppppppppppppppppppppppppppppppp",
"pppppppppppppppppppppppppppppppppp eiiiiiiiiiiiiiiiiiiiiiiiiiiiiiiiiiiiiiiiiiiiiiiiiiiiiiiiii,pppppppppppppppppppppppppppppppppp",
"pppppppppppppppppppppppppppppppppp 3iiiiiiiiiiiiiiiiiiiiiiiiiiiiiiiiiiiiiiiiiiiiiiiiiiiiiiiii+pppppppppppppppppppppppppppppppppp",
"ppppppppppppppppppppppppppppppppppp@yiiiiiiiiiiiiiiiiiiiiiiiiiiiiiiiiiiiiiiiiiiiiiiiiiiiiiii4 pppppppppppppppppppppppppppppppppp",
"ppppppppppppppppppppppppppppppppppp ,iiiiiiiiiiiiiiiiiiiiiiiiiiiiiiiiiiiiiiiiiiiiiiiiiiiiiiw+ppppppppppppppppppppppppppppppppppp",
"pppppppppppppppppppppppppppppppppppp 1iiiiiiiiiiiiiiiiiiiiiiiiiiiiiiiiiiiiiiiiiiiiiiiiiiii0+pppppppppppppppppppppppppppppppppppp",
"ppppppppppppppppppppppppppppppppppppp @50iiiiiiiiiiiiiiiiiiiiiiiiiiiiiiiiiiiiiiiiiiiiiiy8= ppppppppppppppppppppppppppppppppppppp",
"ppppppppppppppppppppp                                                                                      ppppppppppppppppppppp",
"ppppppppppppppppppp X29iiiiiiiiiiiiiiiiiiiiiiiiiiiiiiiiiiiiiiiiiiiiiiiiiiiiiiiiiiiiiiiiiiiiiiiiiiiiiiiiiiq-  ppppppppppppppppppp",
"pppppppppppppppppp $tiiiiiiiiiiiiiiiiiiiiiiiiiiiiiiiiiiiiiiiiiiiiiiiiiiiiiiiiiiiiiiiiiiiiiiiiiiiiiiiiiiiiiir# pppppppppppppppppp",
"pppppppppppppppppp tiiiiiiiiiiiiiiiiiiiiiiiiiiiiiiiiiiiiiiiiiiiiiiiiiiiiiiiiiiiiiiiiiiiiiiiiiiiiiiiiiiiiiiiirXpppppppppppppppppp",
"ppppppppppppppppp >iiiiiiiiiiiiiiiiiiiiiiiiiiiiiiiiiiiiiiiiiiiiiiiiiiiiiiiiiiiiiiiiiiiiiiiiiiiiiiiiiiiiiiiiii1 ppppppppppppppppp",
"ppppppppppppppppp qiiiiiiiiiiiiiiiiiiiiiiiiiiiiiiiiiiiiiiiiiiiiiiiiiiiiiiiiiiiiiiiiiiiiiiiiiiiiiiiiiiiiiiiiii9 ppppppppppppppppp",
"ppppppppppppppppp iiiiiiiiiiiiiiiiiiiiiiiiiiiiiiiiiiiiiiiiiiiiiiiiiiiiiiiiiiiiiiiiiiiiiiiiiiiiiiiiiiiiiiiiiiii ppppppppppppppppp",
"ppppppppppppppppp iiiiiiiiiiiiiiiiiiiiiiiiiiiiiiiiiiiiiiiiiiiiiiiiiiiiiiiiiiiiiiiiiiiiiiiiiiiiiiiiiiiiiiiiiiii ppppppppppppppppp",
"ppppppppppppppppp 9iiiiiiiiiiiiiiiiiiiiiiiiiiiiiiiiiiiiiiiiiiiiiiiiiiiiiiiiiiiiiiiiiiiiiiiiiiiiiiiiiiiiiiiiii0 ppppppppppppppppp",
"ppppppppppppppppp 1iiiiiiiiiiiiiiiiiiiiiiiiiiiiiiiiiiiiiiiiiiiiiiiiiiiiiiiiiiiiiiiiiiiiiiiiiiiiiiiiiiiiiiiiii= ppppppppppppppppp",
"ppppppppppppppppppXeiiiiiiiiiiiiiiiiiiiiiiiiiiiiiiiiiiiiiiiiiiiiiiiiiiiiiiiiiiiiiiiiiiiiiiiiiiiiiiiiiiiiiiiiw pppppppppppppppppp",
"pppppppppppppppppp @eiiiiiiiiiiiiiiiiiiiiiiiiiiiiiiiiiiiiiiiiiiiiiiiiiiiiiiiiiiiiiiiiiiiiiiiiiiiiiiiiiiiiiiw+ppppppppppppppppppp",
"ppppppppppppppppppp  ;0iiiiiiiiiiiiiiiiiiiiiiiiiiiiiiiiiiiiiiiiiiiiiiiiiiiiiiiiiiiiiiiiiiiiiiiiiiiiiiiiii81. ppppppppppppppppppp",
"ppppppppppppppppppppp                                                                                      ppppppppppppppppppppp",
"pppppppppppppppppppppppppppppppppppppppppppppppppppppppppppppppppppppppppppppppppppppppppppppppppppppppppppppppppppppppppppppppp",
"pppppppppppppppppppppppppppppppppppppppppppppppppppppppppppppppppppppppppppppppppppppppppppppppppppppppppppppppppppppppppppppppp",
"pppppppppppppppppppppppppppppppppppppppppppppppppppppppppppppppppppppppppppppppppppppppppppppppppppppppppppppppppppppppppppppppp",
"pppppppppppppppppppppppppppppppppppppppppppppppppppppppppppppppppppppppppppppppppppppppppppppppppppppppppppppppppppppppppppppppp",
"pppppppppppppppppppppppppppppppppppppppppppppppppppppppppppppppppppppppppppppppppppppppppppppppppppppppppppppppppppppppppppppppp",
"pppppppppppppppppppppppppppppppppppppppppppppppppppppppppppppppppppppppppppppppppppppppppppppppppppppppppppppppppppppppppppppppp",
"pppppppppppppppppppppppppppppppppppppppppppppppppppppppppppppppppppppppppppppppppppppppppppppppppppppppppppppppppppppppppppppppp",
"pppppppppppppppppppppppppppppppppppppppppppppppppppppppppppppppppppppppppppppppppppppppppppppppppppppppppppppppppppppppppppppppp",
"pppppppppppppppppppppppppppppppppppppppppppppppppppppppppppppppppppppppppppppppppppppppppppppppppppppppppppppppppppppppppppppppp",
"pppppppppppppppppppppppppppppppppppppppppppppppppppppppppppppppppppppppppppppppppppppppppppppppppppppppppppppppppppppppppppppppp",
"pppppppppppppppppppppppppppppppppppppppppppppppppppppppppppppppppppppppppppppppppppppppppppppppppppppppppppppppppppppppppppppppp"
};
