/* XPM */
static char *result[] = {
/* columns rows colors chars-per-pixel */
"128 128 38 1 ",
"  c black",
". c #0F0E0E",
"X c #0F0F0E",
"o c #1E1D1C",
"O c #1E1D1D",
"+ c #1E1E1C",
"@ c #1E1E1D",
"# c #2D2C2B",
"$ c #2D2D2B",
"% c #3B3B39",
"& c #3C3B39",
"* c #4A4947",
"= c #4B4A47",
"- c #595855",
"; c #5A5955",
": c #595856",
"> c #595956",
", c #5A5956",
"< c #686764",
"1 c #777672",
"2 c #787772",
"3 c #868580",
"4 c #878680",
"5 c #95948E",
"6 c #95948F",
"7 c #A4A39D",
"8 c #B3B1AB",
"9 c #B3B2AB",
"0 c #C2C0B9",
"q c #C2C1B9",
"w c #D1CFC7",
"e c #D1CFC8",
"r c #D1D0C7",
"t c #D1D0C8",
"y c #E0DED6",
"u c #E0DFD6",
"i c #EFEDE4",
"p c None",
/* pixels */
"pppppppppppppppppppppppppppppppppppppppppppppppppppppppppppppppppppppppppppppppppppppppppppppppppppppppppppppppppppppppppppppppp",
"pppppppppppppppppppppppppppppppppppppppppppppppppppppppppppppppppppppppppppppppppppppppppppppppppppppppppppppppppppppppppppppppp",
"pppppppppppppppppppppppppppppppppppppppppppppppppppppppppppppppppppppppppppppppppppppppppppppppppppppppppppppppppppppppppppppppp",
"pppppppppppppppppppppppppppppppppppppppppppppppppppppppppppppppppppppppppppppppppppppppppppppppppppppppppppppppppppppppppppppppp",
"pppppppppppppppppppppppppppppppppppppppppppppppppppppppppppppppppppppppppppppppppppppppppppppppppppppppppppppppppppppppppppppppp",
"pppppppppppppppppppppppppppppppppppppppppppppppppppppppppppppppppppppppppppppppppppppppppppppppppppppppppppppppppppppppppppppppp",
"pppppppppppppppppppppppppppppppppppppppppppppppppppppppppppppppppppppppppppppppppppppppppppppppppppppppppppppppppppppppppppppppp",
"pppppppppppppppppppppppppppppppppppppppppppppppppppppppppppppppppppppppppppppppppppppppppppppppppppppppppppppppppppppppppppppppp",
"pppppppppppppppppppppppppppppppppppppppppppppppppppppppppppppppppppppppppppppppppppppppppppppppppppppppppppppppppppppppppppppppp",
"pppppppppppppppppppppppppppppppppppppppppppppppppppppppppppppppppppppppppppppppppppppppppppppppppppppppppppppppppppppppppppppppp",
"pppppppppppppppppppppppppppppppppppppppppppppppppppppppppppppppppppppppppppppppppppppppppppppppppppppppppppppppppppppppppppppppp",
"pppppppppppppppppppppppppppppppppppppppppppppppppppppppppppppppppppppppppppppppppppppppppppppppppppppppppppppppppppppppppppppppp",
"pppppppppppppppppppppppppppppppppppppppppppppppppppppppppppppppppppppppppppppppppppppppppppppppppppppppppppppppppppppppppppppppp",
"pppppppppppppppppppppppppppppppppppppppppppppppppppppppppppppppppppppppppppppppppppppppppppppppppppppppppppppppppppppppppppppppp",
"pppppppppppppppppppppppppppppppppppppppppppppppppppppppppppppppppppppppppppppppppppppppppppppppppppppppppppppppppppppppppppppppp",
"pppppppppppppppppppppppppppppppppppppppppppppppppppppppppppppppppppppppppppppppppppppppppppppppppppppppppppppppppppppppppppppppp",
"pppppppppppppppppppppppppppppppppppppppppppppppppppppppppppppppppppppppppppppppppppppppppppppppppppppppppppppppppppppppppppppppp",
"pppppppppppppppppppppppppppppppppp            pppppppppppp            pppppppppppp            pppppppppppppppppppppppppppppppppp",
"ppppppppppppppppppppppppppppppppp 2uiiiiiiiiu3 pppppppppp 2uiiiiiiiiu3 pppppppppp 2uiiiiiiiiu3 ppppppppppppppppppppppppppppppppp",
"pppppppppppppppppppppppppppppppp 4iiiiiiiiiiii1 pppppppp 4iiiiiiiiiiii1 pppppppp 4iiiiiiiiiiii1 pppppppppppppppppppppppppppppppp",
"pppppppppppppppppppppppppppppppp yiiiiiiiiiiiiy pppppppp yiiiiiiiiiiiiy pppppppp yiiiiiiiiiiiiy pppppppppppppppppppppppppppppppp",
"pppppppppppppppppppppppppppppppp iiiiiiiiiiiiii pppppppp iiiiiiiiiiiiii pppppppp iiiiiiiiiiiiii pppppppppppppppppppppppppppppppp",
"pppppppppppppppppppppppppppppppp iiiiiiiiiiiiii pppppppp iiiiiiiiiiiiii pppppppp iiiiiiiiiiiiii pppppppppppppppppppppppppppppppp",
"pppppppppppppppppppppppppppppppp iiiiiiiiiiiiii pppppppp iiiiiiiiiiiiii pppppppp iiiiiiiiiiiiii pppppppppppppppppppppppppppppppp",
"pppppppppppppppppppppppppppppppp iiiiiiiiiiiiii pppppppp iiiiiiiiiiiiii pppppppp iiiiiiiiiiiiii pppppppppppppppppppppppppppppppp",
"pppppppppppppppppppppppppppppppp iiiiiiiiiiiiii pppppppp iiiiiiiiiiiiii pppppppp iiiiiiiiiiiiii pppppppppppppppppppppppppppppppp",
"pppppppppppppppppppppppppppppppp iiiiiiiiiiiiii pppppppp iiiiiiiiiiiiii pppppppp iiiiiiiiiiiiii pppppppppppppppppppppppppppppppp",
"pppppppppppppppppppppppppppppppp iiiiiiiiiiiiii pppppppp iiiiiiiiiiiiii pppppppp iiiiiiiiiiiiii pppppppppppppppppppppppppppppppp",
"pppppppppppppppppppppppppppppppp iiiiiiiiiiiiii pppppppp iiiiiiiiiiiiii pppppppp iiiiiiiiiiiiii pppppppppppppppppppppppppppppppp",
"pppppppppppppppppppppppppppppppp iiiiiiiiiiiiii pppppppp iiiiiiiiiiiiii pppppppp iiiiiiiiiiiiii pppppppppppppppppppppppppppppppp",
"pppppppppppppppppppppppppppppppp iiiiiiiiiiiiii pppppppp iiiiiiiiiiiiii pppppppp iiiiiiiiiiiiii pppppppppppppppppppppppppppppppp",
"pppppppppppppppppppppppppppppppp iiiiiiiiiiiiii pppppppp iiiiiiiiiiiiii pppppppp iiiiiiiiiiiiii pppppppppppppppppppppppppppppppp",
"ppppppppppppppppppppppppppppp                                                                      ppppppppppppppppppppppppppppp",
"ppppppppppppppppppppppppppp X29iiiiiiiiiiiiiiiiiiiiiiiiiiiiiiiiiiiiiiiiiiiiiiiiiiiiiiiiiiiiiiiiiiq;  ppppppppppppppppppppppppppp",
"pppppppppppppppppppppppppp @tiiiiiiiiiiiiiiiiiiiiiiiiiiiiiiiiiiiiiiiiiiiiiiiiiiiiiiiiiiiiiiiiiiiiiir+ pppppppppppppppppppppppppp",
"pppppppppppppppppppppppppp tiiiiiiiiiiiiiiiiiiiiiiiiiiiiiiiiiiiiiiiiiiiiiiiiiiiiiiiiiiiiiiiiiiiiiiiirXpppppppppppppppppppppppppp",
"ppppppppppppppppppppppppp ,iiiiiiiiiiiiiiiiiiiiiiiiiiiiiiiiiiiiiiiiiiiiiiiiiiiiiiiiiiiiiiiiiiiiiiiiii1 ppppppppppppppppppppppppp",
"ppppppppppppppppppppppppp qiiiiiiiiiiiiiiiiiiiiiiiiiiiiiiiiiiiiiiiiiiiiiiiiiiiiiiiiiiiiiiiiiiiiiiiiii9 ppppppppppppppppppppppppp",
"ppppppppppppppppppppppppp iiiiiiiiiiiiiiiiiiiiiiiiiiiiiiiiiiiiiiiiiiiiiiiiiiiiiiiiiiiiiiiiiiiiiiiiiiii ppppppppppppppppppppppppp",
"ppppppppppppppppppppppppp iiiiiiiiiiiiiiiiiiiiiiiiiiiiiiiiiiiiiiiiiiiiiiiiiiiiiiiiiiiiiiiiiiiiiiiiiiii ppppppppppppppppppppppppp",
"ppppppppppppppppppppppppp 9iiiiiiiiiiiiiiiiiiiiiiiiiiiiiiiiiiiiiiiiiiiiiiiiiiiiiiiiiiiiiiiiiiiiiiiiii0 ppppppppppppppppppppppppp",
"ppppppppppppppppppppppppp 1iiiiiiiiiiiiiiiiiiiiiiiiiiiiiiiiiiiiiiiiiiiiiiiiiiiiiiiiiiiiiiiiiiiiiiiiii- ppppppppppppppppppppppppp",
"ppppppppppppppppppppppppppXeiiiiiiiiiiiiiiiiiiiiiiiiiiiiiiiiiiiiiiiiiiiiiiiiiiiiiiiiiiiiiiiiiiiiiiiiw pppppppppppppppppppppppppp",
"pppppppppppppppppppppppppp Oeiiiiiiiiiiiiiiiiiiiiiiiiiiiiiiiiiiiiiiiiiiiiiiiiiiiiiiiiiiiiiiiiiiiiiiwo pppppppppppppppppppppppppp",
"ppppppppppppppppppppppppppp  :0iiiiiiiiiiiiiiiiiiiiiiiiiiiiiiiiiiiiiiiiiiiiiiiiiiiiiiiiiiiiiiiiii81. ppppppppppppppppppppppppppp",
"ppppppppppppppppppppppppppppp                                                                      ppppppppppppppppppppppppppppp",
"ppppppppppppppppppppppppppppppppppppppp yiiiiiiiiiiiiiiiiiiiiiiiiiiiiiiiiiiiiiiiiiiiiiiy ppppppppppppppppppppppppppppppppppppppp",
"ppppppppppppppppppppppppppppppppppppppp iiiiiiiiiiiiiiiiiiiiiiiiiiiiiiiiiiiiiiiiiiiiiiiiXppppppppppppppppppppppppppppppppppppppp",
"ppppppppppppppppppppppppppppppppppppppp$iiiiiiiiiiiiiiiiiiiiiiiiiiiiiiiiiiiiiiiiiiiiiiiioppppppppppppppppppppppppppppppppppppppp",
"ppppppppppppppppppppppppppppppppppppppp&iiiiiiiiiiiiiiiiiiiiiiiiiiiiiiiiiiiiiiiiiiiiiiii*ppppppppppppppppppppppppppppppppppppppp",
"ppppppppppppppppppppppppppppppppppppppp<iiiiiiiiiiiiiiiiiiiiiiiiiiiiiiiiiiiiiiiiiiiiiiii-ppppppppppppppppppppppppppppppppppppppp",
"ppppppppppppppppppppppppppppppppppppppp1iiiiiiiiiiiiiiiiiiiiiiiiiiiiiiiiiiiiiiiiiiiiiiii3 pppppppppppppppppppppppppppppppppppppp",
"pppppppppppppppppppppppppppppppppppppp 7iiiiiiiiiiiiiiiiiiiiiiiiiiiiiiiiiiiiiiiiiiiiiiii5 pppppppppppppppppppppppppppppppppppppp",
"pppppppppppppppppppppppppppppppppppppp 9iiiiiiiiiiiiiiiiiiiiiiiiiiiiiiiiiiiiiiiiiiiiiiii0 pppppppppppppppppppppppppppppppppppppp",
"pppppppppppppppppppppppppppppppppppppp yiiiiiiiiiiiiiiiiiiiiiiiiiiiiiiiiiiiiiiiiiiiiiiiiw pppppppppppppppppppppppppppppppppppppp",
"pppppppppppppppppppppppppppppppppppppp iiiiiiiiiiiiiiiiiiiiiiiiiiiiiiiiiiiiiiiiiiiiiiiiii pppppppppppppppppppppppppppppppppppppp",
"pppppppppppppppppppppppppppppppppppppp$iiiiiiiiiiiiiiiiiiiiiiiiiiiiiiiiiiiiiiiiiiiiiiiiiiopppppppppppppppppppppppppppppppppppppp",
"pppppppppppppppppppppppppppppppppppppp&iiiiiiiiiiiiiiiiiiiiiiiiiiiiiiiiiiiiiiiiiiiiiiiiii*pppppppppppppppppppppppppppppppppppppp",
"pppppppppppppppppppppppppppppppppppppp>iiiiiiiiiiiiiiiiiiiiiiiiiiiiiiiiiiiiiiiiiiiiiiiiii-pppppppppppppppppppppppppppppppppppppp",
"pppppppppppppppppppppppppppppppppppppp1iiiiiiiiiiiiiiiiiiiiiiiiiiiiiiiiiiiiiiiiiiiiiiiiii1pppppppppppppppppppppppppppppppppppppp",
"ppppppppppppppppppppppppppppppppppppp 7iiiiiiiiiiiiiiiiiiiiiiiiiiiiiiiiiiiiiiiiiiiiiiiiii5 ppppppppppppppppppppppppppppppppppppp",
"ppppppppppppppppppppppppppppppppppppp 9iiiiiiiiiiiiiiiiiiiiiiiiiiiiiiiiiiiiiiiiiiiiiiiiii0 ppppppppppppppppppppppppppppppppppppp",
"ppppppppppppppppppppppppppppppppppppp eiiiiiiiiiiiiiiiiiiiiiiiiiiiiiiiiiiiiiiiiiiiiiiiiiiw ppppppppppppppppppppppppppppppppppppp",
"ppppppppppppppppppppppppppppppppppppp iiiiiiiiiiiiiiiiiiiiiiiiiiiiiiiiiiiiiiiiiiiiiiiiiiii ppppppppppppppppppppppppppppppppppppp",
"ppppppppppppppppppppppppppppppppppppp@iiiiiiiiiiiiiiiiiiiiiiiiiiiiiiiiiiiiiiiiiiiiiiiiiiiioppppppppppppppppppppppppppppppppppppp",
"ppppppppppppppppppppppppppppppppppppp&iiiiiiiiiiiiiiiiiiiiiiiiiiiiiiiiiiiiiiiiiiiiiiiiiiii%ppppppppppppppppppppppppppppppppppppp",
"ppppppppppppppppppppppppppppppppppppp>iiiiiiiiiiiiiiiiiiiiiiiiiiiiiiiiiiiiiiiiiiiiiiiiiiii-ppppppppppppppppppppppppppppppppppppp",
"ppppppppppppppppppppppppppppppppppppp1iiiiiiiiiiiiiiiiiiiiiiiiiiiiiiiiiiiiiiiiiiiiiiiiiiii1ppppppppppppppppppppppppppppppppppppp",
"pppppppppppppppppppppppppppppppppppp 6iiiiiiiiiiiiiiiiiiiiiiiiiiiiiiiiiiiiiiiiiiiiiiiiiiii5 pppppppppppppppppppppppppppppppppppp",
"pppppppppppppppppppppppppppppppppppp 9iiiiiiiiiiiiiiiiiiiiiiiiiiiiiiiiiiiiiiiiiiiiiiiiiiii8 pppppppppppppppppppppppppppppppppppp",
"pppppppppppppppppppppppppppppppppppp eiiiiiiiiiiiiiiiiiiiiiiiiiiiiiiiiiiiiiiiiiiiiiiiiiiiiw pppppppppppppppppppppppppppppppppppp",
"pppppppppppppppppppppppppppppppppppp iiiiiiiiiiiiiiiiiiiiiiiiiiiiiiiiiiiiiiiiiiiiiiiiiiiiii pppppppppppppppppppppppppppppppppppp",
"pppppppppppppppppppppppppppppppppppp@iiiiiiiiiiiiiiiiiiiiiiiiiiiiiiiiiiiiiiiiiiiiiiiiiiiiiiopppppppppppppppppppppppppppppppppppp",
"pppppppppppppppppppppppppppppppppppp&iiiiiiiiiiiiiiiiiiiiiiiiiiiiiiiiiiiiiiiiiiiiiiiiiiiiii#pppppppppppppppppppppppppppppppppppp",
"pppppppppppppppppppppppppppppppppppp=iiiiiiiiiiiiiiiiiiiiiiiiiiiiiiiiiiiiiiiiiiiiiiiiiiiiii-pppppppppppppppppppppppppppppppppppp",
"pppppppppppppppppppppppppppppppppppp1iiiiiiiiiiiiiiiiiiiiiiiiiiiiiiiiiiiiiiiiiiiiiiiiiiiiii1pppppppppppppppppppppppppppppppppppp",
"ppppppppppppppppppppppppppppppppppp 6iiiiiiiiiiiiiiiiiiiiiiiiiiiiiiiiiiiiiiiiiiiiiiiiiiiiii5 ppppppppppppppppppppppppppppppppppp",
"ppppppppppppppppppppppppppppppppppp 9iiiiiiiiiiiiiiiiiiiiiiiiiiiiiiiiiiiiiiiiiiiiiiiiiiiiii7 ppppppppppppppppppppppppppppppppppp",
"ppppppppppppppppppppppppppppppppppp qiiiiiiiiiiiiiiiiiiiiiiiiiiiiiiiiiiiiiiiiiiiiiiiiiiiiiiw ppppppppppppppppppppppppppppppppppp",
"ppppppppppppppppppppppppppppppppppp iiiiiiiiiiiiiiiiiiiiiiiiiiiiiiiiiiiiiiiiiiiiiiiiiiiiiiii ppppppppppppppppppppppppppppppppppp",
"pppppppppppppppppppppppppppppppppppXiiiiiiiiiiiiiiiiiiiiiiiiiiiiiiiiiiiiiiiiiiiiiiiiiiiiiiiioppppppppppppppppppppppppppppppppppp",
"ppppppppppppppppppppppppppppppppppp&iiiiiiiiiiiiiiiiiiiiiiiiiiiiiiiiiiiiiiiiiiiiiiiiiiiiiiii#ppppppppppppppppppppppppppppppppppp",
"ppppppppppppppppppppppppppppppppppp=iiiiiiiiiiiiiiiiiiiiiiiiiiiiiiiiiiiiiiiiiiiiiiiiiiiiiiii-ppppppppppppppppppppppppppppppppppp",
"ppppppppppppppppppppppppppppppppppp1iiiiiiiiiiiiiiiiiiiiiiiiiiiiiiiiiiiiiiiiiiiiiiiiiiiiiiii<ppppppppppppppppppppppppppppppppppp",
"pppppppppppppppppppppppppppppppppp 3iiiiiiiiiiiiiiiiiiiiiiiiiiiiiiiiiiiiiiiiiiiiiiiiiiiiiiii5 pppppppppppppppppppppppppppppppppp",
"pppppppppppppppppppppppppppppppppp 9iiiiiiiiiiiiiiiiiiiiiiiiiiiiiiiiiiiiiiiiiiiiiiiiiiiiiiii7 pppppppppppppppppppppppppppppppppp",
"pppppppppppppppppppppppppppppppppp qiiiiiiiiiiiiiiiiiiiiiiiiiiiiiiiiiiiiiiiiiiiiiiiiiiiiiiiiw pppppppppppppppppppppppppppppppppp",
"pppppppppppppppppppppppppppppppppp iiiiiiiiiiiiiiiiiiiiiiiiiiiiiiiiiiiiiiiiiiiiiiiiiiiiiiiiiy pppppppppppppppppppppppppppppppppp",
"ppppppppppppppppppppppppppppppppppXiiiiiiiiiiiiiiiiiiiiiiiiiiiiiiiiiiiiiiiiiiiiiiiiiiiiiiiiiiXpppppppppppppppppppppppppppppppppp",
"pppppppppppppppppppppppppppppppppp&iiiiiiiiiiiiiiiiiiiiiiiiiiiiiiiiiiiiiiiiiiiiiiiiiiiiiiiiii#pppppppppppppppppppppppppppppppppp",
"pppppppppppppppppppppppppppppppppp=iiiiiiiiiiiiiiiiiiiiiiiiiiiiiiiiiiiiiiiiiiiiiiiiiiiiiiiiii-pppppppppppppppppppppppppppppppppp",
"pppppppppppppppppppppppppppppppppp<iiiiiiiiiiiiiiiiiiiiiiiiiiiiiiiiiiiiiiiiiiiiiiiiiiiiiiiiii<pppppppppppppppppppppppppppppppppp",
"ppppppppppppppppppppppppppppppppp 3iiiiiiiiiiiiiiiiiiiiiiiiiiiiiiiiiiiiiiiiiiiiiiiiiiiiiiiiii3 ppppppppppppppppppppppppppppppppp",
"ppppppppppppppppppppppppppppppppp 9iiiiiiiiiiiiiiiiiiiiiiiiiiiiiiiiiiiiiiiiiiiiiiiiiiiiiiiiii7 ppppppppppppppppppppppppppppppppp",
"ppppppppppppppppppppppppppppppppp qiiiiiiiiiiiiiiiiiiiiiiiiiiiiiiiiiiiiiiiiiiiiiiiiiiiiiiiiiiw ppppppppppppppppppppppppppppppppp",
"ppppppppppppppppppppppppppppppppp yiiiiiiiiiiiiiiiiiiiiiiiiiiiiiiiiiiiiiiiiiiiiiiiiiiiiiiiiiiy ppppppppppppppppppppppppppppppppp",
"ppppppppppppppppppppppppppppppppp yiiiiiiiiiiiiiiiiiiiiiiiiiiiiiiiiiiiiiiiiiiiiiiiiiiiiiiiiiiy ppppppppppppppppppppppppppppppppp",
"ppppppppppppppppppppppppppppppppp 9iiiiiiiiiiiiiiiiiiiiiiiiiiiiiiiiiiiiiiiiiiiiiiiiiiiiiiiiii8 ppppppppppppppppppppppppppppppppp",
"ppppppppppppppppppppppppppppppppp 1iiiiiiiiiiiiiiiiiiiiiiiiiiiiiiiiiiiiiiiiiiiiiiiiiiiiiiiiii< ppppppppppppppppppppppppppppppppp",
"ppppppppppppppppppppppppppppppppppXyiiiiiiiiiiiiiiiiiiiiiiiiiiiiiiiiiiiiiiiiiiiiiiiiiiiiiiiiwopppppppppppppppppppppppppppppppppp",
"pppppppppppppppppppppppppppppppppp ,iiiiiiiiiiiiiiiiiiiiiiiiiiiiiiiiiiiiiiiiiiiiiiiiiiiiiiii* pppppppppppppppppppppppppppppppppp",
"ppppppppppppppppppppppppppppppppppp =eiiiiiiiiiiiiiiiiiiiiiiiiiiiiiiiiiiiiiiiiiiiiiiiiiiiiy- ppppppppppppppppppppppppppppppppppp",
"pppppppppppppppppppppppppppppppppppp O30iiiiiiiiiiiiiiiiiiiiiiiiiiiiiiiiiiiiiiiiiiiiiiiie1. pppppppppppppppppppppppppppppppppppp",
"ppppppppppppppppppppp                                                                                      ppppppppppppppppppppp",
"ppppppppppppppppppp X29iiiiiiiiiiiiiiiiiiiiiiiiiiiiiiiiiiiiiiiiiiiiiiiiiiiiiiiiiiiiiiiiiiiiiiiiiiiiiiiiiiq;  ppppppppppppppppppp",
"pppppppppppppppppp @tiiiiiiiiiiiiiiiiiiiiiiiiiiiiiiiiiiiiiiiiiiiiiiiiiiiiiiiiiiiiiiiiiiiiiiiiiiiiiiiiiiiiiir+ pppppppppppppppppp",
"pppppppppppppppppp tiiiiiiiiiiiiiiiiiiiiiiiiiiiiiiiiiiiiiiiiiiiiiiiiiiiiiiiiiiiiiiiiiiiiiiiiiiiiiiiiiiiiiiiirXpppppppppppppppppp",
"ppppppppppppppppp ,iiiiiiiiiiiiiiiiiiiiiiiiiiiiiiiiiiiiiiiiiiiiiiiiiiiiiiiiiiiiiiiiiiiiiiiiiiiiiiiiiiiiiiiiii1 ppppppppppppppppp",
"ppppppppppppppppp qiiiiiiiiiiiiiiiiiiiiiiiiiiiiiiiiiiiiiiiiiiiiiiiiiiiiiiiiiiiiiiiiiiiiiiiiiiiiiiiiiiiiiiiiii9 ppppppppppppppppp",
"ppppppppppppppppp iiiiiiiiiiiiiiiiiiiiiiiiiiiiiiiiiiiiiiiiiiiiiiiiiiiiiiiiiiiiiiiiiiiiiiiiiiiiiiiiiiiiiiiiiiii ppppppppppppppppp",
"ppppppppppppppppp iiiiiiiiiiiiiiiiiiiiiiiiiiiiiiiiiiiiiiiiiiiiiiiiiiiiiiiiiiiiiiiiiiiiiiiiiiiiiiiiiiiiiiiiiiii ppppppppppppppppp",
"ppppppppppppppppp 9iiiiiiiiiiiiiiiiiiiiiiiiiiiiiiiiiiiiiiiiiiiiiiiiiiiiiiiiiiiiiiiiiiiiiiiiiiiiiiiiiiiiiiiiii0 ppppppppppppppppp",
"ppppppppppppppppp 1iiiiiiiiiiiiiiiiiiiiiiiiiiiiiiiiiiiiiiiiiiiiiiiiiiiiiiiiiiiiiiiiiiiiiiiiiiiiiiiiiiiiiiiiii- ppppppppppppppppp",
"ppppppppppppppppppXeiiiiiiiiiiiiiiiiiiiiiiiiiiiiiiiiiiiiiiiiiiiiiiiiiiiiiiiiiiiiiiiiiiiiiiiiiiiiiiiiiiiiiiiiw pppppppppppppppppp",
"pppppppppppppppppp Oeiiiiiiiiiiiiiiiiiiiiiiiiiiiiiiiiiiiiiiiiiiiiiiiiiiiiiiiiiiiiiiiiiiiiiiiiiiiiiiiiiiiiiiwoppppppppppppppppppp",
"ppppppppppppppppppp  :0iiiiiiiiiiiiiiiiiiiiiiiiiiiiiiiiiiiiiiiiiiiiiiiiiiiiiiiiiiiiiiiiiiiiiiiiiiiiiiiiii81. ppppppppppppppppppp",
"ppppppppppppppppppppp                                                                                      ppppppppppppppppppppp",
"pppppppppppppppppppppppppppppppppppppppppppppppppppppppppppppppppppppppppppppppppppppppppppppppppppppppppppppppppppppppppppppppp",
"pppppppppppppppppppppppppppppppppppppppppppppppppppppppppppppppppppppppppppppppppppppppppppppppppppppppppppppppppppppppppppppppp",
"pppppppppppppppppppppppppppppppppppppppppppppppppppppppppppppppppppppppppppppppppppppppppppppppppppppppppppppppppppppppppppppppp",
"pppppppppppppppppppppppppppppppppppppppppppppppppppppppppppppppppppppppppppppppppppppppppppppppppppppppppppppppppppppppppppppppp",
"pppppppppppppppppppppppppppppppppppppppppppppppppppppppppppppppppppppppppppppppppppppppppppppppppppppppppppppppppppppppppppppppp",
"pppppppppppppppppppppppppppppppppppppppppppppppppppppppppppppppppppppppppppppppppppppppppppppppppppppppppppppppppppppppppppppppp",
"pppppppppppppppppppppppppppppppppppppppppppppppppppppppppppppppppppppppppppppppppppppppppppppppppppppppppppppppppppppppppppppppp",
"pppppppppppppppppppppppppppppppppppppppppppppppppppppppppppppppppppppppppppppppppppppppppppppppppppppppppppppppppppppppppppppppp",
"pppppppppppppppppppppppppppppppppppppppppppppppppppppppppppppppppppppppppppppppppppppppppppppppppppppppppppppppppppppppppppppppp",
"pppppppppppppppppppppppppppppppppppppppppppppppppppppppppppppppppppppppppppppppppppppppppppppppppppppppppppppppppppppppppppppppp",
"pppppppppppppppppppppppppppppppppppppppppppppppppppppppppppppppppppppppppppppppppppppppppppppppppppppppppppppppppppppppppppppppp"
};
