/* XPM */
static char *result[] = {
/* columns rows colors chars-per-pixel */
"128 128 42 1 ",
"  c black",
". c #0F0E0E",
"X c #0F0F0E",
"o c #100F0F",
"O c #10100F",
"+ c #1E1D1C",
"@ c #1E1D1D",
"# c #1E1E1C",
"$ c #1E1E1D",
"% c #2C2C2B",
"& c #2D2C2B",
"* c #2D2D2B",
"= c #3B3B39",
"- c #3C3B39",
"; c #4B4A47",
": c #595855",
"> c #5A5955",
", c #595856",
"< c #595956",
"1 c #5A5956",
"2 c #686764",
"3 c #696864",
"4 c #777672",
"5 c #787772",
"6 c #868580",
"7 c #878680",
"8 c #95948E",
"9 c #95948F",
"0 c #A4A29D",
"q c #A4A39D",
"w c #B3B1AB",
"e c #B3B2AB",
"r c #C2C0B9",
"t c #C2C1B9",
"y c #D1CFC7",
"u c #D1CFC8",
"i c #D1D0C7",
"p c #D1D0C8",
"a c #E0DED6",
"s c #E0DFD6",
"d c #EFEDE4",
"f c None",
/* pixels */
"ffffffffffffffffffffffffffffffffffffffffffffffffffffffffffffffffffffffffffffffffffffffffffffffffffffffffffffffffffffffffffffffff",
"ffffffffffffffffffffffffffffffffffffffffffffffffffffffffffffffffffffffffffffffffffffffffffffffffffffffffffffffffffffffffffffffff",
"ffffffffffffffffffffffffffffffffffffffffffffffffffffffffffffffffffffffffffffffffffffffffffffffffffffffffffffffffffffffffffffffff",
"ffffffffffffffffffffffffffffffffffffffffffffffffffffffffffffffffffffffffffffffffffffffffffffffffffffffffffffffffffffffffffffffff",
"ffffffffffffffffffffffffffffffffffffffffffffffffffffffffffffffffffffffffffffffffffffffffffffffffffffffffffffffffffffffffffffffff",
"ffffffffffffffffffffffffffffffffffffffffffffffffffffffffffffffffffffffffffffffffffffffffffffffffffffffffffffffffffffffffffffffff",
"ffffffffffffffffffffffffffffffffffffffffffffffffffffffffffffffffffffffffffffffffffffffffffffffffffffffffffffffffffffffffffffffff",
"ffffffffffffffffffffffffffffffffffffffffffffffffffffffffffffffffffffffffffffffffffffffffffffffffffffffffffffffffffffffffffffffff",
"ffffffffffffffffffffffffffffffffffffffffffffffffffffffffffffffffffffffffffffffffffffffffffffffffffffffffffffffffffffffffffffffff",
"ffffffffffffffffffffffffffffffffffffffffffffffffffffffffffffffffffffffffffffffffffffffffffffffffffffffffffffffffffffffffffffffff",
"ffffffffffffffffffffffffffffffffffffffffffffffffffffffffffffffffffffffff fffffffffffffffffffffffffffffffffffffffffffffffffffffff",
"fffffffffffffffffffffffffffffffffffffffffffffffffffffffffffffffffffffffO;fffffffffffffffffffffffffffffffffffffffffffffffffffffff",
"fffffffffffffffffffffffffffffffffffffffffffffffffffffffff  fffffffffff 7e ffffffffffffffffffffffffffffffffffffffffffffffffffffff",
"fffffffffffffffffffffffffffffffffffffffffffffffffffffffff-& fffffffff -ddXffffffffffffffffffffffffffffffffffffffffffffffffffffff",
"fffffffffffffffffffffffffffffffffffffffffffffffffffffffff4a& ffffffffXpdd4 fffffffffffffffffffffffffffffffffffffffffffffffffffff",
"ffffffffffffffffffffffffffffffffffffffffffffffffffffffff qda# ffffff 7dddy fffffffffffffffffffffffffffffffffffffffffffffffffffff",
"ffffffffffffffffffffffffffffffffffffffffffffffffffffffff tddi# ffff -ddddd-fffffffffffffffffffffffffffffffffffffffffffffffffffff",
"ffffffffffffffffffffffffffffffffffffffffffffffffffffffffXddddi# fff$pddddd6 ffffffffffffffffffffffffffffffffffffffffffffffffffff",
"ffffffffffffffffffffffffffffffffffffffffffffffffffffffff-dddddi# f 9ddddddaOffffffffffffffffffffffffffffffffffffffffffffffffffff",
"ffffffffffffffffffffffffffffffffffffffffffffffffffffffff2ddddddi# 3dddddddd;ffffffffffffffffffffffffffffffffffffffffffffffffffff",
"fffffffffffffffffffffffffffffffffffffffffffffffffffffff 6dddddddddddddddddde fffffffffffffffffffffffffffffffffffffffffffffffffff",
"fffffffffffffffffffffffffffffffffffffffffffffffffffffff tddddddddddddddddddd- ffffffffffffffffffffffffffffffffffffffffffffffffff",
"ffffffffffffffffffffffffffffffffffffffffffffffffffffff $ddddddddddddddddddddi#ffffffffffffffffffffffffffffffffffffffffffffffffff",
"fffffffffffffffffffffffffffffffffffffffffffffffffffff $pdddddddddddddddddddddi#fffffffffffffffffffffffffffffffffffffffffffffffff",
"fffffffffffffffffffffffffffffffffffffffffffffffffff -9ddddddddddddddddddddddddtOffffffffffffffffffffffffffffffffffffffffffffffff",
"ffffffffffffffffffffffffffffffffffffffffffffffff  -edddddddddddddddddddddddddddtOfffffffffffffffffffffffffffffffffffffffffffffff",
"ffffffffffffffffffffffffffffffffffffffffffffff  ;edddddddddddddddddddddddddddddd8 ffffffffffffffffffffffffffffffffffffffffffffff",
"ffffffffffffffffffffffffffffffffffffffffffff O5sddddddddddddddddddddddddddddddddd8 fffffffffffffffffffffffffffffffffffffffffffff",
"ffffffffffffffffffffffffffffffffffffffffff X5sdddddddddddddddddddddddddddddddddddd6 ffffffffffffffffffffffffffffffffffffffffffff",
"ffffffffffffffffffffffffffffffffffffffff $6sddddddddddddddddddddddddddddddddddddddd5 fffffffffffffffffffffffffffffffffffffffffff",
"ffffffffffffffffffffffffffffffffffffff -eddddddddddddddddddddddddddddddddddddddddddd5 ffffffffffffffffffffffffffffffffffffffffff",
"fffffffffffffffffffffffffffffffffff  -edddddddddddddddddddddddddddddddddddddddddddddd5 fffffffffffffffffffffffffffffffffffffffff",
"fffffffffffffffffffffffffffffffff O3pddddddddddddddddddddddddddddddddddddddddddddddddd> ffffffffffffffffffffffffffffffffffffffff",
"fffffffffffffffffffffffffffffff X5sdddddddddddddddddddddddddddddddddddddddddddddddddddd> fffffffffffffffffffffffffffffffffffffff",
"fffffffffffffffffffffffffffff X5sddddddddddddddddddddddddddddddddddddddddddddddddddddddd- ffffffffffffffffffffffffffffffffffffff",
"fffffffffffffffffffffffffff -qdddddddddddddddddddddddddddddddddddddddddddddddddddddddddda& fffffffffffffffffffffffffffffffffffff",
"ffffffffffffffffffffffffff 5ddddddddddddddddddddddddddddddddddddddddddddddddddddddddddddda# ffffffffffffffffffffffffffffffffffff",
"fffffffffffffffffffffffff 1dddddddddddddddddddddddddddddddddddddddddddddddddddddddddddddddi#ffffffffffffffffffffffffffffffffffff",
"fffffffffffffffffffffffff tdddddddddddddddddddddddddddddddddddddddddddddddddddddddddddddddde fffffffffffffffffffffffffffffffffff",
"fffffffffffffffffffffffff ddddddddddddddddddddddddddddddddddddddddddddddddddddddddddddddddddXfffffffffffffffffffffffffffffffffff",
"fffffffffffffffffffffffff addddddddddddddddddddddddddddddddddddddddddddddddddddddddddddddddd:fffffffffffffffffffffffffffffffffff",
"fffffffffffffffffffffffff 6ddddddddddddddddddddddddddddddddddddddddddddddddddddddddddddddddd4fffffffffffffffffffffffffffffffffff",
"ffffffffffffffffffffffffffXudddddddddddddddddddddddddddddddddddddddddddddddddddddddddddddddd4fffffffffffffffffffffffffffffffffff",
"fffffffffffffffffffffffffff@9adddddddddddddddddddddddddddddddddddddddddddddddddddddddddddddd4fffffffffffffffffffffffffffffffffff",
"ffffffffffffffffffffffffffff  =2wadddddddddddddddddddddddddddddddddddddddddddddddddddddddddd4fffffffffffffffffffffffffffffffffff",
"ffffffffffffffffffffffffffffffff  =2wadddddddddddddddddddddddddddddddddddddddddddddddddddddd4fffffffffffffffffffffffffffffffffff",
"ffffffffffffffffffffffffffffffffffff  =2wadddddddddddddddddddddddddddddddddddddddddddddddddd4fffffffffffffffffffffffffffffffffff",
"ffffffffffffffffffffffffffffffffffffffff  %20adddddddddddddddddddddddddddddddddddddddddddddd4fffffffffffffffffffffffffffffffffff",
"ffffffffffffffffffffffffffffffffffffffffffff  %20adddddddddddddddddddddddddddddddddddddddddd4fffffffffffffffffffffffffffffffffff",
"ffffffffffffffffffffffffffffffffffffffffffffffff  %9uddddddddddddddddddddddddddddddddddddddd4fffffffffffffffffffffffffffffffffff",
"fffffffffffffffffffffffffffffffffffffffffffffffffff @6dddddddddddddddddddddddddddddddddddddd4fffffffffffffffffffffffffffffffffff",
"fffffffffffffffffffffffffffffffffffffffffffffffffffff 4ddddddddddddddddddddddddddddddddddddd4fffffffffffffffffffffffffffffffffff",
"ffffffffffffffffffffffffffffffffffffffffffffffffffffff 6dddddddddddddddddddddddddddddddddddd4fffffffffffffffffffffffffffffffffff",
"fffffffffffffffffffffffffffffffffffffffffffffffffffffffOuddddddddddddddddddddddddddddddddddd4fffffffffffffffffffffffffffffffffff",
"ffffffffffffffffffffffffffffffffffffffffffffffffffffffff4ddddddddddddddddddddddddddddddddddd4fffffffffffffffffffffffffffffffffff",
"ffffffffffffffffffffffffffffffffffffffffffffffffffffffffXddddddddddddddddddddddddddddddddddd4fffffffffffffffffffffffffffffffffff",
"ffffffffffffffffffffffffffffffffffffffffffffffffffffffff udddddddddddddddddddddddddddddddddd4fffffffffffffffffffffffffffffffffff",
"ffffffffffffffffffffffffffffffffffffffffffffffffffffffff edddddddddddddddddddddddddddddddddd4fffffffffffffffffffffffffffffffffff",
"ffffffffffffffffffffffffffffffffffffffffffffffffffffffff edddddddddddddddddddddddddddddddddd4fffffffffffffffffffffffffffffffffff",
"ffffffffffffffffffffffffffffffffffffffffffffffffffffffff adddddddddddddddddddddddddddddddddd4fffffffffffffffffffffffffffffffffff",
"ffffffffffffffffffffffffffffffffffffffffffffffffffffffff$ddddddddddddddddddddddddddddddddddd4fffffffffffffffffffffffffffffffffff",
"fffffffffffffffffffffffffffffffffffffffffffffffffffffff 6ddddddddddddddddddddddddddddddddddd4fffffffffffffffffffffffffffffffffff",
"fffffffffffffffffffffffffffffffffffffffffffffffffffffff$pddddddddddddddddddddddddddddddddddd4fffffffffffffffffffffffffffffffffff",
"ffffffffffffffffffffffffffffffffffffffffffffffffffffff qdddddddddddddddddddddddddddddddddddd4fffffffffffffffffffffffffffffffffff",
"fffffffffffffffffffffffffffffffffffffffffffffffffffff 5ddddddddddddddddddddddddddddddddddddd4fffffffffffffffffffffffffffffffffff",
"fffffffffffffffffffffffffffffffffffffffffffffffffffff$dddddddddddddddddddddddddddddddddddddd4fffffffffffffffffffffffffffffffffff",
"ffffffffffffffffffffffffffffffffffffffffffffffffffff pdddddddddddddddddddddddddddddddddddddd4fffffffffffffffffffffffffffffffffff",
"fffffffffffffffffffffffffffffffffffffffffffffffffff 7ddddddddddddddddddddddddddddddddddddddd4fffffffffffffffffffffffffffffffffff",
"ffffffffffffffffffffffffffffffffffffffffffffffffff 1dddddddddddddddddddddddddddddddddddddddd4fffffffffffffffffffffffffffffffffff",
"ffffffffffffffffffffffffffffffffffffffffffffffffff$pdddddddddddddddddddddddddddddddddddddddd4fffffffffffffffffffffffffffffffffff",
"fffffffffffffffffffffffffffffffffffffffffffffffff eddddddddddddddddddddddddddddddddddddddddd4fffffffffffffffffffffffffffffffffff",
"ffffffffffffffffffffffffffffffffffffffffffffffff 5dddddddddddddddddddddddddddddddddddddddddd8 ffffffffffffffffffffffffffffffffff",
"ffffffffffffffffffffffffffffffffffffffffffffffff$ddddddddddddddddddddddddddddddddddddddddddde ffffffffffffffffffffffffffffffffff",
"fffffffffffffffffffffffffffffffffffffffffffffffOpddddddddddddddddddddddddddddddddddddddddddddXffffffffffffffffffffffffffffffffff",
"ffffffffffffffffffffffffffffffffffffffffffffff 7ddddddddddddddddddddddddddddddddddddddddddddd2ffffffffffffffffffffffffffffffffff",
"fffffffffffffffffffffffffffffffffffffffffffff 1dddddddddddddddddddddddddddddddddddddddddddddde fffffffffffffffffffffffffffffffff",
"fffffffffffffffffffffffffffffffffffffffffffff$pdddddddddddddddddddddddddddddddddddddddddddddddXfffffffffffffffffffffffffffffffff",
"ffffffffffffffffffffffffffffffffffffffffffff edddddddddddddddddddddddddddddddddddddddddddddddd2fffffffffffffffffffffffffffffffff",
"fffffffffffffffffffffffffffffffffffffffffff 5ddddddddddddddddddddddddddddddddddddddddddddddddde ffffffffffffffffffffffffffffffff",
"fffffffffffffffffffffffffffffffffffffffffff$dddddddddddddddddddddddddddddddddddddddddddddddddddXffffffffffffffffffffffffffffffff",
"ffffffffffffffffffffffffffffffffffffffffffXpddddddddddddddddddddddddddddddddddddddddddddddddddd:ffffffffffffffffffffffffffffffff",
"fffffffffffffffffffffffffffffffffffffffff 9dddddddddddddddddddddddddddddddddddddddddddddddddddd8 fffffffffffffffffffffffffffffff",
"ffffffffffffffffffffffffffffffffffffffff 1ddddddddddddddddddddddddddddddddddddddddddddddddddddda fffffffffffffffffffffffffffffff",
"ffffffffffffffffffffffffffffffffffffffff$pdddddddddddddddddddddddddddddddddddddddddddddddddddddd-fffffffffffffffffffffffffffffff",
"fffffffffffffffffffffffffffffffffffffff tddddddddddddddddddddddddddddddddddddddddddddddddddddddd6 ffffffffffffffffffffffffffffff",
"ffffffffffffffffffffffffffffffffffffff 5ddddddddddddddddddddddddddddddddddddddddddddddddddddddddy ffffffffffffffffffffffffffffff",
"fffffffffffffffffffffffffffffffffffff *dddddddddddddddddddddddddddddddddddddddddddddddddddddddddd+ffffffffffffffffffffffffffffff",
"fffffffffffffffffffffffffffffffffffff$pdddddddddddddddddddddddddddddddddddddddddddddddddddddddddd4ffffffffffffffffffffffffffffff",
"ffffffffffffffffffffffffffffffffffff 9ddddddddddddddddddddddddddddddddddddddddddddddddddddddddddde fffffffffffffffffffffffffffff",
"fffffffffffffffffffffffffffffffffff 1dddddddddddddddddddddddddddddddddddddddddddddddddddddddddddddXfffffffffffffffffffffffffffff",
"fffffffffffffffffffffffffffffffffff$sddddddddddddddddddddddddddddddddddddddddddddddddddddddddddddd:fffffffffffffffffffffffffffff",
"ffffffffffffffffffffffffffffffffff pddddddddddddddddddddddddddddddddddddddddddddddddddddddddddddddq ffffffffffffffffffffffffffff",
"fffffffffffffffffffffffffffffffff 5dddddddddddddddddddddddddddddddddddddddddddddddddddddddddddddddaOffffffffffffffffffffffffffff",
"fffffffffffffffffffffffffffffffff pdddddddddddddddddddddddddddddddddddddddddddddddddddddddddddddddd-ffffffffffffffffffffffffffff",
"fffffffffffffffffffffffffffffffff-ddddddddddddddddddddddddddddddddddddddddddddddddddddddddddddddddd6 fffffffffffffffffffffffffff",
"fffffffffffffffffffffffffffffffff<dddddddddddddddddddddddddddddddddddddddddddddddddddddddddddddddddq fffffffffffffffffffffffffff",
"fffffffffffffffffffffffffffffffff<dddddddddddddddddddddddddddddddddddddddddddddddddddddddddddddddddw fffffffffffffffffffffffffff",
"fffffffffffffffffffffffffffffffff-ddddddddddddddddddddddddddddddddddddddddddddddddddddddddddddddddd6 fffffffffffffffffffffffffff",
"fffffffffffffffffffffffffffffffffOadddddddddddddddddddddddddddddddddddddddddddddddddddddddddddddddd=ffffffffffffffffffffffffffff",
"fffffffffffffffffffffffffffffffff 4dddddddddddddddddddddddddddddddddddddddddddddddddddddddddddddddy ffffffffffffffffffffffffffff",
"ffffffffffffffffffffffffffffffffff edddddddddddddddddddddddddddddddddddddddddddddddddddddddddddddy+fffffffffffffffffffffffffffff",
"fffffffffffffffffffffffffffffffffffO9dddddddddddddddddddddddddddddddddddddddddddddddddddddddddddy+ffffffffffffffffffffffffffffff",
"ffffffffffffffffffffffffffffffffffff ,0adddddddddddddddddddddddddddddddddddddddddddddddddddddaw2offfffffffffffffffffffffffffffff",
"fffffffffffffffffffff                                                                                      fffffffffffffffffffff",
"fffffffffffffffffff X5eddddddddddddddddddddddddddddddddddddddddddddddddddddddddddddddddddddddddddddddddddt>  fffffffffffffffffff",
"ffffffffffffffffff $pddddddddddddddddddddddddddddddddddddddddddddddddddddddddddddddddddddddddddddddddddddddi# ffffffffffffffffff",
"ffffffffffffffffff pddddddddddddddddddddddddddddddddddddddddddddddddddddddddddddddddddddddddddddddddddddddddiXffffffffffffffffff",
"fffffffffffffffff 1dddddddddddddddddddddddddddddddddddddddddddddddddddddddddddddddddddddddddddddddddddddddddd4 fffffffffffffffff",
"fffffffffffffffff tdddddddddddddddddddddddddddddddddddddddddddddddddddddddddddddddddddddddddddddddddddddddddde fffffffffffffffff",
"fffffffffffffffff dddddddddddddddddddddddddddddddddddddddddddddddddddddddddddddddddddddddddddddddddddddddddddd fffffffffffffffff",
"fffffffffffffffff dddddddddddddddddddddddddddddddddddddddddddddddddddddddddddddddddddddddddddddddddddddddddddd fffffffffffffffff",
"fffffffffffffffff eddddddddddddddddddddddddddddddddddddddddddddddddddddddddddddddddddddddddddddddddddddddddddr fffffffffffffffff",
"fffffffffffffffff 4dddddddddddddddddddddddddddddddddddddddddddddddddddddddddddddddddddddddddddddddddddddddddd: fffffffffffffffff",
"ffffffffffffffffffXuddddddddddddddddddddddddddddddddddddddddddddddddddddddddddddddddddddddddddddddddddddddddy ffffffffffffffffff",
"ffffffffffffffffff @uddddddddddddddddddddddddddddddddddddddddddddddddddddddddddddddddddddddddddddddddddddddy+fffffffffffffffffff",
"fffffffffffffffffff  ,rddddddddddddddddddddddddddddddddddddddddddddddddddddddddddddddddddddddddddddddddddw4. fffffffffffffffffff",
"fffffffffffffffffffff                                                                                      fffffffffffffffffffff",
"ffffffffffffffffffffffffffffffffffffffffffffffffffffffffffffffffffffffffffffffffffffffffffffffffffffffffffffffffffffffffffffffff",
"ffffffffffffffffffffffffffffffffffffffffffffffffffffffffffffffffffffffffffffffffffffffffffffffffffffffffffffffffffffffffffffffff",
"ffffffffffffffffffffffffffffffffffffffffffffffffffffffffffffffffffffffffffffffffffffffffffffffffffffffffffffffffffffffffffffffff",
"ffffffffffffffffffffffffffffffffffffffffffffffffffffffffffffffffffffffffffffffffffffffffffffffffffffffffffffffffffffffffffffffff",
"ffffffffffffffffffffffffffffffffffffffffffffffffffffffffffffffffffffffffffffffffffffffffffffffffffffffffffffffffffffffffffffffff",
"ffffffffffffffffffffffffffffffffffffffffffffffffffffffffffffffffffffffffffffffffffffffffffffffffffffffffffffffffffffffffffffffff",
"ffffffffffffffffffffffffffffffffffffffffffffffffffffffffffffffffffffffffffffffffffffffffffffffffffffffffffffffffffffffffffffffff",
"ffffffffffffffffffffffffffffffffffffffffffffffffffffffffffffffffffffffffffffffffffffffffffffffffffffffffffffffffffffffffffffffff",
"ffffffffffffffffffffffffffffffffffffffffffffffffffffffffffffffffffffffffffffffffffffffffffffffffffffffffffffffffffffffffffffffff",
"ffffffffffffffffffffffffffffffffffffffffffffffffffffffffffffffffffffffffffffffffffffffffffffffffffffffffffffffffffffffffffffffff",
"ffffffffffffffffffffffffffffffffffffffffffffffffffffffffffffffffffffffffffffffffffffffffffffffffffffffffffffffffffffffffffffffff"
};
